<?xml version="1.0" encoding="utf-8"?>
<!-- Generator: Adobe Illustrator 29.0.1, SVG Export Plug-In . SVG Version: 9.03 Build 54978)  -->
<svg version="1.1" id="Layer_1" xmlns="http://www.w3.org/2000/svg" xmlns:xlink="http://www.w3.org/1999/xlink" x="0px" y="0px"
	 viewBox="0 0 311.3 311.9" style="enable-background:new 0 0 311.3 311.9;" xml:space="preserve">
<g>
	<path style="fill:#989898;stroke:#010101;stroke-linecap:round;stroke-linejoin:round;" d="M87.7,97.4c0,0-26.2-1.5-27.6-0.7
		c1.6,7.4,1.9,7.4,1.9,7.4l26.8-3.2L87.7,97.4z"/>
	<path style="fill:#FFFFFF;" d="M201.7,189.9l4.2,44.1l34.2-0.5l-1.9,4c0,0-6.5,2.3-8.5,8c-2.4,7.1-4.3,11.5-1.3,10.9
		c2.7-0.9,4.8-6.1,4.8-6.1s-1.9,11.5,4.4,7.7c2.6,1.5,2.6,1.5,2.6,1.5s1.7,2.8,3,0c2.4-4.4,4.4-6.1,4.4-6.1s10.6,4.3,15.6-5.5
		c7-13.4,11.2-20.2,11.2-20.2l-12.1-4.6l-3.7-2.8c0,0,6.1-23.9,6.4-24.5C258.4,198.8,233.1,213.9,201.7,189.9z"/>
	<path style="fill:#EDECEC;stroke:#010101;stroke-linecap:round;stroke-linejoin:round;" d="M236.7,297.6
		c-8.4-12-20.5-28.9-30.6-39.5l-49.4,0.2c8.6,12.9,20.8,28.6,29.4,41.4L236.7,297.6z"/>
	<path style="fill:#FFFFFF;" d="M285.5,223.7l0.9,9.9l-16.4,0.6l4.2-6.5C274.3,227.7,283.5,229.9,285.5,223.7z"/>
	<path style="fill:#B6B8BA;" d="M176.7,258.4c0,0-3.6,0-2.5,2.7s4.6,6.3,4.6,6.3s3.4,1.6,4-1.9c2.1,4.5,4.3,6.2,4.9,1.3
		c3.2,3.4,5.1,1.9,5.1,1.9s5.5-4.8,5.1-13.2c2.5,12.1,3.5,20.5,5.8,20c3.2-3-0.5-20.2-0.5-20.2s-8.2-7-8.3-9.1
		c-15.3,1.4-15.3,1.4-15.3,1.4s-0.1,3.4-1.6,4.9C176.5,254.1,176.7,258.4,176.7,258.4z"/>
	<path style="fill:#B6B8BA;" d="M179.3,70.9l5,10.8c0,0,4.2,3.6,5,7.5c0.8,3.9,1.4,10.7,17.7,20.5c8.1,5.7,17.3,5.7,23.9-2.7
		c5.5-0.5,13.3-12.7,11.8-21.3c-3.4-25-3.6-25.8-3.6-25.8s-28.8-1.5-30.5-1.2C207.1,58.9,179.3,70.9,179.3,70.9z"/>
	<path style="fill:#FFFFFF;" d="M92,27.1c0,0,0.1-6.2-2.8-11.5c-2.7-5.3-5.3-3.1-14-0.8c-3.4,1-6.8,1.4-8.3,1.3
		c-1.5-0.1-8.7,0.3-16.9,3.9c-8.1,2.8-7.4,10.6-7.4,10.6s0,0-2.6,22.2c-2.6,8.4,17.6,23,17.6,23s4.8,6.1,5.8,5.3
		c0.1,2.6-1.5,20-1.5,20v3.6l16.4,11.6c0,0,0,0,6.9,3.6c2.9-2,2.8-20.1,2.8-20.1L85,98.4l0.3-11.7c0,0,0,0,5.8-1.5
		c7.7-1.6,6-20.1,6-20.1s0,0,0.4-26.4C98.1,32.6,92,27.1,92,27.1z"/>
	<g>
		<path style="fill:#DBDBDB;" d="M180.3,161.6l-1.8,32.1c0,0,17.1-13.9,19-30.1c-3.2-35-3.2-35-3.2-35L180.3,161.6z"/>
		<path style="fill:#DBDBDB;" d="M108.4,131.7c0,0,0.5-41.2,15.3-44.4c10.2-3.4,10.2-3.4,10.2-3.4s9.2,15.1,20.2,11.4
			c9.4-5.5,10.3-11.4,10.3-11.4s13.6,5.2,14.2,6.2c-5.1,12.3,4.6,51.2,4.6,51.2l-6.7,60.9l-40.9,6.1l-26.8-27.9L108.4,131.7z"/>
		<g>
			<path style="fill:#B6B8BA;" d="M122.7,189.4l-5.8-5.9l4.5-3.6l-0.3-1c0,0,0,0-9.5-8.8c0.4-1.4-0.8-35-3.1-46.8s-13.5-20-13.5-20
				l-0.7-4.7l-6.1-1.1c0,0-0.3,0-0.2,2.6c1.6,2.4-1.6,18.3-1.6,18.3l-1.1,1.7l-6-2.7L59.6,96.9l-3.7,2.4l0.5,1.7
				c0,0,0.4,0.7-10.8,5.7c-6.9,2.8-8.7,5.6-20.8,19.8c-11.1,13.2-23.4,40.2-23.4,40.2s-1.3,2.7,0.2,5.8c5.4,5.5,29.1,40.8,29.1,40.8
				l3.6-1.5l6.2,7.7l-1.8,4.4l-1.7-0.3c0,0-2.1-0.6-3.4,0.4c-0.1,0.1-0.2,0.2-0.3,0.2c0.1,0.5,0.9,1.9,0.9,1.9s12.1,0.5,69.9,0.1
				c0.5-1.9,0.3-4,1.1-9.5c0.1-0.8,2.3-0.5,2.4-1.3c1-6.8,0.8-17.4,0.8-17.4s1.4,0.1,8.4,3.7c6.2,3.3,7.2-1.4,7.2-1.4L122.7,189.4z
				 M43.7,207.2c1.2-2.6-16.8-39.8-16.8-39.8l14.4-16.2c0,0,0,0,7.2,62.1c-3.9-2.1-5.7-3.8-5.6-5C42.8,207.8,43.3,207.5,43.7,207.2z
				"/>
			<path style="fill:#FFFFFF;" d="M119.1,184.2c0,0-5.3,0.7-4.7,8.9c0.6,8.2,0.8,3,0.8,3l1.2,0.6c0,0,7.1,0.2,7.8,1.7
				c-0.8-7.8-1.2-15.3-1.2-15.3L119.1,184.2z"/>
		</g>
		<path style="fill:#010101;stroke:#010101;stroke-linecap:round;stroke-linejoin:round;stroke-miterlimit:10;" d="M177.8,195.4
			l-53.8,6.2c0.4,11,0.7,21.3,0.9,32.1h20.4l0.8-20.9c3.1-0.2,6.3-0.5,9.3-0.7l-0.4,21.6h21.6C177.3,220.8,177.6,208.4,177.8,195.4z
			"/>
		<path style="fill:#DBDBDB;" d="M143.2,70.5c0,0-13.5-3.6-21.9-1.8c-3.9,0.4-3-2.5-2.8-4c1.9-29.9,1.8-37.6,1.8-37.6
			s2.7-23.5,30.1-26.6c25.1-2.6,32.8,25.8,32.8,25.8s1.6,8,1.6,10.4c0,2.4-6.1,29.2-6.1,29.2s-20.1,2.4-21.7,4.2
			C148.6,71.4,143.2,70.5,143.2,70.5z"/>
		<path style="fill:#FFFFFF;" d="M127.9,34.6c0,0-2.1-3.1-3.9-0.9s-4.5,5.8-1.3,11.2c2.6,2.7,5.5,2.5,7.5,1.2
			c6.4,15.5,11,19,13.6,20.2c-0.2,13-0.5,15.9-1.1,16.1c-5.4,2.2-7.8,2.7-7.8,2.7s8,11.4,17.7,10.5c8-1.8,10.7-10.1,10.7-10.1
			s-6.5-2.4-6.2-4.2c-0.2-14.9-0.2-14.9-0.2-14.9s8.3-5.3,13.6-20.7c2.3,2.9,6.3,1.8,7.1-0.9c0.9-3,2.3-7.3,0-9.8
			c-2.3-2.5-4.5-0.8-4.5-0.8l0.3-4.8c0,0-11-6.4-15.1-19.7c-17.1,17.2-30.4,21.8-30.4,21.8L127.9,34.6z"/>
		<path style="fill:#DBDBDB;" d="M122.9,189.6l1.5,13.4c0,0,6.1,6.2,15.4,0.1c4.1-34.8,4.3-33.5,4.3-33.5s-13.7,5.5-22.1-0.4
			c-0.3,8.6,0.1,9.7,0.1,9.7L122.9,189.6z"/>
		<path style="fill:none;stroke:#010101;stroke-linecap:round;stroke-linejoin:round;" d="M95,102.6c0,0,9.4,9.2,11.5,14.9
			c1.5,4.1,2.6,9.2,2.9,16.9c3.3,33.1,1.8,35.6,1.8,35.6"/>
		<g>
			<g>
				<g>
					<g>
						<g>
							<path style="fill:#FFFFFF;stroke:#010101;stroke-linecap:round;stroke-miterlimit:10;" d="M173,29.8
								c0,17.1-10.8,38.6-22.6,38.6s-22.6-20-22.6-37.1"/>
							<path style="fill:none;stroke:#010101;stroke-linecap:round;stroke-miterlimit:10;" d="M152.2,34.9c-0.4,3,0.3,6.2,1.8,8.8
								c0.4,0.7,0.8,1.3,0.9,2.1c0.1,0.9-0.4,1.7-1.1,2.3c-0.7,0.6-1.5,0.9-2.3,1.3"/>
							<path style="fill:none;stroke:#010101;stroke-linecap:round;stroke-miterlimit:10;" d="M158.2,9.5
								c-2.9,4.1-7.1,7.2-11.2,10.1c-7.2,5-14.3,9-21.8,13.5"/>
							<path style="fill:none;stroke:#010101;stroke-linecap:round;stroke-miterlimit:10;" d="M157.7,8.4
								c3.1,9.2,8.7,18.5,17.9,21.9"/>
							<path style="fill:none;stroke:#010101;stroke-linecap:round;stroke-miterlimit:10;" d="M127.9,34.6c-0.6-1.4-2.6-1.7-3.9-0.9
								c-1.3,0.8-2,2.3-2.4,3.7c-0.5,1.8-0.5,3.7,0,5.5c0.6,1.8,1.9,3.3,3.6,4c1.7,0.7,3.9,0.3,5.1-1.1"/>
							<path style="fill:none;stroke:#010101;stroke-linecap:round;stroke-miterlimit:10;" d="M172.7,34.6c0.6-1.4,2.6-1.7,3.9-0.9
								c1.3,0.8,2,2.3,2.4,3.7c0.5,1.8,0.5,3.7,0,5.5c-0.6,1.8-1.9,3.3-3.6,4c-1.7,0.7-3.7,0.4-4.9-1"/>
							<path style="fill:none;stroke:#010101;stroke-linecap:round;stroke-miterlimit:10;" d="M143.3,66c0.4,5.9,0.9,9.5,0.1,15.4"
								/>
							<path style="fill:none;stroke:#010101;stroke-linecap:round;stroke-miterlimit:10;" d="M156.8,66.3c0.2,5.9,0,11.1,0.2,16.2"
								/>
							<path style="fill:none;stroke:#010101;stroke-linecap:round;stroke-miterlimit:10;" d="M133.9,83.7c2.4,4.1,4.2,5.7,8,8.6
								c1.8,1.4,5.8,3.3,7.8,3.4c3.5,0.2,7-0.9,9.3-3.6s3.5-4.7,5.5-8.1"/>
							<path style="fill:none;stroke:#010101;stroke-linecap:round;stroke-miterlimit:10;" d="M143.4,81.2c-0.9,1.3-2.2,2.2-3.8,2.8
								s-3.2,0.8-4.8,1.1"/>
							<path style="fill:none;stroke:#010101;stroke-linecap:round;stroke-miterlimit:10;" d="M157,82.4c1.2,1.1,2,1.3,3.5,1.9
								c1.5,0.6,1.7,0.5,3.4,0.8"/>
							<path style="fill:none;stroke:#010101;stroke-linecap:round;stroke-miterlimit:10;" d="M134,83.9c-3.6,0.9-8.4,2.3-11.7,4.1
								c-6.1,3.3-10.5,5.3-13.4,39.2"/>
							<path style="fill:none;stroke:#010101;stroke-linecap:round;stroke-miterlimit:10;" d="M164.5,83.9
								c5.2,1.1,14.2,5.1,17.6,8.1c9.3,8.4,5.7,59,5.7,76.1"/>
							<path style="fill:none;stroke:#010101;stroke-linecap:round;stroke-miterlimit:10;" d="M129.8,80.9"/>
							<path style="fill:none;stroke:#010101;stroke-linecap:round;stroke-miterlimit:10;" d="M109.3,70.2"/>
							<path style="fill:none;stroke:#010101;stroke-linecap:round;stroke-miterlimit:10;" d="M161.1,1.7c-9-2.3-18.4-1.1-25.5,3.1
								S123,16,120.7,23.9c-1.4,4.7-1,33.7-2.5,43c-0.2,1.1,0.8,2.1,1.9,1.9c7.9-1.2,15.3-0.6,23.1,1.6"/>
							<path style="fill:none;stroke:#010101;stroke-linecap:round;stroke-miterlimit:10;" d="M159.5,83.4"/>
							<path style="fill:none;stroke:#010101;stroke-linecap:round;stroke-miterlimit:10;" d="M175.1,80.8"/>
							<path style="fill:none;stroke:#010101;stroke-linecap:round;stroke-miterlimit:10;" d="M160.6,1.5c7.6,2.7,14,8.1,18.2,14.6
								s6.1,14.4,5.5,22.1c-0.3,3.8-1.7,26.7-3.3,30.1"/>
						</g>
						<path style="fill:none;stroke:#010101;stroke-linecap:round;stroke-miterlimit:10;" d="M158.9,25.4c0.3-1.3,2-1.8,3.2-1.3
							c1.2,0.4,2.1,1.5,2.9,2.5"/>
					</g>
					<path style="fill:none;stroke:#010101;stroke-linecap:round;stroke-miterlimit:10;" d="M176.3,114.7c-0.6,13.3-1,27.4-2.4,40.6
						"/>
				</g>
				<g>
					<path style="fill:none;stroke:#010101;stroke-linecap:round;stroke-miterlimit:10;" d="M142.6,33.1c0.1,1.6,0.1,2.8,0.2,4.4"/>
				</g>
				<path style="fill:none;stroke:#010101;stroke-linecap:round;stroke-miterlimit:10;" d="M126.6,109c0.1,3.7-1.2,53.1-1.1,56.8"/>
				<path style="fill:none;stroke:#010101;stroke-linecap:round;stroke-miterlimit:10;" d="M161.2,34c-0.1,1.9-0.3,2-0.4,3.8"/>
				<path style="fill:none;stroke:#010101;stroke-linecap:round;stroke-miterlimit:10;" d="M145.5,25.5c-0.3-1.1-1.5-1.9-2.7-1.9
					c-1.2,0-2.3,0.6-3.1,1.4c-0.8,0.8-1.5,1.8-2.1,2.8"/>
			</g>
			<path style="fill:none;stroke:#010101;stroke-linecap:round;stroke-miterlimit:10;" d="M157,69.7c7.7-2.4,16-2.3,24-1.4"/>
			<path style="fill:none;stroke:#010101;stroke-linecap:round;stroke-miterlimit:10;" d="M126.7,45.8c-1,1.4-0.9,3.4,0.1,4.8"/>
			<path style="fill:none;stroke:#010101;stroke-linecap:round;stroke-miterlimit:10;" d="M172.8,46.1c0.7,1.7,0.6,3.6-0.2,5.2"/>
			<path style="fill:none;stroke:#010101;stroke-linecap:round;stroke-miterlimit:10;" d="M144.5,51.3c0.2,2,1.7,3.8,3.6,4.3
				s4.1-0.3,5.3-1.9"/>
		</g>
		<g>
			<path style="fill:#FFFFFF;" d="M27.4,234.1l1-1.6L32,231l-2.6-2.5l3.6-2l0.4-1.9l2.1-1.4l3.4,0.6c0,0,1.4-4.3,1.2-4.5
				c-6.2-7.3-6.5-7.8-6.5-7.8l8.5-3.1l8,6.7l-2.7,18.7L27.4,234.1z"/>
			<path style="fill:none;stroke:#010101;stroke-linecap:round;stroke-linejoin:round;" d="M121.5,169.2c0.4,11.3,1.4,22.6,2.9,33.9
				"/>
			<path style="fill:none;stroke:#010101;stroke-linecap:round;stroke-linejoin:round;" d="M144.1,168.8c-1,11.5-2.4,23-4.3,34.3"/>
			<path style="fill:none;stroke:#010101;stroke-linecap:round;stroke-linejoin:round;" d="M124.4,203.3c1.9,1.3,4.3,2,6.6,2.2
				c1.7,0.2,3.3,0.1,5-0.3c1.5-0.4,2.9-1.1,4.1-2"/>
			
				<ellipse style="fill:none;stroke:#010101;stroke-linecap:round;stroke-linejoin:round;" cx="132.8" cy="168.6" rx="11.4" ry="3.4"/>
			<path style="fill:#FFFFFF;stroke:#010101;stroke-linecap:round;stroke-linejoin:round;" d="M135.1,194.6
				c-0.6,0.6-0.4,1.7,0.1,2.4s1.3,1.1,2.2,1.4c1.6,0.6,3.5,1,5.2,0.5c1.7-0.5,3.2-2,3.2-3.7"/>
			<path style="fill:none;stroke:#010101;stroke-linecap:round;stroke-linejoin:round;" d="M87.3,53.2c0,2.5,1.9,2.6,3.3,3.3
				s3.1,1.9,2.9,3.5c-0.1,0.9-0.7,1.6-1.4,2.2L88.6,66"/>
			<path style="fill:none;stroke:#010101;stroke-linecap:round;stroke-linejoin:round;" d="M86.3,22.5c4.8,3.7,8.5,6.5,10.5,11.5
				c1,2.5,1,5.3,0.9,8l-0.5,31.1c0,2.8-0.1,5.8-1.5,8.3c-1.6,2.8-4.7,4.5-7.8,5.2c-3.2,0.7-6.4,0.4-9.7,0.2
				c-1.9-0.2-3.9-0.3-5.5-1.2c-1.4-0.8-2.5-2-3.6-3.3L58.2,69.6"/>
			<path style="fill:none;stroke:#010101;stroke-linecap:round;stroke-linejoin:round;" d="M81.3,48.5c-0.5,1.7-0.4,3.5,0,5.3"/>
			<path style="fill:none;stroke:#010101;stroke-linecap:round;stroke-linejoin:round;" d="M92.3,48.8v4.9"/>
			<path style="fill:none;stroke:#010101;stroke-linecap:round;stroke-linejoin:round;" d="M55.4,52.3c-0.7-1-1.5-2.1-2.5-2.8
				c-1-0.7-2.4-1.1-3.5-0.6c-1.4,0.6-2.1,2.2-2.4,3.8c-0.5,3.2,0,6.4,1.6,9.2c0.9,1.6,2.4,3.1,4.2,3.5s4.1-0.9,4.1-2.8"/>
			<path style="fill:none;stroke:#010101;stroke-linecap:round;stroke-linejoin:round;" d="M85.6,20.7c0.5,5.2-1.6,10.4-5.6,13.8"/>
			<path style="fill:none;stroke:#010101;stroke-linecap:round;stroke-linejoin:round;" d="M81.5,25c-0.3,5.1-2.4,9.9-6,13.5"/>
			<path style="fill:none;stroke:#010101;stroke-linecap:round;stroke-linejoin:round;" d="M74.3,27.5c-0.4,4.9-2.7,9.5-6.5,12.7"/>
			<path style="fill:none;stroke:#010101;stroke-linecap:round;stroke-linejoin:round;" d="M68.7,31.5c-3.9,6.4-6.4,13.6-7.4,21"/>
			<path style="fill:none;stroke:#010101;stroke-linecap:round;stroke-linejoin:round;" d="M57.8,56.9c1-1.1,2.2-2,3.5-2.5"/>
			<path style="fill:none;stroke:#010101;stroke-linecap:round;stroke-linejoin:round;" d="M58.9,59.4c0.8-0.8,1.8-1.6,2.9-2.1"/>
			<path style="fill:none;stroke:#010101;stroke-linecap:round;stroke-linejoin:round;" d="M59.4,62.1l2.2-1.1"/>
			<path style="fill:none;stroke:#010101;stroke-linecap:round;stroke-linejoin:round;" d="M71.3,16.2c3.7-1.3,8.9-2.7,12.7-3.5
				c0.8-0.2,1.6-0.3,2.4-0.1c1,0.3,1.7,1.2,2.3,2.2c2.1,3.5,3.3,7.5,3.3,11.6"/>
			<path style="fill:none;stroke:#010101;stroke-linecap:round;stroke-linejoin:round;" d="M69.1,16.4c-6.6-0.9-14,1.4-19.2,3.7
				c-2,0.9-4.5,2.8-5.8,4.6c-1.1,1.6-1.4,3.6-1.7,5.5c-1,6.5-1.8,13-2.2,19.6c-0.2,3.1-0.4,6.2,0.6,9.1c1.4,4,4.7,6.9,8,9.4
				C52,70.8,59,76.4,61.1,80.1"/>
			<path style="fill:none;stroke:#010101;stroke-linecap:round;stroke-linejoin:round;" d="M63,75.1c0.7,8.2,0.9,15.8-1,23.8"/>
			<path style="fill:none;stroke:#010101;stroke-linecap:round;stroke-linejoin:round;" d="M85.1,87.6c-0.3,4.3-0.2,8.7,0.1,13"/>
			<path style="fill:none;stroke:#010101;stroke-linecap:round;stroke-linejoin:round;" d="M87.9,97.4c0.6,6.3,0.3,12.8-1.2,18.9
				c0.3-1.6,1.9-3,3.5-2.7c0.9,0.2,1.7,0.7,2.4,1.3c1.4,1.1,2.5,2.5,3.5,4c-0.1-6.8-0.7-13.7-1.9-20.4L87.9,97.4z"/>
			<path style="fill:none;stroke:#010101;stroke-linecap:round;stroke-linejoin:round;" d="M55.5,99.2l4.4-2.6l19.2,20.6
				c-2.2-1-4.3-1.8-6.6-2.4c-0.2-0.1-0.5-0.1-0.8,0c-0.3,0.1-0.4,0.4-0.6,0.7c-1.1,2.3-2.2,4.7-3.2,7.1L55.5,99.2z"/>
			<path style="fill:none;stroke:#010101;stroke-linecap:round;stroke-linejoin:round;" d="M78.7,116.9l6.4,3.1l7.1,36.7
				c0.4,1.9,0.7,3.9,0.9,5.8c0.1,2.1-0.1,4.2-0.3,6.3c-1.2,14.4-6,37.1-4.9,51.5c0,0-18.7,2.7-38-0.5"/>
			<path style="fill:none;stroke:#010101;stroke-linecap:round;stroke-linejoin:round;" d="M86.9,115.3c-0.5,1.9-0.9,3.9-1.2,5.9"/>
			<path style="fill:none;stroke:#010101;stroke-linecap:round;stroke-linejoin:round;" d="M56.1,101.2c-4.1,2.1-6.7,3.4-10.8,5.5
				c-2.2,1.1-4.4,2.3-6.4,3.8c-2.3,1.7-4.3,3.9-6.1,6c-13,15-23.6,31.9-31.4,50.1c-0.5,1.1-1,2.3-0.8,3.6c0.2,1.4,1.1,2.5,2,3.5
				c10.5,12.3,19.3,26,28.1,39.6l13.1-5.9c-5.2-16.1-12.1-31.7-20.5-46.4"/>
			<path style="fill:none;stroke:#010101;stroke-linecap:round;stroke-linejoin:round;" d="M27,167.2c9.8-11,19.9-21.9,30.1-32.5"/>
			<path style="fill:none;stroke:#010101;stroke-linecap:round;stroke-linejoin:round;" d="M87.8,218.6c13.1,1.6,19.7-3.3,19.7-3.3
				c2.8-30.8-2.1-35.9-0.2-66.8c0-0.6,0.1-17.1-4.1-29.1"/>
			<path style="fill:none;stroke:#010101;stroke-linecap:round;stroke-linejoin:round;" d="M41.3,151.5l7.4,62.1"/>
			<path style="fill:#FFFFFF;stroke:#010101;stroke-linecap:round;stroke-linejoin:round;" d="M116.3,189.3l0.2-4.7
				c0-0.4,0.1-0.8,0.2-1.2c0.2-0.3,0.4-0.6,0.7-0.8c3-2.4,6.1-4.6,9.4-6.6c0.7-0.5,1.7-0.9,2.4-0.5c0.4,0.3,0.7,0.7,0.8,1.2
				c0.4,2.1-1.2,4.2-3,5.4c-1,0.7-2.2,1.4-2.6,2.5c-0.2,0.7-0.1,1.4-0.3,2.1c-0.2,1-0.8,1.9-1.6,2.5"/>
			<path style="fill:#FFFFFF;stroke:#010101;stroke-linecap:round;stroke-linejoin:round;" d="M146.5,184.2c-2.6-1-4.6-1.2-7.4-1.3
				c-1,0-2.1,0-3,0.4c-1,0.4-1.8,1.1-2.1,2.1c-0.2,0.5-0.1,1.1,0.2,1.5c0.2,0.2,0.5,0.4,0.8,0.5c2.6,1.1,5.3,1.8,8.1,2.1
				c1.4,0.1,3,0.1,4.1-0.8c0.8-0.6,1.2-1.6,1.1-2.5C148.2,185.2,147.5,184.4,146.5,184.2"/>
			<path style="fill:#FFFFFF;stroke:#010101;stroke-linecap:round;stroke-linejoin:round;" d="M141.3,189.5
				c-1.9-0.2-5.5-0.3-6.3-0.2c-0.9,0.2-2.1,0.8-2.3,1.6c-0.4,1.6,1.2,2.6,1.6,2.8c2.7,1.4,5.6,1.7,8.5,1.5c1.2-0.1,2.4-0.3,3.3-1
				c1-0.7,1.7-2,1.4-3C147.3,190.4,144.2,189.8,141.3,189.5"/>
			<path style="fill:#FFFFFF;stroke:#010101;stroke-linecap:round;stroke-linejoin:round;" d="M137.5,175.3c2.3-0.6,4.4-0.3,6.7,0
				c0.8,0.1,1.6,0.3,2.2,0.8c0.7,0.8,0.7,2,0.4,3c-0.1,0.5-0.4,1.1-0.9,1.3c-0.3,0.1-0.6,0.1-0.9,0.1c-2.6-0.2-5.3-0.5-7.9-0.8
				c-0.4,0-1.9-0.3-2-1.5c-0.1-0.7,0.1-1.4,0.5-2C135.8,175.8,136.6,175.5,137.5,175.3"/>
			<path style="fill:none;stroke:#010101;stroke-linecap:round;stroke-linejoin:round;" d="M130.5,135.8c1.6,0.9,3.1,2,4.4,3.3
				c0.5,0.5,1.1,1.1,1.3,1.9c0.6,1.6-0.4,3.4-1.6,4.7c-1.2,1.2-2.7,2.2-3.7,3.6c-0.5,0.7-0.9,1.5-0.8,2.3c0,1.1,0.7,2,1.3,2.9
				c0.8,1.2,1.4,2.4,1.8,3.7c0.5,1.4,0.7,3.1-0.2,4.3"/>
			<path style="fill:none;stroke:#010101;stroke-linecap:round;stroke-linejoin:round;" d="M116.3,185.3c-1.4,2.3-2,5.1-1.8,7.8
				c0.2,2.7,1.2,5.3,2.7,7.6c0.7,1,1.6,2.1,2.8,2.3c1.7,0.3,3.2-1.3,4-2.9"/>
			<path style="fill:none;stroke:#010101;stroke-linecap:round;stroke-linejoin:round;" d="M111.2,170c3.4,3.3,7,6.4,10.6,9.5"/>
			<path style="fill:none;stroke:#010101;stroke-linecap:round;stroke-linejoin:round;" d="M108.9,197.7c0.1-0.1,0.3-0.1,0.4,0
				c3.1,1,6,2.7,8.8,4.4"/>
			<path style="fill:none;stroke:#010101;stroke-linecap:round;stroke-linejoin:round;" d="M115.4,197c2.7-0.6,5.5-0.3,8,0.7"/>
			<path style="fill:none;stroke:#010101;stroke-linecap:round;stroke-linejoin:round;" d="M87.9,99.9l-2.7-1.4"/>
			<path style="fill:none;stroke:#010101;stroke-linecap:round;stroke-linejoin:round;" d="M34,226.2c-0.6-0.2-0.8-1-0.6-1.6
				s0.8-1,1.4-1.2c0.6-0.1,1.2-0.1,1.9,0c0.9,0.1,1.8,0.3,2.7,0.6"/>
			<path style="fill:#FFFFFF;stroke:#010101;stroke-linecap:round;stroke-linejoin:round;" d="M32,231c-0.9-0.3-1.6-0.9-2.3-1.6
				c-0.2-0.2-0.4-0.5-0.4-0.9c0.1-0.3,0.2-0.5,0.5-0.7c1.2-1,2.7-1.4,4.3-1.4s3,0.3,4.5,0.5"/>
			<path style="fill:#FFFFFF;stroke:#010101;stroke-linecap:round;stroke-linejoin:round;" d="M34.2,211.6c2.4,3.5,3.1,4.4,6,7.5"/>
			<path style="fill:#FFFFFF;stroke:#010101;stroke-linecap:round;stroke-linejoin:round;" d="M40.2,230.2l-2.1,0.2
				c-2.8,0.2-5.7,0.5-8.4,1.4c-0.7,0.2-1.4,0.6-1.8,1.2s-0.4,1.6,0.2,1.9l0.5,0.4c1.7,0.9,4,0.8,5.9,0.8c4,0,8-0.6,11.8-1.7
				c0.4-0.1,0.8-0.3,1.1-0.6c0.3-0.3,0.4-0.7,0.4-1.2c0.6-3.6,1.2-7.1,1.8-10.7c0.3-1.9,0.7-3.8,0.6-5.7c0-0.5-0.1-1-0.3-1.5
				c-0.3-0.5-0.8-0.9-1.2-1.2c-3.1-2.3-3.8-2.5-6.4-5.3"/>
			<path style="fill:#FFFFFF;stroke:#010101;stroke-linecap:round;stroke-linejoin:round;" d="M41.3,218.3c-0.4,0.2-0.6,0.6-0.7,1
				c-1.2,3.3-1.7,6.7-1.5,10.2"/>
			<path style="fill:none;stroke:#010101;stroke-linecap:round;stroke-linejoin:round;" d="M88,71.3c-3.7-1.1-7.6-1.8-11.4-2.2
				c-0.1,1.6,0.6,3.1,1.8,4.3c1.2,1.2,3,2,4.9,2.2c0.9,0.1,1.9,0.1,2.8,0.3L88,71.3z"/>
			<path style="fill:none;stroke:#010101;stroke-linecap:round;stroke-linejoin:round;" d="M91.7,40.1c0.4-0.5,1.2-0.6,1.9-0.3
				s1.1,0.8,1.6,1.2"/>
			<path style="fill:none;stroke:#010101;stroke-linecap:round;stroke-linejoin:round;" d="M79.3,41.9c1.3-0.1,2.5-0.4,3.7-1.1"/>
		</g>
		<path style="fill:#010101;" d="M47.4,233.8l1.1-4.9l0.8-2.7l1.2-5.9l26.4,1l11-0.5l0.5-1.9c0,0,13.4,0.3,17.3-2.6
			c-1.5,17.5-1.5,17.5-1.5,17.5L47.4,233.8z"/>
		<line style="fill:none;stroke:#010101;stroke-linecap:round;stroke-miterlimit:10;" x1="196.8" y1="167.8" x2="188.9" y2="184"/>
	</g>
	<line style="fill:none;stroke:#010101;stroke-linecap:round;stroke-linejoin:round;" x1="47.4" y1="234.1" x2="310.8" y2="234.1"/>
	<path style="fill:none;stroke:#010101;stroke-linecap:round;stroke-linejoin:round;" d="M279.3,192.5c4.7,13.2,7.1,27.1,7.1,41.1"
		/>
	<path style="fill:none;stroke:#010101;stroke-linecap:round;stroke-linejoin:round;" d="M210.1,266.7"/>
	<path style="fill:none;stroke:#010101;stroke-linecap:round;stroke-linejoin:round;" d="M212.9,282"/>
	<path style="fill:none;stroke:#010101;stroke-linecap:round;stroke-linejoin:round;" d="M201.7,189.1c1.2,15,2.5,30,4.2,44.9"/>
	<path style="fill:none;stroke:#010101;stroke-linecap:round;stroke-linejoin:round;" d="M234.8,216.1c2,0.3,4.1-0.4,6.1-0.8
		c0.2,0,0.3-0.1,0.5,0c0.2,0.1,0.3,0.4,0.3,0.6c0.7,4.9,1.2,9.8,1.6,14.7"/>
	<path style="fill:#B6B8BA;" d="M112.1,265.6c-3.5-2-6-2.8-6.3-1.8c-0.1,1,1.8,2.7,4.5,4.9C110.5,267.4,111.1,266.3,112.1,265.6z"/>
	<path style="fill:#B6B8BA;" d="M134.4,279.8c-1,0.7-1.3,1.8-1.7,2.9c0.1,0.1,0.2,0.1,0.2,0.1s1.4,1.3,2.5-0.9
		C135.7,281.3,135.3,280.6,134.4,279.8z"/>
	<path style="fill:#CB2026;" d="M134.4,279.8c-2.4-2.1-8.3-4.9-15.1-9.2c-2.7-2.1-5.1-3.8-7.3-5c-1,0.8-1.6,1.9-1.8,3.1
		c7.2,5.5,20.7,13.1,22.4,14.1C133.1,281.5,133.4,280.5,134.4,279.8z"/>
	<path style="fill:#FFFFFF;stroke:#010101;stroke-linecap:round;stroke-linejoin:round;" d="M106.7,292.4
		c-8.4-12-20.5-28.9-30.6-39.5l-49.4,0.2c8.6,12.9,20.9,28.6,29.4,41.4L106.7,292.4z"/>
	<path style="fill:#EDECEC;stroke:#010101;stroke-linecap:round;stroke-linejoin:round;" d="M113.2,294.5
		c-8.4-12-20.5-28.9-30.6-39.5l-49.4,0.2c8.6,12.9,20.8,28.6,29.4,41.4L113.2,294.5z"/>
	<path style="fill:#FFFFFF;stroke:#010101;stroke-linecap:round;stroke-linejoin:round;" d="M284.4,282.2
		c-8.4-12-20.5-28.9-30.6-39.5l-49.4,0.2c8.6,12.9,20.9,28.6,29.4,41.4L284.4,282.2z"/>
	<path style="fill:#FFFFFF;stroke:#010101;stroke-linecap:round;stroke-linejoin:round;" d="M117.1,290.2
		c-8.4-12-20.5-28.9-30.6-39.5l-49.4,0.2c8.6,12.9,20.9,28.6,29.4,41.5L117.1,290.2z"/>
	<path style="fill:none;stroke:#010101;stroke-linecap:round;stroke-linejoin:round;" d="M100,281.1c0,0.4-0.2,0.9-0.6,1.1"/>
	<path style="fill:none;stroke:#010101;stroke-linecap:round;stroke-linejoin:round;" d="M97.2,282.4c-0.1-0.1-0.2-0.1-0.2,0
		c0,0,0,0,0,0"/>
	<path style="fill:none;stroke:#010101;stroke-linecap:round;stroke-linejoin:round;" d="M94.8,281.9c-0.7,0.2-1.2,0.6-1.6,1.2"/>
	<path style="fill:none;stroke:#010101;stroke-linecap:round;stroke-linejoin:round;" d="M91.5,282.3c-0.4,0.4-1,0.7-1.6,0.9
		c-0.8,0.2-1.7,0.3-2.6,0.2"/>
	<path style="fill:none;stroke:#010101;stroke-linecap:round;stroke-linejoin:round;" d="M86.1,283.3c-0.5-0.2-1.1-0.2-1.6-0.2
		c-2,0.1-4,0.2-5.8,0.9c-0.9,0.3-1.8,0.8-2.7,0.6c-0.4-0.1-0.8-0.3-1.2-0.5c-0.4-0.2-0.8-0.1-1.2,0.2c-0.1,0.2-0.2,0.4-0.4,0.5
		c-0.2,0.1-0.5,0.2-0.5,0"/>
	<path style="fill:none;stroke:#010101;stroke-linecap:round;stroke-linejoin:round;" d="M67.9,277c0.9-1.4,2.9-1.4,4.5-1.3
		c2.7,0,5.5-0.5,7.7-2.1c0.1-0.1,0.3-0.2,0.5-0.2c0.4-0.1,0.7,0.4,1.1,0.7c0.5,0.4,1.2,0.3,1.8,0.2c2.2-0.4,4.5-1.2,6.6-0.6
		c1.2,0.3,2.7,1,3.5,0l1.3,1.5c0.6-0.4,1-0.9,1.2-1.5l0.9,0.5"/>
	<path style="fill:none;stroke:#010101;stroke-linecap:round;stroke-linejoin:round;" d="M62.8,265.9c-0.2,0.8,0.3,1.6,1.1,1.9"/>
	<path style="fill:none;stroke:#010101;stroke-linecap:round;stroke-linejoin:round;" d="M65.7,266.1c0.2,0.7,1,0.9,1.7,0.8
		s1.3-0.4,2-0.5c0.4,0,0.8,0,1.3,0c0.8-0.1,1.6-0.2,2.3-0.5c1.7-0.4,3.5-0.5,5.3-0.4l12.5,0.2"/>
	<path style="fill:none;stroke:#010101;stroke-linecap:round;stroke-linejoin:round;" d="M86,259.6c-5.8,1.7-12.1,0.3-17.9,2
		c-0.6,0.2-1.3,0.4-2,0.5c-0.7,0-1.4-0.1-2.1-0.2c-2.5-0.2-5.3,1.1-7.5-0.2"/>
	<path style="fill:none;stroke:#010101;stroke-linecap:round;stroke-linejoin:round;" d="M49.7,257.2c7.8,0.4,15.7-2.3,23.5-1.5
		c2.7,0.3,5.4,1,8,0.3c1-0.2,2.1-0.6,2.8,0c0.3-0.3,0.7-0.5,1.1-0.6"/>
	<path style="fill:none;stroke:#010101;stroke-linecap:round;stroke-linejoin:round;" d="M110.5,268.8c7.1,4.9,14.4,9.5,21.9,13.7"
		/>
	<path style="fill:none;stroke:#010101;stroke-linecap:round;stroke-linejoin:round;" d="M110.3,268.4c-0.1-1.3,0.8-2.6,2.1-3
		c6.6,5.2,13.7,9.8,21.1,13.7c0.6,0.3,1.1,0.6,1.6,1.1c0.4,0.5,0.5,1.2,0.2,1.8c-0.5,0.8-1.8,0.7-2.7,0.5"/>
	<path style="fill:none;stroke:#010101;stroke-linecap:round;stroke-linejoin:round;" d="M110.5,268.8c-1.9-1.6-3.7-3.3-5.3-5.1
		c0,0-0.1-0.1-0.1-0.2c0-0.1,0.1-0.1,0.2-0.2c0.9-0.4,5.8,1,7.4,2.3"/>
	<path style="fill:none;stroke:#010101;stroke-linecap:round;stroke-linejoin:round;" d="M107.2,265.1c0-0.3,0.1-0.5,0.4-0.7
		c-0.3,0.2-0.8,0.1-1-0.2"/>
	<path style="fill:none;stroke:#010101;stroke-linecap:round;stroke-linejoin:round;" d="M132.5,282.5c0.7-0.8,1.2-1.8,1.5-2.8
		c0.1-0.3,0.2-0.6,0.2-0.9c-0.1-0.2-0.1-0.4-0.3-0.5c-1.9-2.7-5-4.3-8-5.8"/>
	<g>
		<path style="fill:#FFFFFF;stroke:#010101;stroke-linecap:round;stroke-linejoin:round;" d="M189.7,297.8c3.4,0.7,6.7-1.6,7.3-4.9
			c0.7-3.4-1.6-6.7-4.9-7.3c-0.5-0.1-1.1-0.1-1.6-0.1l-0.7-3.5c3.8-0.8,8,1.2,10,4.6c1.9,3.4,1.6,7.9-0.7,11
			c-2.3,3.2-6.3,4.9-10.2,4.5"/>
		<path style="fill:#FFFFFF;stroke:#010101;stroke-linecap:round;stroke-linejoin:round;" d="M162.9,278.3c0.2-3.8,8.2-4.9,13.9-4.9
			c9.6,0,13.8,3.1,13.8,5.1"/>
		<path style="fill:#FFFFFF;stroke:#010101;stroke-linecap:round;stroke-linejoin:round;" d="M162.9,278.2l-0.1,27.8
			c0,1.2,0.7,2.3,1.7,2.9c7.2,3.6,17.4,3.4,24.3-0.7c1-0.6,1.6-1.6,1.6-2.7l0.2-27.2"/>
		
			<ellipse style="fill:#FFFFFF;stroke:#010101;stroke-linecap:round;stroke-linejoin:round;" cx="176.8" cy="278.2" rx="11" ry="2.5"/>
		<path style="fill:#010101;" d="M166,278.8c0,0,5.8-1.3,10.8-1.1c3.7,0.2,7.4,0.6,11,1.2c0,0-3.8,1.8-10.6,1.7
			C170.3,280.5,165.9,280.4,166,278.8z"/>
	</g>
	<path style="fill:#B6B8BA;stroke:#010101;stroke-linecap:round;stroke-linejoin:round;" d="M179.2,267.4c-1.5-1.3-2.9-2.8-4.1-4.5
		c-0.5-0.7-1-1.4-1-2.3c0-1,0.8-2,1.9-2.2"/>
	<g>
		<path style="fill:#B6B8BA;stroke:#010101;stroke-linecap:round;stroke-linejoin:round;" d="M252.1,231.7c-2.2-0.8-4.6-1.1-7-0.8
			c-0.8,0.1-1.7,0.3-2.4,0.7c-0.8,0.5-1.5,1.2-2.1,1.9c-1,1.2-2.1,2.4-2.5,3.9"/>
		<path style="fill:#B6B8BA;" d="M242.6,237.8c1.4-0.8,9.4-5,11.8-6.7c2.4-1.7,9.8-10.3,9.8-10.3l10.6,4.5L264.3,244l-20.9,6.3
			l-6.8-9.8L242.6,237.8L242.6,237.8z"/>
		<path style="fill:#B6B8BA;stroke:#010101;stroke-linecap:round;stroke-linejoin:round;" d="M262.2,223.1c-2.3,2.9-5.7,6.2-6.5,6.8
			c-0.6,0.5-1.4,0.8-2.1,1.2c-5,2.4-10.1,4.7-15.3,6.7c-1.7,0.7-3.5,1.3-5,2.5c-2.6,2-3.8,5.2-4.9,8.3c-0.6,1.8-1.2,3.6-1.5,5.5
			c-0.1,0.8,0,1.9,0.7,2.2c0.8,0.4,1.8-0.4,2.4-1.2c1.8-2.3,3.1-5,3.8-7.8c1.1-0.1,2.1-0.2,3.2-0.4"/>
		<path style="fill:#B6B8BA;stroke:#010101;stroke-linecap:round;stroke-linejoin:round;" d="M241.1,241.7c-1.8,1.1-3.7,2.2-5.5,3.3
			c-0.4,0.2-0.8,0.5-1,0.8c-0.2,0.3-0.4,0.8-0.5,1.2c-0.7,3.1-1.1,6.4-1.1,9.6c0,0.6,0,1.2,0.4,1.7c0.4,0.6,1.2,0.8,1.9,0.6
			c0.7-0.2,1.3-0.6,1.8-1.1"/>
		<path style="fill:#B6B8BA;stroke:#010101;stroke-linecap:round;stroke-linejoin:round;" d="M244.8,243.8c-2.8,0.8-5.5,2.2-7.8,4.1
			c-0.2,0.2-0.3,0.3-0.4,0.5c-0.1,0.2-0.1,0.4-0.1,0.6c-0.1,1.4-0.2,2.8-0.2,4.1c-0.1,1-0.1,2.1,0.2,3.1c0.3,1,1,2.4,3,2.7"/>
		<path style="fill:#B6B8BA;stroke:#010101;stroke-linecap:round;stroke-linejoin:round;" d="M248.8,247.7c-1.6-0.1-3.2,0.1-4.8,0.5
			c-0.5,0.1-0.9,0.3-1.3,0.6c-0.3,0.3-0.5,0.7-0.6,1.1c-0.9,2.6-1.5,5.2-1.9,7.9c-0.1,0.6-0.2,1.2,0,1.7c0.2,0.5,0.5,1.1,1.1,1.2
			c0.6,0.1,1.2-0.2,1.6-0.7s0.6-1.1,0.8-1.6c0.8-2.1,2-3.3,3.3-5.1c3.2,0.9,6.7,1.8,9.8,0.5c1.4-0.6,2.6-1.6,3.7-2.8
			c2.5-2.5,4.5-5.5,5.9-8.8c0.8-1.8,1.4-3.7,2.3-5.4c1.2-2.6,3.9-7.4,5.6-9.7"/>
	</g>
	<path style="fill:#CB2026;" d="M182.3,83.4c0,0-9.2,13.6-11.8,32.4c-3.2,23.3-3.2,23.3-3.2,23.3s-4.4,34-0.7,58.2
		c9.5,50.6,9.5,50.6,9.5,50.6l21.7-2.1c0,0-9.6-67.3-6.9-86.8c1.6-26.7,1.6-26.8,1.6-26.8l1,6l3.1,44.9c0,0,11.3,19.7,43.5,20.6
		c16.3-2,24.9-7.9,24.9-7.9l-6.4,24.6c0,0,14.4,9.3,23,7.3c4.6-2.5,6.8-14.7,6.8-14.7s11.2-33.9,9.6-72.5s-4.6-45.5-11.5-50.4
		c-12.4-8.4-27.1-18.3-42-20.5c-1.4,9.7-1.1,17.6-1.1,17.6s0.7,14-13,20c-4.1,6.2-11.1,8.8-18.4,5.6c-17.8-12-21.2-14.6-22.4-23
		C188,82.6,184.3,81.8,182.3,83.4z"/>
	<path style="fill:none;stroke:#010101;stroke-linecap:round;stroke-linejoin:round;" d="M183.6,81c-4.3,7.9-8.5,16-11,24.6
		c-3.1,10.8-6.5,41.8-6.9,53c-1.3,36.6,2.3,53.4,10.4,89.3l21.7-2.1c-5.8-37.9-9.6-79.4-5-117.5l3.8,54.7
		c7.3,10.6,19.2,16.7,31.6,19.7c12.4,3,25.4-0.9,36.7-6.9"/>
	<path style="fill:none;stroke:#010101;stroke-linecap:round;stroke-linejoin:round;" d="M181.5,67.2c0.4,3.5,0,4.3,0.7,7.8
		c0.6,2.9,1,5.9,3.2,8.1c1.1,1.1,2.5,1.9,3,3.3c0.7,1.8,1.5,5.2,1.7,7.1c0.2,1.5,1.2,2.8,2.1,3.9c5.2,6.2,11,10.8,18.9,15.1
		c2.6,1.4,5.7,1.7,8.7,1.3c4.5-0.5,7.8-2.5,10.3-6.2c3.2-4.7,8.6-12.6,5.5-24.3c-1.2-4.4,0.5-1.8,1.9-6.2"/>
	<path style="fill:none;stroke:#010101;stroke-linecap:round;stroke-linejoin:round;" d="M200.6,80.5c3,3.7,3.8,8.8,3.5,13.6
		c-0.1,1-0.2,2.1,0,3.1c0.2,1,0.8,2,1.8,2.3c1.5,0.5,2.9-0.6,3.9-1.7c0.9-1.1,1.7-2.3,2.3-3.7"/>
	<path style="fill:none;stroke:#010101;stroke-linecap:round;stroke-linejoin:round;" d="M195.8,85.6c0.2,0.5,0.3,1.1,0.5,1.6"/>
	<path style="fill:none;stroke:#010101;stroke-linecap:round;stroke-linejoin:round;" d="M211.9,80.9c0.2,0.5,0.3,1.1,0.5,1.6"/>
	<path style="fill:none;stroke:#010101;stroke-linecap:round;stroke-linejoin:round;" d="M216.3,105c1.6-1.2,2.9-2.6,4.1-4.2"/>
	<path style="fill:none;stroke:#010101;stroke-linecap:round;stroke-linejoin:round;" d="M241.1,77.8c2.7,5.4,3,12,0.8,17.7
		c-2.2,5.7-6,10-11.6,12.3"/>
	<path style="fill:none;stroke:#010101;stroke-linecap:round;stroke-linejoin:round;" d="M244.4,69.6c14.3,2.4,26.6,9.7,38.5,17.9
		c2.8,1.9,5.6,3.8,7.6,6.5c2.8,3.7,3.8,8.5,4.6,13.1c1.7,10.4,2.5,20.9,2.7,31.4c0.4,21.9-1.8,43.8-6.5,65.2
		c-1.5,6.6-3.1,13.1-5.8,19.3c-0.8,1.9-1.9,4-3.9,4.7c-1.1,0.4-2.2,0.3-3.4,0.2c-7.1-0.8-13.9-3.4-19.6-7.5
		c7.5-24.7,12.4-50.3,14.6-76c0.8-9.3-2.5-19.9-5.1-28.8"/>
	<path style="fill:#010101;" d="M177.7,53.9c1,0,1.6-1.1,1.2-2c-0.9-1.9-2.2-5.1-2-7.7c0.2-4.3,1.4-5.8,3.6-7.4s6.9-2.6,7.8-2.8
		c0.6-0.1,2.4,0.5,3.7,0.9c0.7,0.3,1.5-0.1,1.8-0.8l1.8-4.5c0.1-0.3,0.3-0.5,0.5-0.6l3.6-2.4c0.2-0.2,0.5-0.2,0.8-0.2
		c1,0,3.6,0.1,4.9,1.2c0.9,0.7,2.2,2.3,3.2,3.6c0.6,0.7,1.6,0.7,2.2,0c0.6-0.9,1.6-1.9,3.2-2.6c3.2-1.6,7.7-2.1,10.2,0
		c2.5,2.1,5.2,4.9,5.2,7.7c0,1.1-0.2,2.1-0.3,2.9c-0.2,0.9,0.6,1.7,1.5,1.6c0.9-0.1,2-0.1,3.1,0.1c2.5,0.4,6.9,1.8,8.2,4.1
		c1.4,2.2,1.8,5,1.9,7.5c0.1,1.8-0.5,4.5-0.8,5.8c-0.1,0.5,0,1,0.4,1.3c1,0.9,3,3,3.5,4.5c0.6,2.1,0.9,5.2,0.3,7.1
		c-0.4,1.3-1.1,2.9-1.4,3.8c-0.2,0.4-0.1,0.8,0.1,1.2c0.7,1.2,2,4,0.9,7.1c-1.2,3.5-4.1,5.4-4.9,5.8c-0.1,0.1-0.2,0.1-0.4,0.2
		l-2.9,0.7c-0.8,0.2-1.5-0.3-1.7-1.1l-3.2-11.8c-0.1-0.4,0-0.9,0.3-1.2c1-1.1,4.1,1.5,5.4-4.2c0.6-2.4-0.7-6-3.1-7.5
		c-2.4-1.5-7.9-2.8-10.1,0.3c-1.3,1.9-1.1,4-0.5,4.5c0.5,0.3,1.2,1.8,1,2.4l-0.5,1.3c-0.1,0.4-1.2,1.1-1.6,1.2
		c-1.1,0.4-3.5,0.8-6.8-1.7c-2-1.5-3.2-3-3.9-4.2c-0.5-0.9-1.9-0.9-2.4,0.1c-0.8,1.5-1.8,2.9-3,3c-1.9,0.2-5.7-1.4-7.8-2.8
		c-0.6-0.4-1.4-0.3-1.8,0.3c-1.6,2.1-3.7,4.5-6.5,5.3c-2.1,0.6-5.7-1.2-8.2-2.6c-1-0.6-2.2,0.2-2.1,1.4c0.3,1.7,0.6,3.9,1,5.4
		c0.3,1.5,1.9,3.5,3.3,5.1c0.8,0.9,0.1,2.4-1.1,2.3c-4-0.3-10.2-0.8-11.7-2c-2.3-1.7-4-4.7-3.6-6.1c0.3-1.1,1.4-3.1,2.8-4.5
		c0.6-0.6,0.5-1.6-0.2-2.1c-2.6-1.7-5.7-4.6-5.1-8c0.7-4.2,1.8-6.9,4.1-7.9C172.7,54.2,175.6,54,177.7,53.9z"/>
	<path style="fill:none;stroke:#010101;stroke-linecap:round;stroke-linejoin:round;" d="M231.1,67c0,0,4.1,0,3.6,3.9"/>
	<line style="fill:none;stroke:#010101;stroke-linecap:round;stroke-linejoin:round;" x1="105.1" y1="216.6" x2="104" y2="233.8"/>
	<path style="fill:#B6B8BA;stroke:#010101;stroke-linecap:round;stroke-linejoin:round;" d="M195.3,246.6c0.3,1.5,1.6,2.7,2.8,3.7
		c1.2,1,2.4,2,3.5,3.1c0.6,0.5,1.2,1.1,1.6,1.8c0.3,0.6,0.3,1.2,0.4,1.9c0.3,3.5,1.1,10.8,1.4,14.3c0.1,0.8,0.1,1.7-0.1,2.4
		c-0.2,0.8-0.9,1.5-1.7,1.6c-1.6,0.2-2.4-1.7-2.7-3.3c-0.6-3.3-1.6-10.5-1.8-13.9c-0.5,0-0.9,0-1.3,0c0.1,2.1,0.3,4.1,0.4,6.2
		c0.1,0.8,0.1,1.7-0.3,2.5c-0.8,1.5-2.9,1.7-4.6,1.6c-0.3-2.8-0.6-5.6-0.9-8.4c0.1,2.8,0.4,5.7,0.9,8.4c-0.7,1.1-2.5,0.9-3.4-0.1
		c-0.9-1-1.1-2.4-1.2-3.7c-0.1-1.3-0.2-2.7-0.9-3.8c-0.4,1.6,0.2,3.2,0.3,4.8c0.1,1.6-0.7,3.6-2.3,3.8c-1.5,0-2.7-5.7-2.2-8.8
		c-0.2,1.5-0.5,3-0.7,4.5c-0.2,1.1-0.5,2.5-1.6,2.7c-1.3,0.3-2.3-1.2-2.4-2.5c-0.1-1.3,0.2-2.8-0.5-3.9c-0.3-0.5-0.7-0.8-0.9-1.3
		c-0.3-0.6-0.4-1.3-0.4-2c0-2.1,0.4-4.1,1.2-6c1.4-0.8,2.1-2.6,2.1-4.2"/>
</g>
<g>
	<g>
		<path style="fill:none;stroke:#FFFFFF;stroke-miterlimit:10;" d="M261.5,61.4c15.6-1.4,31.8,3.8,43.6,14.1"/>
		<polyline style="fill:none;stroke:#FFFFFF;stroke-miterlimit:10;" points="297.3,76.6 305.1,75.4 303.4,68.6 		"/>
	</g>
	<path style="fill:none;stroke:#B7B9BA;stroke-width:1.5;stroke-miterlimit:10;" d="M265.6,54.8c11.6-2.6,24.3,0.6,33.2,8.5"/>
</g>
</svg>
