<?xml version="1.0" encoding="utf-8"?>
<!-- Generator: Adobe Illustrator 29.0.1, SVG Export Plug-In . SVG Version: 9.03 Build 54978)  -->
<svg version="1.1" id="Layer_1" xmlns="http://www.w3.org/2000/svg" xmlns:xlink="http://www.w3.org/1999/xlink" x="0px" y="0px"
	 viewBox="0 0 151.7 146.3" style="enable-background:new 0 0 151.7 146.3;" xml:space="preserve">
<g>
	<g>
		<path style="fill:#FFFFFF;" d="M88.3,85.3l-42.6-7.8c0,0-31,42.3-10.3,57.6c21.2,15.6,35.4,0.4,40.8-11
			C80.1,115.8,88.3,85.3,88.3,85.3"/>
		<path style="fill:none;stroke:#010101;stroke-width:0.9896;stroke-miterlimit:10;" d="M88.3,85.3l-42.6-7.8c0,0-31,42.3-10.3,57.6
			c21.2,15.6,35.4,0.4,40.8-11C80.1,115.8,88.3,85.3,88.3,85.3z"/>
	</g>
	<polygon style="fill:#010101;" points="104.3,72.3 95.4,72.3 93.2,146.3 106.2,146.3 	"/>
	<polygon style="fill:#B7B9BA;" points="107.2,72.3 100.7,72.3 98.9,145.8 106.2,145.8 	"/>
	<g>
		<polygon style="fill:none;stroke:#010101;stroke-width:0.9896;stroke-miterlimit:10;" points="107.2,72.3 100.7,72.3 98.9,145.8 
			106.2,145.8 		"/>
		<path style="fill:#D4D4D6;" d="M82.1,14.5l4.1,70.8l58.7,5.5l6-29.3c2.1-10.2-3.5-20.5-13.3-24.2L82.1,14.5z"/>
		<path style="fill:#010101;" d="M86.2,85.2l-42.2-8.6c0,0-3.6-56.7,22.4-62.6c26-5.8,31,17.2,29.6,30.2
			C95,53.8,86.2,85.2,86.2,85.2"/>
		<path style="fill:#F1F1F1;" d="M86.6,84.4l-42.6-7.8c0,0-29.8,41.6-9.1,56.9c21.2,15.6,34.2,1.1,39.5-10.3
			C78.3,114.9,86.6,84.4,86.6,84.4"/>
		<path style="fill:none;stroke:#010101;stroke-width:0.9896;stroke-miterlimit:10;" d="M86.6,84.4l-42.6-7.8
			c0,0-29.8,41.6-9.1,56.9c21.2,15.6,34.2,1.1,39.5-10.3C78.3,114.9,86.6,84.4,86.6,84.4z"/>
		<path style="fill:#9C9C9B;" d="M43.8,72.6c0,1.4,0.1,4.1,0.1,4.1l42.2,8.6c0,0,0.5-1.7,2.2-7.9L43.8,72.6z"/>
	</g>
	<polygon style="fill:#FFFFFF;" points="86.4,85.2 43.9,76.7 43.8,72.6 87.2,81.4 	"/>
	<polygon style="fill:none;stroke:#010101;stroke-width:0.9896;stroke-miterlimit:10;" points="86.4,85.2 43.9,76.7 43.8,72.6 
		87.2,81.4 	"/>
	<polygon style="fill:#FFFFFF;" points="88.9,27.9 72.9,39.4 51.1,14.8 70.5,0.6 	"/>
	<g>
		<path style="fill:#FFFFFF;" d="M15,43.1C15,43.1,15,43.1,15,43.1c-0.1,0-0.1,0-0.1-0.1L0.5,20.7c0,0,0-0.1,0-0.1
			c0,0,0-0.1,0.1-0.1L31.9,2c0.1,0,0.1,0,0.2,0l11.7,18.4c0,0.1,0,0.1,0,0.2L15,43.1C15.1,43.1,15,43.1,15,43.1"/>
		<path style="fill:none;stroke:#010101;stroke-width:0.9896;stroke-miterlimit:10;" d="M15,43.1C15,43.1,15,43.1,15,43.1
			c-0.1,0-0.1,0-0.1-0.1L0.5,20.7c0,0,0-0.1,0-0.1c0,0,0-0.1,0.1-0.1L31.9,2c0.1,0,0.1,0,0.2,0l11.7,18.4c0,0.1,0,0.1,0,0.2L15,43.1
			C15.1,43.1,15,43.1,15,43.1z"/>
	</g>
	<polygon style="fill:#010101;" points="20,97.2 13.4,104.3 37.1,108.5 50.7,107.7 	"/>
	<polygon style="fill:#FFFFFF;" points="16,86.1 20,97.2 50.7,107.7 	"/>
	
		<polygon style="fill:none;stroke:#010101;stroke-width:1.1622;stroke-linecap:round;stroke-linejoin:round;stroke-miterlimit:10;" points="
		16,86.1 20,97.2 50.7,107.7 	"/>
	<polygon style="fill:#FFFFFF;" points="21.3,101.6 19.9,114 50.7,107.7 	"/>
	
		<polygon style="fill:none;stroke:#010101;stroke-width:1.1622;stroke-linecap:round;stroke-linejoin:round;stroke-miterlimit:10;" points="
		21.3,101.6 19.9,114 50.7,107.7 	"/>
	<polygon style="fill:#010101;" points="21.3,101.6 13.4,104.3 20.8,106.2 	"/>
	<g>
		<path style="fill:#CA2027;" d="M15.6,68.2c-2.5-0.7-4.4-3.4-4.9-6.8l-0.3-1.8l-0.3,1.8c-0.5,3.4-2.5,6-4.9,6.8l-1.3,0.4L5.2,69
			c2.5,0.7,4.4,3.4,4.9,6.8l0.3,1.8l0.3-1.8c0.5-3.4,2.5-6,4.9-6.8l1.3-0.4L15.6,68.2z"/>
		<path style="fill:none;stroke:#010101;stroke-width:0.9896;stroke-linejoin:bevel;stroke-miterlimit:10;" d="M15.6,68.2
			c-2.5-0.7-4.4-3.4-4.9-6.8l-0.3-1.8l-0.3,1.8c-0.5,3.4-2.5,6-4.9,6.8l-1.3,0.4L5.2,69c2.5,0.7,4.4,3.4,4.9,6.8l0.3,1.8l0.3-1.8
			c0.5-3.4,2.5-6,4.9-6.8l1.3-0.4L15.6,68.2z"/>
	</g>
	<polyline style="fill:none;stroke:#010101;stroke-width:0.9896;stroke-miterlimit:10;" points="0.5,20.7 24.5,20.9 32.1,2 	"/>
	<g>
		<path style="fill:none;stroke:#010101;stroke-width:0.9896;stroke-miterlimit:10;" d="M86.2,85.2l58.7,5.5l6-29.3
			c2.1-10.2-3.5-20.5-13.3-24.2L82.1,14.5"/>
		<path style="fill:none;stroke:#010101;stroke-width:0.9896;stroke-miterlimit:10;" d="M86.2,85.2l-42.2-8.6
			c0,0-3.6-56.7,22.4-62.6c26-5.8,31,17.2,29.6,30.2C95,53.8,86.2,85.2,86.2,85.2z"/>
	</g>
	<polygon style="fill:#FFFFFF;" points="78.5,47.2 69.4,69.7 30.7,58.3 41.6,30.8 	"/>
	<polygon style="fill:none;stroke:#010101;stroke-width:0.9896;stroke-miterlimit:10;" points="78.5,47.2 69.4,69.7 30.7,58.3 
		41.6,30.8 	"/>
	<g>
		<path style="fill:#FFFFFF;" d="M72.9,39.6c0,0-0.1,0-0.1,0L51,14.9c0,0,0-0.1,0-0.1c0,0,0-0.1,0.1-0.1L70.4,0.5c0,0,0.1,0,0.1,0
			c0,0,0.1,0,0.1,0.1L89,27.8c0,0.1,0,0.1,0,0.2L72.9,39.6C72.9,39.6,72.9,39.6,72.9,39.6"/>
		<path style="fill:none;stroke:#010101;stroke-width:0.9896;stroke-miterlimit:10;" d="M72.9,39.6c0,0-0.1,0-0.1,0L51,14.9
			c0,0,0-0.1,0-0.1c0,0,0-0.1,0.1-0.1L70.4,0.5c0,0,0.1,0,0.1,0c0,0,0.1,0,0.1,0.1L89,27.8c0,0.1,0,0.1,0,0.2L72.9,39.6
			C72.9,39.6,72.9,39.6,72.9,39.6z"/>
	</g>
	<polyline style="fill:none;stroke:#010101;stroke-width:0.9896;stroke-miterlimit:10;" points="70.5,0.6 70.5,21 89,28 	"/>
	<polyline style="fill:none;stroke:#010101;stroke-width:0.9896;stroke-miterlimit:10;" points="41.6,30.8 55.6,52.6 78.5,47.2 	"/>
</g>
</svg>
