<?xml version="1.0" encoding="utf-8"?>
<!-- Generator: Adobe Illustrator 29.0.1, SVG Export Plug-In . SVG Version: 9.03 Build 54978)  -->
<svg version="1.1" id="Layer_1" xmlns="http://www.w3.org/2000/svg" xmlns:xlink="http://www.w3.org/1999/xlink" x="0px" y="0px"
	 viewBox="0 0 353.9 325.8" style="enable-background:new 0 0 353.9 325.8;" xml:space="preserve">
<g>
	<path style="fill:#BDBEC0;" d="M73.1,71.8c25.4-11.8,48.1-22.5,58.3-44.2c-0.9-2.9-6.3-3.2-16.8-0.9c1.1-14-0.3-21.2-19.8-22.6
		s-55.9,38.2-65,48C20.5,62,26,90.3,28.8,96.9s20.7,1.9,20.7,1.9s4.2-5.8,2.5,0.8C61.5,92.4,68.4,82.7,73.1,71.8z"/>
	<path style="fill:#FFFFFF;" d="M328.7,96.3c0,0-28.3-74.6-32.7-86.8c-4.5-12.2-13.2-6.7-13.2-6.7l-20.5,8.3c0,0-6.7-10.2-6.7-1.2
		c-3.9-8.4-9.4-2.6-9.4-2.6s-6.9-6.6-7.1,1.1c-1.1-2.7-7.5-4.4-8,4.7c-10.2,3.4-8.7,13.2-8.7,13.2s-14,3.1-13.1,11
		c0-2.6-7.3,5.4-11.5,11.6c-4.2,6.2-1.5,10.7-1.5,10.7s-3.9,15.8-34.2,40.9c3.5-30.7-15.2-51.4-34.1-64.4c2-3.4,1.8-1.1,1.2-3
		c-15.7,19.2-47.1,37.1-56,37.5c-4.7,10.9-11.8,21.8-21.3,29c-0.2,0.9-1,3.2-1.4,4.7c-4.3,24.4,18.7,17.5,18.7,17.5l8.8,1.6
		c0,0-7,1.4-5.7,15.8c-3.4,2.2-9.4,19.3-9.4,19.3L26,211.6c0,0-9.1,5.7-24.2,59.2c-11.3,53.9,54.8,57.8,104.7,53.8
		c49.9-4,51.5-75.2,50-83.5c-1.5-8.3,50.6-155.4,50.6-155.4l15.3-2.2c0,0,0.2-0.5,10,22.9c2.6,6.3,7.6,14.3,11.5,24.6
		c6,16,26.6,3.2,26.6,3.2s0,0,49-18.4C339.2,109,328.7,96.3,328.7,96.3z"/>
	<path style="fill:#CB2026;" d="M80.1,124.5l-3.6-0.9c0,0-6.1,7.2-4.2,15.5c-5.4,5.5-14.8,18.1,2.3,22.3
		c5.6-12.1,8.3-18.6,17.2-15.5c6.1-3.8-7.4-20.4-7.4-20.4L80.1,124.5z"/>
	<path style="fill:#CB2026;" d="M116.6,138.2c0,0-6.1,7.6-4.6,9.4c4.7,0.5,9,5.2,7.8,15.1c-5.2,20.3-6.5,21.4-9.6,23.1
		c-6.7,42.4-6.7,43.9-6.7,43.9l20.1-26c0,0,4.6-29.4,3.8-31.1c16.7,2.3,17.8-0.5,25.2-14.9c7.4-14.4-6.4-29.9-6.4-29.9
		s-10.7,7.7-15.5,7.3c-0.4,4.9-0.4,4.9-0.4,4.9l-4.5,4.9L116.6,138.2z"/>
	<g>
		<g>
			<path style="fill:#010101;" d="M66.3,147.1l0.3,8.2l2.2,3.4l6.9,2.4L73,171.8l2.4,6.9l9.4,4.4l13.7,3.3l11.1-0.6
				c-0.7,8.8-0.9,29.5-2.8,38.8c0,0.4-4.8,26.8-4.8,26.8l-9.8,26.8c-0.3,1.3-11.7,9.6-11.7,9.6c-16.3,10.5-31.1,5.2-46.6-13.6
				c-4.8-5.8-11.7-22-14.1-34.9C13.5,204.9,31.7,154,66.3,147.1z"/>
			<path style="fill:#010101;" d="M162,99.2c3.8-3.3,32.3-35.2,35.7-41.1l6.7,3.1l12.3,5.4c1.8,4.3,7.8,12.8,5.8,17
				c-12.7,26.8-36.7,62.6-45.4,90.4c-1.9,6.1-1.2-1.8-0.5,13.9c1.6,33.5,13.8,73.7,9.1,88.1c-11.3,34.9-44.6,24-53.8-1.1
				c-3.5-9.5,16.5-31.4,7.9-72.7c-0.9-4.4,8.1-23.6,8.1-23.6s3.9-15.7,3.9-19s1-13.2,1-13.2l-1.9-11.9l-5.5-6.7l9-7.4l5.1-10.3
				L162,99.2z"/>
			<path style="fill:#010101;" d="M235.8,27.9L221.3,35l-2.9,3.9c-1.3,2.2,21.5,60,22.8,63.9c1.7,3.8,7.5,18.3,10.3,21.2l5.8,0.6
				l29.9-11.6c3-1.4,26.4-9.9,28.2-12l2.9-3.8l-31.1-78.6c-1.1-1.7-4.1-6.5-5.8-7.7c-6.1,2-21,8.3-27,10.9c0,0-3.4,1.7-3.4,1.7
				l-2.1,5.1l-2.2,0.3l-2.6-2.2l-1.9,2.9l-3,0.9L235.8,27.9z"/>
			<path style="fill:#010101;" d="M129.4,92l10,1.8l7.4-1.9l1.9,15.2l-0.2,10.8l-1.9,2.8l-4,2.1l-6.4-0.6l-3.6-2l-3.2-4.1
				C126.7,102.7,125.9,104.6,129.4,92z"/>
			<path style="fill:#010101;" d="M47.3,99.7C53.6,93,64.8,77.1,71.7,71l2.6,0.2l-3.6,9.4l-1.1,9.9l2.4,9l-5.2,1l-6.6-3.2L54.8,98
				l-3.9,5.1L47.3,99.7z"/>
			
				<path style="fill:none;stroke:#010101;stroke-width:1.6438;stroke-linecap:round;stroke-linejoin:round;stroke-miterlimit:10;" d="
				M48.8,98.6c-6.6,0.6-19,5.1-20.9-4.1c-3-12.7-5.1-27.1-0.3-39.5c7.5-11,18.9-19,28-28.6C62,20.2,68.6,14,76.4,9.7
				C95.3-1.1,123,2.6,114,28.3"/>
			
				<path style="fill:none;stroke:#010101;stroke-width:1.6438;stroke-linecap:round;stroke-linejoin:round;stroke-miterlimit:10;" d="
				M109.2,31.8c-5.8,4.5-41.6,33.7-36,39.3c12.6-2.7,23.7-11.4,34.5-18.4c5.1-2.4,34.5-26.4,19.3-28C120.5,24.7,114,27.3,109.2,31.8
				"/>
			
				<path style="fill:none;stroke:#010101;stroke-width:1.6438;stroke-linecap:round;stroke-linejoin:round;stroke-miterlimit:10;" d="
				M73.1,69.8c-9.8,8.4-16.5,20.1-25.5,29"/>
			
				<path style="fill:none;stroke:#010101;stroke-width:1.6438;stroke-linecap:round;stroke-linejoin:round;stroke-miterlimit:10;" d="
				M64,98.8c-11.6-6.9-19.3,12-10.9,19.5c6.4,7.8,22.9,4.6,20.7-7"/>
			
				<path style="fill:none;stroke:#010101;stroke-width:1.6438;stroke-linecap:round;stroke-linejoin:round;stroke-miterlimit:10;" d="
				M74.9,71.1c-4.6,9.3-8.7,20.4-2,28.5"/>
			
				<path style="fill:none;stroke:#010101;stroke-width:1.6438;stroke-linecap:round;stroke-linejoin:round;stroke-miterlimit:10;" d="
				M62.9,98.2c2.8,1.9,7,2.9,10,1.3"/>
			
				<path style="fill:none;stroke:#010101;stroke-width:1.6438;stroke-linecap:round;stroke-linejoin:round;stroke-miterlimit:10;" d="
				M91,152.4c4.7-5.9,1.4-11.9-0.4-18.5c-3.7-14.5-6-43.3-2.8-44.7c5.2-2.2,5.4,21.9,7.1,27.8c0.5-6.4-3.8-29.9,0.8-31.9
				c6.2,2.2,5.1,23.6,7,30.3c-5.8-31.5,4.8-35.8,6.1-1.2c-0.3-6.7-2.2-19.4,0.4-19.9c3.9-0.8,4.1,5.1,4.5,7.9
				c1.3,11,3.2,22.3,2.9,33.3c-1.1,5.3-5.2,9.6-5.5,15.1c-0.1,2.4,0,4.9-0.3,5.4"/>
			
				<path style="fill:none;stroke:#010101;stroke-width:1.6438;stroke-linecap:round;stroke-linejoin:round;stroke-miterlimit:10;" d="
				M128,35.7c20.5,13.3,36.7,36,33.8,61.4c-0.9,22.1-21.4,43.6-44.3,36.7"/>
			
				<path style="fill:none;stroke:#010101;stroke-width:1.6438;stroke-linecap:round;stroke-linejoin:round;stroke-miterlimit:10;" d="
				M129.9,58.7c7.7,6.4,27.6,9.1,12,21"/>
			
				<path style="fill:none;stroke:#010101;stroke-width:1.6438;stroke-linecap:round;stroke-linejoin:round;stroke-miterlimit:10;" d="
				M110.5,61.8c1.8,2.6,3.3,5.3,4.8,8.1"/>
			
				<path style="fill:none;stroke:#010101;stroke-width:1.6438;stroke-linecap:round;stroke-linejoin:round;stroke-miterlimit:10;" d="
				M135.2,50.7c1.6,2.3,2.9,4.7,3.9,7.3"/>
			
				<path style="fill:none;stroke:#010101;stroke-width:1.6438;stroke-linecap:round;stroke-linejoin:round;stroke-miterlimit:10;" d="
				M144.2,83.6c-25.2-2.5-22,49.3,2.1,37.1"/>
			
				<path style="fill:none;stroke:#010101;stroke-width:1.6438;stroke-linecap:round;stroke-linejoin:round;stroke-miterlimit:10;" d="
				M145,83.6c2.9,0.2,2.9,4.3,2.3,6.4c-2.8,5.1-11.6,4.8-16.1,2.5"/>
			
				<path style="fill:none;stroke:#010101;stroke-width:1.6438;stroke-linecap:round;stroke-linejoin:round;stroke-miterlimit:10;" d="
				M147.6,88.6c-0.7,8.1,3.7,26.1-0.7,31.8"/>
			
				<path style="fill:none;stroke:#010101;stroke-width:1.6438;stroke-linecap:round;stroke-linejoin:round;stroke-miterlimit:10;" d="
				M86.3,110.3c-9.9,2.8-1.6,16.1,2.2,21.5c1,1.2,2.3,2.3,2.4,3.9"/>
			
				<path style="fill:none;stroke:#010101;stroke-width:1.6438;stroke-linecap:round;stroke-linejoin:round;stroke-miterlimit:10;" d="
				M88.6,150.7c-0.6,4.6,19.9,6.8,23.3,7"/>
			
				<path style="fill:none;stroke:#010101;stroke-width:1.6438;stroke-linecap:round;stroke-linejoin:round;stroke-miterlimit:10;" d="
				M92.1,146c-4.5-1-11.3-0.2-12.9,5c-2.6,7.1-10.5,26.7-0.2,29.9c7.6,3,28.4,9,34.4,2.5c5.2-6.1,12-36.2-1.2-35.9"/>
			
				<path style="fill:none;stroke:#010101;stroke-width:1.6438;stroke-linecap:round;stroke-linejoin:round;stroke-miterlimit:10;" d="
				M73.9,177.8c-6.1,18.6-16.3,35.7-22.3,54.3"/>
			
				<path style="fill:none;stroke:#010101;stroke-width:1.6438;stroke-linecap:round;stroke-linejoin:round;stroke-miterlimit:10;" d="
				M131.2,135c-0.4,1.9-0.3,3-0.8,4.9"/>
			
				<path style="fill:none;stroke:#010101;stroke-width:1.6438;stroke-linecap:round;stroke-linejoin:round;stroke-miterlimit:10;" d="
				M74.6,115.4c2.5,2.1,3.9,3,6.8,4.4"/>
			
				<path style="fill:none;stroke:#010101;stroke-width:1.6438;stroke-linecap:round;stroke-linejoin:round;stroke-miterlimit:10;" d="
				M69.2,121.4c4.8,1.8,10.1,2.4,15.1,3.9"/>
			
				<path style="fill:none;stroke:#010101;stroke-width:1.6438;stroke-linecap:round;stroke-linejoin:round;stroke-miterlimit:10;" d="
				M47.4,99.2c0.9,1.3,2,2.5,3.1,3.6"/>
			
				<path style="fill:none;stroke:#010101;stroke-width:1.6438;stroke-linecap:round;stroke-linejoin:round;stroke-miterlimit:10;" d="
				M75.9,125.3c-5.9,6.8-5.6,19.2,2.4,24.3"/>
			
				<path style="fill:none;stroke:#010101;stroke-width:1.6438;stroke-linecap:round;stroke-linejoin:round;stroke-miterlimit:10;" d="
				M71.2,139.7c-5.7,5.9-8,20.4,3.2,20.7"/>
			
				<path style="fill:none;stroke:#010101;stroke-width:1.6438;stroke-linecap:round;stroke-linejoin:round;stroke-miterlimit:10;" d="
				M116.6,139.1c5.6,3.3,10.5,7.8,14.3,13.2"/>
			
				<path style="fill:none;stroke:#010101;stroke-width:1.6438;stroke-linecap:round;stroke-linejoin:round;stroke-miterlimit:10;" d="
				M125.7,144.8c2.5-2.2,4.7-5.2,7.8-6.6"/>
			
				<path style="fill:none;stroke:#010101;stroke-width:1.6438;stroke-linecap:round;stroke-linejoin:round;stroke-miterlimit:10;" d="
				M145.8,129.3c6.5,4.4,6.3,15.8,6.7,23c-0.1,10.2-7.2,21.2-18.1,21.7c-5.3-0.5-10.3-3.1-15.6-3.7"/>
			
				<path style="fill:none;stroke:#010101;stroke-width:1.6438;stroke-linecap:round;stroke-linejoin:round;stroke-miterlimit:10;" d="
				M66.3,147.1c-46,14-58.3,77.5-38.9,115.8"/>
			
				<path style="fill:none;stroke:#010101;stroke-width:1.6438;stroke-linecap:round;stroke-linejoin:round;stroke-miterlimit:10;" d="
				M240.3,11.1"/>
			
				<path style="fill:none;stroke:#010101;stroke-width:1.6438;stroke-linecap:round;stroke-linejoin:round;stroke-miterlimit:10;" d="
				M233,7.9c6-7.7,11.6,14.8,9.7,20c-3,5.5-7.9-1.3-10.2-6.4c-0.7-1.6-1.1-3.4-1.2-5.1l-0.1-2.7C231.1,11.7,231.7,9.6,233,7.9z"/>
			
				<path style="fill:none;stroke:#010101;stroke-width:1.6438;stroke-linecap:round;stroke-linejoin:round;stroke-miterlimit:10;" d="
				M239.2,8.4c3-10.9,9.8,3.7,10.6,8.8c2,5.8,0.3,16.2-6.2,8.8"/>
			
				<path style="fill:none;stroke:#010101;stroke-width:1.6438;stroke-linecap:round;stroke-linejoin:round;stroke-miterlimit:10;" d="
				M247.2,5.9c6.5-6.1,11.3,7.3,8.5,13c-0.4,1.2-3.2,5.9-4.1,3.7"/>
			
				<path style="fill:none;stroke:#010101;stroke-width:1.6438;stroke-linecap:round;stroke-linejoin:round;stroke-miterlimit:10;" d="
				M256.4,6.5c7.6-1,8.3,14.3,0,11.7"/>
			
				<path style="fill:none;stroke:#010101;stroke-width:1.6438;stroke-linecap:round;stroke-linejoin:round;stroke-miterlimit:10;" d="
				M262.9,11c7.4-3.4,14.9-6.5,22.6-9.1"/>
			
				<path style="fill:none;stroke:#010101;stroke-width:1.6438;stroke-linecap:round;stroke-linejoin:round;stroke-miterlimit:10;" d="
				M244.4,131.9c-6.4-14.1-47-94.3-31.7-101.3l1.9-1.1c6.2-2.5,11.1-4.7,17.1-7.6"/>
			
				<path style="fill:none;stroke:#010101;stroke-width:1.6438;stroke-linecap:round;stroke-linejoin:round;stroke-miterlimit:10;" d="
				M245.4,133.5c1.8,4.6,7.8,7.3,13.3,4.9c19.6-6.9,30.5-10.4,50-18.3c5.5-2.2,26.4-8,21.6-19.3l-1.6-4.5
				c-9.3-24.6-19.8-51.5-30.6-80.8c-2-5.5-4.7-16.6-12.6-13.6"/>
			
				<path style="fill:#010101;stroke:#010101;stroke-width:1.6438;stroke-linecap:round;stroke-linejoin:round;stroke-miterlimit:10;" d="
				M288.6,117c-2.4-0.1-2.7,3.2-1.2,4.5c4.2,2.4,5.4-5.8,0.6-4.4"/>
			
				<path style="fill:none;stroke:#010101;stroke-width:1.6438;stroke-linecap:round;stroke-linejoin:round;stroke-miterlimit:10;" d="
				M235,28.2c-4.4,2.7-16.7,5.7-15.9,11.8c6.7,27.2,17.8,53.7,29.5,79.2c4.5,9.9,15.8,1.7,23.1-0.2c14.2-5.6,28.9-10.1,42.5-17.1"/>
			
				<path style="fill:none;stroke:#010101;stroke-width:1.6438;stroke-linecap:round;stroke-linejoin:round;stroke-miterlimit:10;" d="
				M252.3,23.6c8.4-5,17.4-9,26.8-11.8c3-1.3,5.4,0.7,6.4,3.6c11.6,25.7,22,52,31.2,78.6c2.5,4.9-0.4,7.9-6,9.6"/>
			
				<path style="fill:none;stroke:#010101;stroke-width:1.6438;stroke-linecap:round;stroke-linejoin:round;stroke-miterlimit:10;" d="
				M222.3,24.7c0.1-8,1.9-7.8,8.3-11.4"/>
			
				<path style="fill:none;stroke:#010101;stroke-width:1.6438;stroke-linecap:round;stroke-linejoin:round;stroke-miterlimit:10;" d="
				M209.7,35c-5.8,4.6-11.1,11.4-14.1,18.3c-4.2,7.5,9.3,6.8,20.2,12.9"/>
			
				<path style="fill:none;stroke:#010101;stroke-width:1.6438;stroke-linecap:round;stroke-linejoin:round;stroke-miterlimit:10;" d="
				M196.7,58.6c-9.7,16.5-21.1,24.9-34,38.9"/>
			
				<path style="fill:none;stroke:#010101;stroke-width:1.6438;stroke-linecap:round;stroke-linejoin:round;stroke-miterlimit:10;" d="
				M58.9,105.1c1.4,3.6,3.7,6.9,6.6,9.4"/>
			
				<path style="fill:none;stroke:#010101;stroke-width:1.6438;stroke-linecap:round;stroke-linejoin:round;stroke-miterlimit:10;" d="
				M151.4,161.4c-5.9,33.1-22.1,64.2-39.3,92.7"/>
			
				<path style="fill:none;stroke:#010101;stroke-width:1.6438;stroke-linecap:round;stroke-linejoin:round;stroke-miterlimit:10;" d="
				M141.2,172.6c-8.3,22.1-20.8,34.8-34.8,53.6"/>
			
				<path style="fill:none;stroke:#010101;stroke-width:1.6438;stroke-linecap:round;stroke-linejoin:round;stroke-miterlimit:10;" d="
				M127.4,172.5c1.1,7.2-2.9,26.3-5.5,33.1"/>
			
				<path style="fill:none;stroke:#010101;stroke-width:1.6438;stroke-linecap:round;stroke-linejoin:round;stroke-miterlimit:10;" d="
				M139.5,201.5c6.9,20,1.4,42.2-6.3,61.9c-2.5,6.4-1.3,13.6,3,19l5.6,7c8.4,10.4,23.6,11.9,33.8,3.2l0,0c7.6-6.4,11.6-16.1,10.8-26
				c-10.1-118-28.5-58.2,35.8-182.6"/>
			
				<path style="fill:none;stroke:#010101;stroke-width:1.6438;stroke-linecap:round;stroke-linejoin:round;stroke-miterlimit:10;" d="
				M124.8,231.8c1.3,6.1,1.4,12.5,0.2,18.6"/>
			
				<path style="fill:none;stroke:#010101;stroke-width:1.6438;stroke-linecap:round;stroke-linejoin:round;stroke-miterlimit:10;" d="
				M27.4,262.9c8.4,16.9,26.7,33.2,41.1,30c24.6-5.4,29.6-26,32.7-41.6c5.2-22.6,6.6-41.9,9-65"/>
			
				<path style="fill:none;stroke:#010101;stroke-width:1.6438;stroke-linecap:round;stroke-linejoin:round;stroke-miterlimit:10;" d="
				M112,254.1c-4.5,18.6,4.5,40.3-6.2,56.2"/>
			
				<path style="fill:none;stroke:#010101;stroke-width:1.6438;stroke-linecap:round;stroke-linejoin:round;stroke-miterlimit:10;" d="
				M18,225.1c-7.3,17.6-27.4,55.5-10.7,79.4"/>
			
				<path style="fill:none;stroke:#010101;stroke-width:1.6438;stroke-linecap:round;stroke-linejoin:round;stroke-miterlimit:10;" d="
				M342.7,93.8c7.9,14.2-1.6,27.5-14.8,31.4"/>
			
				<path style="fill:none;stroke:#010101;stroke-width:1.6438;stroke-linecap:round;stroke-linejoin:round;stroke-miterlimit:10;" d="
				M353.1,116.9c0.4,8.6-9.5,16.9-19.4,15.7"/>
			
				<line style="fill:none;stroke:#010101;stroke-width:1.6438;stroke-linecap:round;stroke-linejoin:round;stroke-miterlimit:10;" x1="153.9" y1="42" x2="159.2" y2="14.5"/>
			
				<line style="fill:none;stroke:#010101;stroke-width:1.6438;stroke-linecap:round;stroke-linejoin:round;stroke-miterlimit:10;" x1="164.9" y1="45.7" x2="185.6" y2="0.8"/>
			
				<line style="fill:none;stroke:#010101;stroke-width:1.6438;stroke-linecap:round;stroke-linejoin:round;stroke-miterlimit:10;" x1="173.8" y1="51" x2="202.4" y2="21.3"/>
		</g>
		<g>
			<path style="fill:#FFFFFF;" d="M248.3,67.6c-0.4-0.2-0.8-0.4-1.2-0.6c-0.5-0.3-0.8-0.8-1.2-1.3c-0.7-0.9-1.1-2-1.4-3.1
				c-0.3-1.1-0.6-2.1-0.8-3.2c-0.2-0.9-0.3-1.8-0.6-2.7c-0.1-0.4-0.1-0.8-0.2-1.2c-0.1-0.8-0.1-1.6-0.2-2.5c0,0,0-0.1,0-0.1
				c0.1-0.6-0.1-1.2,0-1.8c0-0.6,0-1.1,0-1.7c0-0.8,0.1-1.5,0.2-2.3c0.1-0.6,1-1.3,1.5-1.5c0.2-0.1,0.5-0.2,0.7-0.3
				c0.5-0.3,1.1-0.6,1.7-0.8c0.1,0,0.2,0,0.3-0.1c0.5-0.4,1.1-0.5,1.7-0.8c0.6-0.2,1.2-0.4,1.7-0.7c0.2-0.1,0.4-0.2,0.7-0.2
				c0.4,0,0.7-0.1,1.1-0.2c0.6-0.1,1.2,0,1.6,0.3c0.4,0.3,0.7,0.7,0.7,1.2c0.1,0.5-0.1,1-0.4,1.4c-0.3,0.4-0.8,0.6-1.3,0.7
				c-0.2,0-0.4,0.1-0.6,0.2c-0.6,0.2-1.2,0.4-1.7,0.6c-0.7,0.4-1.4,0.6-2.2,0.9c-0.1,0-0.2,0.1-0.3,0.1c-0.3,0.2-0.5,0.4-0.8,0.5
				c-0.1,0-0.8,0.6-0.9,0.7c0,0,0,3.2,0,3.2c0,0.3,0,0.5,0.1,0.7c0.1,0.7,2.2-0.7,2.9-1c0.4-0.2,0.9-0.4,1.3-0.5
				c0.1,0,0.3-0.1,0.4-0.2c0.9-0.4,2.1-0.2,2.6,0.8c0.2,0.4,0.3,1,0,1.4c-0.2,0.6-0.7,0.8-1.1,1.1c-0.6,0.3-1.2,0.6-1.8,0.8
				c-0.9,0.4-1.9,0.8-2.8,1.3c-0.3,0.1-0.5,0.2-0.8,0.3c-0.2,0.1,0,0.5,0,0.7c0.1,1.7,1.1,4.3,1.4,4.8l0.5,1.1
				c0.2,0.5,0.3,0.6,0.9,0.4c0.2,0,0.4-0.1,0.6-0.2c0.7-0.3,1.3-0.6,1.9-1.1c0.8-0.7,1.4-1.6,2.1-2.4c0.4-0.6,1.1-0.9,1.8-0.8
				c0.5,0.1,1.1,0.4,1.4,0.9c0.3,0.5,0.3,1.1,0,1.7c-0.4,0.7-0.8,1.3-1.3,1.8c-0.9,1.2-2.1,1.9-3.3,2.7c-0.5,0.3-1,0.6-1.5,0.7
				C250.5,67.9,249.4,67.9,248.3,67.6z"/>
			<path style="fill:#FFFFFF;" d="M261.3,62.5c-0.7-0.2-1.1-0.8-1.2-1.4c0-0.2-0.1-0.4-0.2-0.6c-1.3-3.7-2.4-7.8-2.3-9.1
				c0-0.6,0.2-1.1,0.7-1.5c0.4-0.4,1-0.5,1.6-0.4c0.6,0.1,1,0.5,1.2,1.1c0.2,0.5,0.3,1,0.4,1.4c0,0.1,0,0.2,0.1,0.3
				c0,0,0,0.1,0.1,0.1c0,0,0.1,0,0.1,0l0.1-0.2c0.3-0.8,0.5-1.5,0.8-2.3c0.1-0.2,0.1-0.3,0.2-0.5c0.2-0.3,0.4-0.6,0.5-0.9
				c0.1-0.2,0.2-0.3,0.3-0.4c0.3-0.3,0.5-0.6,0.8-0.9c0.5-0.6,1.1-0.9,1.8-1.3c0.4-0.1,0.8-0.1,1.2,0.1c0.3,0.1,0.6,0.2,0.9,0.3
				c0.1,0,0.1,0,0.2,0.1c0.5,0.4,1,0.8,1.3,1.4c0.2,0.4,0.4,0.7,0.5,1c0.1,0.3,0.3,0.6,0.4,1c0.4,1,0.8,2.2,1.4,3.1
				c0.2,0.5,0.5,1,0.9,1.5l0.2,0.2c0.1,0.2,0.2,0.2,0.3,0c0.3-0.4,0.5-0.8,0.6-1.2c0.2-0.7,0.6-2.2,0.7-3.1c0.1-1.9,0-2.7,1-3.2
				c1.4-0.7,2.4,0.9,2.3,2.3c0,1.9-0.4,3.8-0.8,4.8c-0.1,0.3-0.2,0.5-0.3,0.8c-0.2,0.6-0.5,1.1-0.8,1.6c-0.4,0.7-1,1.2-1.7,1.5
				l-0.3,0.1c-0.6,0.1-1.1,0.1-1.7,0c-0.3,0-0.5-0.2-0.8-0.3c-0.9-0.5-1.7-1.4-2.2-2.4c-0.2-0.4-0.4-0.7-0.5-1
				c-0.1-0.2-0.2-0.4-0.3-0.6c-0.1-0.2-0.1-0.4-0.2-0.6c-0.1-0.2-0.2-0.4-0.3-0.6c-0.4-0.9-0.7-1.9-1.3-2.8c-0.1-0.2-0.2-0.2-0.3,0
				c-0.3,0.5-0.6,0.9-0.8,1.4c0,0,0,0-0.1,0.1c-0.7,0.9-0.8,2-1,3l0,0.2c-0.2,0.6-0.3,1.1-0.4,1.7c0,0.5-0.1,1.1-0.3,1.7
				c0,0.3-0.1,0.7,0,1c0,0.2,0,0.5,0,0.8c0,0.2,0,0.3,0,0.4c0.1,0.7-0.1,1.4-0.6,1.8C262.7,62.6,261.9,62.7,261.3,62.5z"/>
		</g>
		<g>
			<path style="fill:#FFFFFF;" d="M252.4,95.3c-0.3-0.1-0.6-0.1-0.9-0.2c-0.2,0-0.3,0-0.3,0.1c0,0.1-0.1,0.2-0.2,0.2
				c-0.4,0.6-1.2,0.8-1.9,0.6c-0.4-0.1-0.7-0.4-0.9-0.7c-0.2-0.2-0.3-0.5-0.4-0.8c-0.2-0.5-0.4-1.1-0.6-1.7c-0.3-1-0.6-2-0.8-3
				c-0.2-0.7-0.4-1.4-0.6-2.1c-0.1-0.5-0.3-1.1-0.4-1.7c0-0.3-0.1-0.6-0.2-0.8c-0.2-0.7-0.3-1.4-0.4-2.1c-0.1-0.7-0.2-1.4-0.3-2.1
				L244,77c0-0.3,0-0.6,0-0.8c0-0.7-0.2-1.3-0.2-2c0-0.7,0.3-1.3,0.9-1.7c0.5-0.3,1.2-0.3,1.7,0.1c0.5,0.3,0.9,0.9,0.9,1.5
				c0.2,1.3,0.3,2.5,0.4,3.9c0.1,0.5,0.1,1,0.1,1.5c0,0.1,0,0.2,0.1,0.3c0.1,0.3,0.1,0.6,0.2,0.9c0,0.1,0,0.2,0.1,0.3
				c0.2,0.5,0.2,1,0.2,1.5c0,0.4,0.1,0.9,0.3,1.3c0,0.1,0,0.1,0.1,0.1l0.1-0.1c0.3-0.9,0.9-1.5,1.3-2.3c0.2-0.2,0.4-0.5,0.7-0.6
				c0.1-0.1,0.2-0.2,0.4-0.3c0.6-0.6,1.3-0.8,2.1-1.1c0.2,0,0.5,0,0.7,0c0.4,0.1,0.8,0.2,1.2,0.3c0.5,0.2,1,0.5,1.3,0.9
				c0.5,0.4,0.9,1,1.2,1.5c0.1,0.1,0.2,0.1,0.2,0c1.6-1.7,1.5-2.8,2.4-3.3c0.2-0.2,1-0.3,1.4,0.2c0.6,0.6,0.9,1.3,0.5,2.1
				c-0.1,0.3-0.2,0.5-0.3,0.8c-0.1,0.3-0.3,0.6-0.5,0.8c-0.3,0.3-0.4,0.7-0.6,1c-0.4,0.5-0.7,1-1.1,1.4l-0.7,0.7
				c-0.1,0.1-0.2,0.3-0.1,0.5c0.1,0.7,0.1,1.4,0.1,2.1c0,0.3-0.1,0.5-0.2,0.8c-0.2,0.7-0.4,1.4-0.8,2.1l-0.1,0.1
				c-0.4,0.8-0.9,1.4-1.5,2c-0.3,0.3-0.6,0.7-1,0.8C254.5,95.1,253.5,95.3,252.4,95.3z M251.2,88.1c0.1,0,0.2-0.1,0.2-0.1
				c0.2-0.3,0.5-0.6,0.8-0.8c0.7-0.4,1.4-1.1,2.2-1.6c0.2-0.1,0.3-0.2,0.5-0.4c0.2-0.1,0.2-0.2,0.1-0.4c-0.2-0.2-0.3-0.5-0.4-0.7
				c-0.2-0.3-0.4-0.5-0.6-0.8c-0.2-0.2-0.3-0.2-0.5-0.1c-0.5,0.3-0.8,0.7-1.1,1.1c-0.3,0.5-0.5,1-0.6,1.6l-0.1,0.2
				c-0.2,0.4-0.3,0.9-0.4,1.4C251.1,87.7,251.1,87.9,251.2,88.1C251.2,88.1,251.2,88.1,251.2,88.1L251.2,88.1L251.2,88.1z
				 M253.6,91.6c0.8-0.5,1.4-1.3,1.6-2.2c0-0.1,0.1-0.2,0-0.3c-0.1-0.1-0.2,0.1-0.3,0.1c-0.1,0-0.1,0.1-0.2,0.1
				c-0.3,0.3-0.6,0.6-0.9,0.7c-0.4,0.3-0.7,0.7-1,1.1c-0.1,0.2-0.2,0.4-0.1,0.6c0.2,0.2,0.4,0,0.6-0.1L253.6,91.6z"/>
			<path style="fill:#FFFFFF;" d="M261.4,89c-0.2-0.3-0.3-0.6-0.4-1c-0.1-0.4-0.3-0.8-0.4-1.3c-0.1-0.8-0.3-1.7-0.5-2.5
				c-0.1-0.4-0.2-0.8-0.2-1.2c0-0.2-0.1-0.4-0.1-0.5c-0.1-0.6-0.2-1.1-0.3-1.6c-0.1-0.7-0.2-1.4-0.2-2.1c-0.1-0.5-0.1-0.9,0-1.4
				c0.1-0.4,0.4-0.8,0.8-1c0.5-0.3,1.2-0.3,1.7,0c0.5,0.3,0.8,0.8,0.9,1.4c0,0.2,0,0.4,0,0.5c0,0,0,0.1,0.1,0.1c0.1,0,0.1,0,0.1-0.1
				c0.1-0.5,0.3-0.9,0.5-1.3c0-0.2,0.1-0.3,0.2-0.5c0.1-0.3,0.4-0.6,0.5-0.9c0.2-0.5,0.7-0.6,1.2-0.9c0.8-0.5,1.8-0.4,2.7-0.1
				c0.6,0.2,1.1,0.6,1.5,1.2c0.4,0.7,0.6,1.4,0.2,2.3c-0.3,0.5-1,0.8-1.6,0.7c-0.5-0.1-0.9-0.4-1.2-0.9c0-0.1,0-0.1-0.1-0.2
				c-0.1,0-0.1,0.1-0.1,0.2c-0.2,0.5-0.5,1-0.7,1.5c-0.2,0.4-0.2,0.8-0.3,1.2c0,0,0,0.1,0,0.1c-0.4,0.7-0.4,1.5-0.6,2.3
				c0,0.1-0.1,0.2-0.1,0.3c0,0.7-0.2,1.4-0.3,2l-0.1,0.3c0.1,0.7,0,1.4,0,2c0.1,0.6-0.2,1.3-0.7,1.7l-0.4,0.2
				C262.8,90,261.9,89.7,261.4,89z"/>
			<path style="fill:#FFFFFF;" d="M277.4,84.6c-0.4,0.1-0.8,0.1-1.2,0c-0.2-0.1-0.5-0.2-0.8-0.2c-0.4-0.2-0.9-0.4-1.2-0.7
				c-0.6-0.4-1.1-0.9-1.5-1.6c0,0,0-0.1-0.1-0.1c-0.3-0.3-0.5-0.8-0.7-1.2c-0.1-0.3-0.2-0.6-0.3-0.9c-0.2-0.9-0.5-1.8-0.3-2.7
				c0-0.3-0.1-0.6,0-1c0.1-0.7,0.1-1.4,0.3-2.1c0.2-0.5,0.4-1.1,0.6-1.6c0.1-0.5,0.4-0.9,0.7-1.2c0,0,0.1-0.1,0.1-0.1
				c0.2-0.6,0.7-1.1,1.2-1.4c0.8-0.6,1.7-0.8,2.7-0.6l0.2,0c0.6,0,1.2,0.4,1.7,0.7c0.2,0.2,0.4,0.3,0.5,0.5c0.4,0.6,0.7,1.2,0.9,1.9
				c0.1,0.5,0.1,1.1,0,1.7l0,0c-0.2,0.5-0.5,1-0.7,1.4c-0.4,0.6-0.8,1.1-1.4,1.5c-0.3,0.2-0.5,0.4-0.9,0.6c-0.2,0.1-0.5,0.2-0.7,0.4
				c-0.3,0.2-0.8,0.4-1.1,0.5c-0.3,0-0.3,0.1-0.3,0.3c0,0.5,0.3,0.9,0.5,1.3c0.1,0.3,0.3,0.6,0.6,0.8c0.3,0.3,0.8,0.4,1.2,0.3
				c0.6-0.1,1.1-0.4,1.5-0.8c0.6-0.5,1.1-1,1.6-1.5c0.4-0.4,0.7-0.9,1.1-1.4c0.4-0.6,0.8-1.3,1.1-1.9c0.3-0.7,0.6-1.3,0.8-2
				c0.3-0.9,0.7-1.7,0.8-2.6c0.1-0.7,0.6-1.3,1.3-1.4c0.7-0.2,1.4,0.2,1.7,0.8c0.4,0.6,0.4,1.3,0.1,2c-0.2,0.4-0.3,0.8-0.3,1.3
				c-0.1,0.4-0.2,0.7-0.4,1c-0.2,0.5-0.4,1-0.6,1.5c-0.1,0.4-0.2,0.7-0.4,1c-0.2,0.3-0.3,0.7-0.5,1c-0.4,0.7-0.8,1.4-1.3,2
				c-0.3,0.4-0.6,0.7-0.8,1.1c-0.2,0.3-0.4,0.5-0.7,0.7c-0.3,0.3-0.6,0.6-0.9,0.8c-0.2,0.2-0.4,0.4-0.6,0.5
				c-0.4,0.2-0.8,0.4-1.2,0.7c-0.4,0.3-0.9,0.5-1.4,0.6C277.8,84.5,277.6,84.6,277.4,84.6z M275.6,74.3c0.5-0.3,0.8-0.8,0.9-1.3
				c0-0.2,0-0.3-0.2-0.4c-0.2-0.1-0.3,0-0.4,0.1c-0.3,0.3-0.5,0.6-0.7,1c-0.1,0.2-0.2,0.5-0.3,0.7c-0.1,0.1,0,0.2,0.2,0.1
				C275.3,74.6,275.4,74.4,275.6,74.3z"/>
			<path style="fill:#FFFFFF;" d="M291.5,85.6c-0.4,0-0.9-0.1-1.3-0.3c-0.3-0.2-0.6-0.3-0.9-0.5c-0.6-0.4-1.1-0.9-1.4-1.5
				c-0.1-0.2-0.2-0.4-0.4-0.5c-0.2-0.3-0.4-0.6-0.6-1c-0.3-0.6-0.5-1.2-0.8-1.7c-0.2-0.4-0.3-0.8-0.4-1.3c-0.4-0.6-0.4-1.5-0.7-2.3
				c-0.2-0.5-0.3-0.9-0.4-1.4c0-0.2-0.2-0.4-0.4-0.5c-0.8-0.2-1.4-0.8-1.7-1.6c-0.5-1.2-0.1-2.3,0.9-3.1c0.1-0.1,0.1-0.1,0.2-0.2
				c0.1-0.1,0.2-0.2,0.1-0.3l0-0.4c-0.1-0.9-0.2-1.8-0.2-2.6c0-0.9,0-1.9,0.1-2.8c0.1-1,0.3-1.9,0.5-2.8c0.1-0.4,0.3-0.8,0.3-1.2
				c0.1-0.1,0.1-0.3,0.2-0.4c0.3-0.5,0.6-1,0.9-1.5c0.5-0.5,1-0.9,1.6-1.2c0.7-0.3,1.4-0.3,2.1-0.2c1.3,0.1,2.3,0.8,3.2,1.6
				c0.2,0.2,0.3,0.4,0.5,0.6c0.7,0.9,1.2,2.1,1.4,3.3c0.2,0.9,0.1,1.7,0,2.6c-0.1,0.6-0.2,1.2-0.4,1.8c0,0.2-0.1,0.4-0.2,0.6
				c-0.3,0.6-0.7,1.3-0.9,2c-0.2,0.5-0.5,0.9-0.9,1.3c-0.2,0.2-0.4,0.5-0.5,0.7c0,0,0,0.1,0,0.1c0,0,0.1,0,0.1,0
				c0.4-0.2,0.8-0.4,1.2-0.5c0.2-0.1,3.1-1.3,3.2-1.4l0.5-0.4c0.1-0.1,0.2-0.2,0.2-0.3c0.2-0.5,0.5-0.9,1-1c0.5-0.2,1-0.2,1.4,0.1
				c0.4,0.2,0.7,0.6,0.8,1c0.3,1-0.1,1.7-0.7,2.4c-0.5,0.5-1,0.9-1.6,1.2c-0.6,0.4-3.4,1.6-4,1.8c-0.1,0-0.1,0-0.2,0
				c-0.3,0.1-0.3,0.2-0.1,0.4l0.3,0.3c0.4,0.4,0.8,0.8,1.1,1.3c0.2,0.4,0.5,0.8,0.7,1.1c0.3,0.7,0.6,1.3,0.7,2c0,0.1,0,0.2,0.1,0.3
				c0.2,0.4,0.2,0.9,0.2,1.3c0,0.3,0,0.6,0,0.9c-0.1,0.7-0.3,1.3-0.8,1.8c-0.4,0.5-0.8,0.9-1.3,1.2c-0.4,0.3-0.9,0.5-1.5,0.5
				C292.2,85.6,291.9,85.6,291.5,85.6z M287.6,69.9l0.2-0.2c0.5-0.4,0.7-0.9,1.2-1.3c0.2-0.1,0.3-0.2,0.3-0.4
				c0.1-0.3,0.3-0.7,0.5-0.9c0.1-0.1,0.1-0.2,0.2-0.4c0.4-0.7,0.6-1.4,0.8-2.2c0.2-0.9,0.2-1.8-0.1-2.6c-0.1-0.3-0.2-0.6-0.4-0.8
				c-0.3-0.4-0.7-0.7-1.2-1c-0.3-0.2-0.8-0.1-1,0.2c-0.3,0.3-0.5,0.7-0.6,1.1c-0.3,0.9-0.5,1.9-0.5,2.8c0,0.4,0,0.8,0,1.2
				c-0.1,0.4-0.1,0.9,0,1.4c0,0.2,0.1,0.4,0.1,0.6c0,0.8,0.2,1.6,0.2,2.4c0,0.1,0,0.3,0.1,0.3C287.5,70.1,287.6,70,287.6,69.9z
				 M292.8,81.2c0-0.4,0-0.8-0.2-1.2c-0.1-0.2-0.1-0.3-0.2-0.5l0,0c0-0.1-0.1-0.2-0.1-0.3c-0.2-0.6-0.6-1.2-1-1.7
				c-0.3-0.2-0.5-0.5-0.7-0.7c-0.1-0.1-0.2-0.2-0.2-0.3c-0.5-0.4-1-0.7-1.5-1.1c-0.1,0-0.1-0.1-0.2-0.1c0,0-0.2-0.1-0.2,0
				c-0.1,0.1,0,0.1,0,0.2c0.1,0.2,0.1,0.4,0.1,0.6c0,0.3,0.1,0.5,0.2,0.7c0.1,0.3,0.2,0.6,0.3,0.9c0,0.1,0.1,0.3,0.1,0.4
				c0.4,0.9,0.8,1.8,1.2,2.7c0,0.1,0.1,0.2,0.2,0.2c0.2,0.3,0.5,0.6,0.8,0.9c0.4,0.4,0.7,0.3,1.1,0
				C292.6,81.7,292.7,81.5,292.8,81.2z"/>
		</g>
	</g>
</g>
</svg>
