<?xml version="1.0" encoding="utf-8"?>
<!-- Generator: Adobe Illustrator 29.0.1, SVG Export Plug-In . SVG Version: 9.03 Build 54978)  -->
<svg version="1.1" id="Layer_1" xmlns="http://www.w3.org/2000/svg" xmlns:xlink="http://www.w3.org/1999/xlink" x="0px" y="0px"
	 viewBox="0 0 540 260" style="enable-background:new 0 0 540 260;" xml:space="preserve">
<rect style="fill:#CB2026;" width="540" height="260"/>
<g>
	<g id="Groupe_109" transform="translate(0 0)">
		<g>
			<g id="Groupe_108">
				<path id="Tracé_992" style="fill:none;stroke:#010101;stroke-width:1.4;stroke-linecap:round;stroke-linejoin:round;" d="
					M360.9,105.6c6.4-2.9,12.6-6.2,18.6-9.7c-1,5.3-2.4,10.5-4,15.6c6.5,0.9,12.9,2,19.2,3.4c-4.8,5.8-10,11.3-15.5,16.4
					c8.2,3.5,16.1,7.8,23.6,12.7l-24,7.5c4,7.2,7.6,14.6,11,22.2l-14.7-0.4c-0.3,0-0.6,0-0.9,0.2c-0.2,0.3-0.3,0.6-0.3,1
					c-0.2,5.3-0.4,10.6-0.6,15.8c-5.1-2.9-10-6.3-14.5-10"/>
			</g>
		</g>
	</g>
	<g id="Groupe_116" transform="translate(22.734 62.713)">
		<g>
			<g id="Groupe_115" transform="translate(0 0)">
				<path id="Tracé_997" style="fill:#FFFFFF;" d="M387.3,136.8L387.3,136.8c0.1,0,0.1,0,0.1-0.1l14.4-22.4c0,0,0-0.1,0-0.1
					c0,0,0-0.1-0.1-0.1l-31.3-18.5c-0.1,0-0.1,0-0.2,0l-11.7,18.4c0,0.1,0,0.1,0,0.2L387.3,136.8
					C387.2,136.8,387.3,136.8,387.3,136.8"/>
				<path id="Tracé_998" style="fill:none;stroke:#010101;stroke-width:0.99;stroke-miterlimit:10;" d="M387.3,136.8L387.3,136.8
					c0.1,0,0.1,0,0.1-0.1l14.4-22.4c0,0,0-0.1,0-0.1c0,0,0-0.1-0.1-0.1l-31.3-18.5c-0.1,0-0.1,0-0.2,0l-11.7,18.4c0,0.1,0,0.1,0,0.2
					L387.3,136.8C387.2,136.8,387.3,136.8,387.3,136.8z"/>
				<path id="Tracé_999" style="fill:none;stroke:#010101;stroke-width:0.99;stroke-miterlimit:10;" d="M401.8,114.4l-24,0.3
					l-7.6-18.9"/>
			</g>
		</g>
	</g>
	<g id="Groupe_123" transform="translate(60.132 48.14)">
		<g>
			<g id="Groupe_122_00000100369373798800065790000012486401425069531542_">
				<path id="Tracé_1005_00000107555632809645509780000010135565368638056842_" style="fill:#FFFFFF;" d="M371.5,107
					c-2.5-0.7-4.4-3.4-4.9-6.8l-0.3-1.8l-0.3,1.8c-0.5,3.4-2.5,6-4.9,6.8l-1.3,0.4l1.3,0.4c2.5,0.7,4.4,3.4,4.9,6.8l0.3,1.8l0.3-1.8
					c0.5-3.4,2.5-6,4.9-6.8l1.3-0.4L371.5,107z"/>
				
					<path id="Tracé_1006_00000080923572660078989840000015713270216963452560_" style="fill:none;stroke:#020303;stroke-linecap:round;stroke-miterlimit:10;" d="
					M371.5,107c-2.5-0.7-4.4-3.4-4.9-6.8l-0.3-1.8l-0.3,1.8c-0.5,3.4-2.5,6-4.9,6.8l-1.3,0.4l1.3,0.4c2.5,0.7,4.4,3.4,4.9,6.8
					l0.3,1.8l0.3-1.8c0.5-3.4,2.5-6,4.9-6.8l1.3-0.4L371.5,107z"/>
				<path id="Tracé_1007_00000071549408590475277100000003176098164869302171_" style="fill:#FFFFFF;" d="M371.5,107
					c-2.5-0.7-4.4-3.4-4.9-6.8l-0.3-1.8l-0.3,1.8c-0.5,3.4-2.5,6-4.9,6.8l-1.3,0.4l1.3,0.4c2.5,0.7,4.4,3.4,4.9,6.8l0.3,1.8l0.3-1.8
					c0.5-3.4,2.5-6,4.9-6.8l1.3-0.4L371.5,107z"/>
				
					<path id="Tracé_1008_00000122678506862282832530000009809723037732588696_" style="fill:none;stroke:#020303;stroke-linecap:round;stroke-miterlimit:10;" d="
					M371.5,107c-2.5-0.7-4.4-3.4-4.9-6.8l-0.3-1.8l-0.3,1.8c-0.5,3.4-2.5,6-4.9,6.8l-1.3,0.4l1.3,0.4c2.5,0.7,4.4,3.4,4.9,6.8
					l0.3,1.8l0.3-1.8c0.5-3.4,2.5-6,4.9-6.8l1.3-0.4L371.5,107z"/>
			</g>
		</g>
	</g>
	<g id="Groupe_127" transform="translate(79.65 62.713)">
		<g>
			<g id="Groupe_125_00000171682423193567180420000003663940973253223818_" transform="translate(0 0)">
				
					<path id="Tracé_1009_00000043417944554106567650000018439165192144031662_" style="fill:none;stroke:#010101;stroke-linecap:round;stroke-linejoin:round;" d="
					M364.3,112.9c-0.6,0-1.7,0-2.2,0"/>
				
					<path id="Tracé_1010_00000147939531641032845460000016248142787729894542_" style="fill:none;stroke:#010101;stroke-linecap:round;stroke-linejoin:round;" d="
					M361.1,109.7c0,0.6-0.1,1.8-0.1,2.4"/>
				
					<path id="Tracé_1011_00000098203719234794281610000002537146589891515787_" style="fill:none;stroke:#010101;stroke-linecap:round;stroke-linejoin:round;" d="
					M360.7,112.8l-2.1,0"/>
				
					<path id="Tracé_1012_00000023274296261714196820000016778027256211882403_" style="fill:none;stroke:#010101;stroke-linecap:round;stroke-linejoin:round;" d="
					M361.3,113.7c0,0.7-0.1,1.8-0.1,2.5"/>
				
					<path id="Tracé_1013_00000007407990831624550100000011556322789025308603_" style="fill:none;stroke:#010101;stroke-linecap:round;stroke-linejoin:round;" d="
					M380.4,98.8c-0.6,0-1.7,0-2.2,0"/>
				
					<path id="Tracé_1014_00000049913467674627092040000009541591454696073906_" style="fill:none;stroke:#010101;stroke-linecap:round;stroke-linejoin:round;" d="
					M377.2,95.7c0,0.6-0.1,1.8-0.1,2.4"/>
				
					<path id="Tracé_1015_00000067956998937010136800000002044334449474474942_" style="fill:none;stroke:#010101;stroke-linecap:round;stroke-linejoin:round;" d="
					M376.8,98.7l-2.1,0"/>
				
					<path id="Tracé_1016_00000072960825407605085570000014770050575824151431_" style="fill:none;stroke:#010101;stroke-linecap:round;stroke-linejoin:round;" d="
					M377.4,99.7c0,0.7-0.1,1.8-0.1,2.5"/>
				
					<path id="Tracé_1017_00000147194084863506573430000005835078077255765388_" style="fill:none;stroke:#010101;stroke-linecap:round;stroke-linejoin:round;" d="
					M369.6,123.4c0,0.5-0.1,1.8-0.2,2.3"/>
				
					<path id="Tracé_1018_00000039853057142631576030000007076076502103564197_" style="fill:none;stroke:#010101;stroke-linecap:round;stroke-linejoin:round;" d="
					M372.6,126.7l-2.3,0.1"/>
				
					<path id="Tracé_1019_00000121254119039797517420000003468201943530085776_" style="fill:none;stroke:#010101;stroke-linecap:round;stroke-linejoin:round;" d="
					M369.1,126.8l-2.3,0.1"/>
				
					<path id="Tracé_1020_00000128453885453008506170000006511767403249123244_" style="fill:none;stroke:#010101;stroke-linecap:round;stroke-linejoin:round;" d="
					M369.8,127.6c0,0.8-0.1,2-0.1,2.7"/>
			</g>
		</g>
	</g>
	<g id="Groupe_130" transform="matrix(-0.588, -0.809, 0.809, -0.588, 115.147, 77.131)">
		<g>
			<g id="Groupe_128_00000096038709540270979040000004533117947681203073_">
				
					<path id="Tracé_1021_00000062166651062851155600000007963447601906412436_" style="fill:none;stroke:#FFFFFF;stroke-width:1.0001;stroke-miterlimit:10.0011;" d="
					M-250.2,233.9c-8,13.7-21.1,23.7-36.5,27.6"/>
				
					<path id="Tracé_1022_00000070824856411694981160000005149414524806825375_" style="fill:none;stroke:#FFFFFF;stroke-width:1.0001;stroke-miterlimit:10.0011;" d="
					M-283.2,254.4l-3.5,7.1l6.6,2.5"/>
				
					<path id="Tracé_1023_00000160874909059095718170000009774857730983013269_" style="fill:none;stroke:#B7B9BA;stroke-width:1.5002;stroke-miterlimit:10.0011;" d="
					M-247.2,241c-4.7,11.1-14.3,19.4-26,22.3"/>
			</g>
		</g>
	</g>
	<g id="Groupe_111_00000111909918806972889660000012698056074330530975_" transform="translate(78.455 47.5)">
		<g>
			<g id="Groupe_110_00000155145288412497045880000007999507229176419247_">
				
					<path id="Tracé_993_00000088828096873475196580000003803530301471551364_" style="fill:none;stroke:#010101;stroke-width:1.4;stroke-linecap:round;stroke-linejoin:round;" d="
					M51.6,117.8l7.9-16.5l-15.7-8.2c4.1-5.4,8.9-9.7,13.5-14.6L42.5,60.7c7.2,1.5,14.3,3.4,21.2,5.8"/>
				
					<path id="Tracé_994_00000055678473963488808570000007631412166949337220_" style="fill:none;stroke:#010101;stroke-width:1.4;stroke-linecap:round;stroke-linejoin:round;" d="
					M65.9,116.1c-4.7,1.2-9.5,1.8-14.3,1.7"/>
			</g>
		</g>
	</g>
	<g id="Groupe_118_00000163785679515384403150000017274929347201077156_" transform="translate(41.509 0)">
		<g>
			<g id="Groupe_117_00000061437674429777338730000000544408728567497635_">
				<path id="Tracé_1000_00000170275201894527587560000006463876618019808401_" style="fill:#FFFFFF;" d="M64.3,99.5
					C64.2,99.5,64.2,99.5,64.3,99.5L42.3,74.9c0,0,0-0.1,0-0.1c0,0,0-0.1,0.1-0.1l19.4-14.2c0.1,0,0.1,0,0.2,0c0,0,0,0,0,0
					l18.4,27.2c0,0.1,0,0.1,0,0.2L64.3,99.5C64.3,99.5,64.3,99.5,64.3,99.5"/>
				
					<path id="Tracé_1001_00000094595263701255264400000011982550150794810000_" style="fill:none;stroke:#010101;stroke-width:0.99;stroke-miterlimit:10;" d="
					M64.3,99.5C64.2,99.5,64.2,99.5,64.3,99.5L42.3,74.9c0,0,0-0.1,0-0.1c0,0,0-0.1,0.1-0.1l19.4-14.2c0.1,0,0.1,0,0.2,0
					c0,0,0,0,0,0l18.4,27.2c0,0.1,0,0.1,0,0.2L64.3,99.5C64.3,99.5,64.3,99.5,64.3,99.5z"/>
				
					<path id="Tracé_1002_00000053538164929502884900000008799941415865165194_" style="fill:none;stroke:#010101;stroke-width:0.99;stroke-miterlimit:10;" d="
					M61.8,60.6V81l18.5,7"/>
			</g>
		</g>
	</g>
	<g id="Groupe_121_00000040574986462275302370000017186450358848770690_" transform="translate(99.254 107.089)">
		<path id="Tracé_1003_00000122718857604503928920000003777975928979312266_" style="fill:#FFFFFF;" d="M57.8,83.7l-4.1-5.8
			l-7.6,8.7l-3.6-3.3l7.3-8.6l-6.1-3.4l21.4-10.4L57.8,83.7z"/>
		<g id="Groupe_120_00000097477922134951466860000013584733629512317598_" transform="translate(0 0)">
			<g>
				<g id="Groupe_119_00000075151684074144753310000017776705132062329472_">
					
						<path id="Tracé_1004_00000129189505135059796410000013433458035310683039_" style="fill:none;stroke:#020303;stroke-linecap:round;stroke-miterlimit:10;" d="
						M65.1,60.9L43.7,71.3l6.1,3.4l-7.3,8.6l3.6,3.3l7.6-8.7l4.1,5.8L65.1,60.9z"/>
				</g>
			</g>
		</g>
	</g>
	<g id="Groupe_124_00000016786002592341796890000007914555170454896550_" transform="translate(24.991 55.368)">
		<g>
			<g id="Groupe_122_00000025440923394911498130000004083424401519200640_">
				<path id="Tracé_1005_00000093149459273180804760000007611862821391242896_" style="fill:#FFFFFF;" d="M55.3,71.7
					c-2.5-0.7-4.4-3.4-4.9-6.8l-0.3-1.8L49.8,65c-0.5,3.4-2.5,6-4.9,6.8l-1.3,0.4l1.3,0.4c2.5,0.7,4.4,3.4,4.9,6.8l0.3,1.8l0.3-1.8
					c0.5-3.4,2.5-6,4.9-6.8l1.3-0.4L55.3,71.7z"/>
				
					<path id="Tracé_1006_00000083062137585773711550000013894917578630558109_" style="fill:none;stroke:#020303;stroke-linecap:round;stroke-miterlimit:10;" d="
					M55.3,71.7c-2.5-0.7-4.4-3.4-4.9-6.8l-0.3-1.8L49.8,65c-0.5,3.4-2.5,6-4.9,6.8l-1.3,0.4l1.3,0.4c2.5,0.7,4.4,3.4,4.9,6.8
					l0.3,1.8l0.3-1.8c0.5-3.4,2.5-6,4.9-6.8l1.3-0.4L55.3,71.7z"/>
				<path id="Tracé_1007_00000006701165590003594700000011156674099450382757_" style="fill:#FFFFFF;" d="M55.3,71.7
					c-2.5-0.7-4.4-3.4-4.9-6.8l-0.3-1.8L49.8,65c-0.5,3.4-2.5,6-4.9,6.8l-1.3,0.4l1.3,0.4c2.5,0.7,4.4,3.4,4.9,6.8l0.3,1.8l0.3-1.8
					c0.5-3.4,2.5-6,4.9-6.8l1.3-0.4L55.3,71.7z"/>
				
					<path id="Tracé_1008_00000134956661932724565790000005544574196644812172_" style="fill:none;stroke:#020303;stroke-linecap:round;stroke-miterlimit:10;" d="
					M55.3,71.7c-2.5-0.7-4.4-3.4-4.9-6.8l-0.3-1.8L49.8,65c-0.5,3.4-2.5,6-4.9,6.8l-1.3,0.4l1.3,0.4c2.5,0.7,4.4,3.4,4.9,6.8
					l0.3,1.8l0.3-1.8c0.5-3.4,2.5-6,4.9-6.8l1.3-0.4L55.3,71.7z"/>
			</g>
		</g>
	</g>
	<g id="Groupe_126_00000069373139695021084460000007208114436366797729_" transform="translate(52.634 44.068)">
		<g>
			<g id="Groupe_125_00000008868262068448055900000007450793221297372586_">
				
					<path id="Tracé_1009_00000051352313324402949730000002445236343176190604_" style="fill:none;stroke:#010101;stroke-linecap:round;stroke-linejoin:round;" d="
					M58.4,77.7c0.6,0,1.7,0,2.2,0"/>
				
					<path id="Tracé_1010_00000071544577273844005600000006623978241941242270_" style="fill:none;stroke:#010101;stroke-linecap:round;stroke-linejoin:round;" d="
					M61.6,74.5c0,0.6,0.1,1.8,0.1,2.4"/>
				
					<path id="Tracé_1011_00000003817764294738586710000012480058613286430336_" style="fill:none;stroke:#010101;stroke-linecap:round;stroke-linejoin:round;" d="
					M62,77.6l2.1,0"/>
				
					<path id="Tracé_1012_00000152954447359218889640000003490630225880125853_" style="fill:none;stroke:#010101;stroke-linecap:round;stroke-linejoin:round;" d="
					M61.4,78.5c0,0.7,0.1,1.8,0.1,2.5"/>
				
					<path id="Tracé_1013_00000183940726738417387810000001890140093739502481_" style="fill:none;stroke:#010101;stroke-linecap:round;stroke-linejoin:round;" d="
					M42.3,63.6c0.6,0,1.7,0,2.2,0"/>
				
					<path id="Tracé_1014_00000169558217974513658200000018106385360136299708_" style="fill:none;stroke:#010101;stroke-linecap:round;stroke-linejoin:round;" d="
					M45.5,60.5c0,0.6,0.1,1.8,0.1,2.4"/>
				
					<path id="Tracé_1015_00000179610881620630470350000007813508639028446620_" style="fill:none;stroke:#010101;stroke-linecap:round;stroke-linejoin:round;" d="
					M45.9,63.5l2.1,0"/>
				
					<path id="Tracé_1016_00000032642275785883578550000013672193578176767619_" style="fill:none;stroke:#010101;stroke-linecap:round;stroke-linejoin:round;" d="
					M45.3,64.5c0,0.7,0.1,1.8,0.1,2.5"/>
				
					<path id="Tracé_1017_00000090973025017383195880000004436649484719508373_" style="fill:none;stroke:#010101;stroke-linecap:round;stroke-linejoin:round;" d="
					M53.1,88.2c0,0.5,0.1,1.8,0.2,2.3"/>
				
					<path id="Tracé_1018_00000156587878841704841000000009025165931159316868_" style="fill:none;stroke:#010101;stroke-linecap:round;stroke-linejoin:round;" d="
					M50.1,91.5l2.3,0.1"/>
				
					<path id="Tracé_1019_00000154408932976483010950000002692504069023279770_" style="fill:none;stroke:#010101;stroke-linecap:round;stroke-linejoin:round;" d="
					M53.5,91.6l2.3,0.1"/>
				
					<path id="Tracé_1020_00000038376984265549213570000010388164404428026020_" style="fill:none;stroke:#010101;stroke-linecap:round;stroke-linejoin:round;" d="
					M52.9,92.4c0,0.8,0.1,2,0.1,2.7"/>
			</g>
		</g>
	</g>
	<g id="Groupe_129_00000147216117517571059290000002684020251737353104_" transform="translate(29.528 64.853) rotate(73)">
		<g>
			<g id="Groupe_128_00000121276726692314931820000004531712157324291230_">
				
					<path id="Tracé_1021_00000093146853208235908730000007518773902462126499_" style="fill:none;stroke:#FFFFFF;stroke-width:1;stroke-miterlimit:10;" d="
					M106.8-22.2C98.9-8.5,85.7,1.5,70.3,5.4"/>
				
					<path id="Tracé_1022_00000175284329015462274150000015919334132534979501_" style="fill:none;stroke:#FFFFFF;stroke-width:1;stroke-miterlimit:10;" d="
					M73.8-1.7l-3.5,7.1L76.9,8"/>
				
					<path id="Tracé_1023_00000130644165857266636670000010804207928073141950_" style="fill:none;stroke:#B7B9BA;stroke-width:1.5;stroke-miterlimit:10;" d="
					M109.9-15.1C105.2-4,95.6,4.3,83.9,7.2"/>
			</g>
		</g>
	</g>
</g>
</svg>
