<?xml version="1.0" encoding="UTF-8"?>
<svg id="Layer_1" xmlns="http://www.w3.org/2000/svg" version="1.1" viewBox="0 0 353.9 325.8">
  <!-- Generator: Adobe Illustrator 29.0.1, SVG Export Plug-In . SVG Version: 2.1.0 Build 192)  -->
  <defs>
    <style>
      .st0, .st1 {
        fill: #010101;
      }

      .st1, .st2 {
        stroke: #010101;
        stroke-linecap: round;
        stroke-linejoin: round;
        stroke-width: 1.6px;
      }

      .st3 {
        fill: #cb2026;
      }

      .st4 {
        fill: #fff;
      }

      .st2 {
        fill: none;
      }

      .st5 {
        fill: #bdbec0;
      }
    </style>
  </defs>
  <path class="st5" d="M73.1,71.8c25.4-11.8,48.1-22.5,58.3-44.2-.9-2.9-6.3-3.2-16.8-.9,1.1-14-.3-21.2-19.8-22.6S38.9,42.3,29.8,52.1c-9.3,9.9-3.8,38.2-1,44.8s20.7,1.9,20.7,1.9c0,0,4.2-5.8,2.5.8,9.5-7.2,16.4-16.9,21.1-27.8Z"/>
  <path class="st4" d="M328.7,96.3s-28.3-74.6-32.7-86.8c-4.5-12.2-13.2-6.7-13.2-6.7l-20.5,8.3s-6.7-10.2-6.7-1.2c-3.9-8.4-9.4-2.6-9.4-2.6,0,0-6.9-6.6-7.1,1.1-1.1-2.7-7.5-4.4-8,4.7-10.2,3.4-8.7,13.2-8.7,13.2,0,0-14,3.1-13.1,11,0-2.6-7.3,5.4-11.5,11.6s-1.5,10.7-1.5,10.7c0,0-3.9,15.8-34.2,40.9,3.5-30.7-15.2-51.4-34.1-64.4,2-3.4,1.8-1.1,1.2-3-15.7,19.2-47.1,37.1-56,37.5-4.7,10.9-11.8,21.8-21.3,29-.2.9-1,3.2-1.4,4.7-4.3,24.4,18.7,17.5,18.7,17.5l8.8,1.6s-7,1.4-5.7,15.8c-3.4,2.2-9.4,19.3-9.4,19.3l-36.9,53.1s-9.1,5.7-24.2,59.2c-11.3,53.9,54.8,57.8,104.7,53.8,49.9-4,51.5-75.2,50-83.5s50.6-155.4,50.6-155.4l15.3-2.2s.2-.5,10,22.9c2.6,6.3,7.6,14.3,11.5,24.6,6,16,26.6,3.2,26.6,3.2l49-18.4c19.7-6.8,9.2-19.5,9.2-19.5Z"/>
  <path class="st3" d="M80.1,124.5l-3.6-.9s-6.1,7.2-4.2,15.5c-5.4,5.5-14.8,18.1,2.3,22.3,5.6-12.1,8.3-18.6,17.2-15.5,6.1-3.8-7.4-20.4-7.4-20.4,0,0-4.3-1-4.3-1Z"/>
  <path class="st3" d="M116.6,138.2s-6.1,7.6-4.6,9.4c4.7.5,9,5.2,7.8,15.1-5.2,20.3-6.5,21.4-9.6,23.1-6.7,42.4-6.7,43.9-6.7,43.9l20.1-26s4.6-29.4,3.8-31.1c16.7,2.3,17.8-.5,25.2-14.9s-6.4-29.9-6.4-29.9c0,0-10.7,7.7-15.5,7.3l-.4,4.9-4.5,4.9-9.2-6.7h0Z"/>
  <g>
    <g>
      <path class="st0" d="M66.3,147.1l.3,8.2,2.2,3.4,6.9,2.4-2.7,10.7,2.4,6.9,9.4,4.4,13.7,3.3,11.1-.6c-.7,8.8-.9,29.5-2.8,38.8,0,.4-4.8,26.8-4.8,26.8l-9.8,26.8c-.3,1.3-11.7,9.6-11.7,9.6-16.3,10.5-31.1,5.2-46.6-13.6-4.8-5.8-11.7-22-14.1-34.9-6.3-34.4,11.9-85.3,46.5-92.2h0Z"/>
      <path class="st0" d="M162,99.2c3.8-3.3,32.3-35.2,35.7-41.1l6.7,3.1,12.3,5.4c1.8,4.3,7.8,12.8,5.8,17-12.7,26.8-36.7,62.6-45.4,90.4-1.9,6.1-1.2-1.8-.5,13.9,1.6,33.5,13.8,73.7,9.1,88.1-11.3,34.9-44.6,24-53.8-1.1-3.5-9.5,16.5-31.4,7.9-72.7-.9-4.4,8.1-23.6,8.1-23.6,0,0,3.9-15.7,3.9-19s1-13.2,1-13.2l-1.9-11.9-5.5-6.7,9-7.4,5.1-10.3,2.5-10.9h0Z"/>
      <path class="st0" d="M235.8,27.9l-14.5,7.1-2.9,3.9c-1.3,2.2,21.5,60,22.8,63.9,1.7,3.8,7.5,18.3,10.3,21.2l5.8.6,29.9-11.6c3-1.4,26.4-9.9,28.2-12l2.9-3.8-31.1-78.6c-1.1-1.7-4.1-6.5-5.8-7.7-6.1,2-21,8.3-27,10.9l-3.4,1.7-2.1,5.1-2.2.3-2.6-2.2-1.9,2.9-3,.9-3.4-2.6h0Z"/>
      <path class="st0" d="M129.4,92l10,1.8,7.4-1.9,1.9,15.2-.2,10.8-1.9,2.8-4,2.1-6.4-.6-3.6-2-3.2-4.1c-2.7-13.4-3.5-11.5,0-24.1Z"/>
      <path class="st0" d="M47.3,99.7c6.3-6.7,17.5-22.6,24.4-28.7l2.6.2-3.6,9.4-1.1,9.9,2.4,9-5.2,1-6.6-3.2-5.4.7-3.9,5.1s-3.6-3.4-3.6-3.4Z"/>
      <path class="st2" d="M48.8,98.6c-6.6.6-19,5.1-20.9-4.1-3-12.7-5.1-27.1-.3-39.5,7.5-11,18.9-19,28-28.6,6.4-6.2,13-12.4,20.8-16.7,18.9-10.8,46.6-7.1,37.6,18.6"/>
      <path class="st2" d="M109.2,31.8c-5.8,4.5-41.6,33.7-36,39.3,12.6-2.7,23.7-11.4,34.5-18.4,5.1-2.4,34.5-26.4,19.3-28-6.5,0-13,2.6-17.8,7.1"/>
      <path class="st2" d="M73.1,69.8c-9.8,8.4-16.5,20.1-25.5,29"/>
      <path class="st2" d="M64,98.8c-11.6-6.9-19.3,12-10.9,19.5,6.4,7.8,22.9,4.6,20.7-7"/>
      <path class="st2" d="M74.9,71.1c-4.6,9.3-8.7,20.4-2,28.5"/>
      <path class="st2" d="M62.9,98.2c2.8,1.9,7,2.9,10,1.3"/>
      <path class="st2" d="M91,152.4c4.7-5.9,1.4-11.9-.4-18.5-3.7-14.5-6-43.3-2.8-44.7,5.2-2.2,5.4,21.9,7.1,27.8.5-6.4-3.8-29.9.8-31.9,6.2,2.2,5.1,23.6,7,30.3-5.8-31.5,4.8-35.8,6.1-1.2-.3-6.7-2.2-19.4.4-19.9,3.9-.8,4.1,5.1,4.5,7.9,1.3,11,3.2,22.3,2.9,33.3-1.1,5.3-5.2,9.6-5.5,15.1,0,2.4,0,4.9-.3,5.4"/>
      <path class="st2" d="M128,35.7c20.5,13.3,36.7,36,33.8,61.4-.9,22.1-21.4,43.6-44.3,36.7"/>
      <path class="st2" d="M129.9,58.7c7.7,6.4,27.6,9.1,12,21"/>
      <path class="st2" d="M110.5,61.8c1.8,2.6,3.3,5.3,4.8,8.1"/>
      <path class="st2" d="M135.2,50.7c1.6,2.3,2.9,4.7,3.9,7.3"/>
      <path class="st2" d="M144.2,83.6c-25.2-2.5-22,49.3,2.1,37.1"/>
      <path class="st2" d="M145,83.6c2.9.2,2.9,4.3,2.3,6.4-2.8,5.1-11.6,4.8-16.1,2.5"/>
      <path class="st2" d="M147.6,88.6c-.7,8.1,3.7,26.1-.7,31.8"/>
      <path class="st2" d="M86.3,110.3c-9.9,2.8-1.6,16.1,2.2,21.5,1,1.2,2.3,2.3,2.4,3.9"/>
      <path class="st2" d="M88.6,150.7c-.6,4.6,19.9,6.8,23.3,7"/>
      <path class="st2" d="M92.1,146c-4.5-1-11.3-.2-12.9,5-2.6,7.1-10.5,26.7-.2,29.9,7.6,3,28.4,9,34.4,2.5,5.2-6.1,12-36.2-1.2-35.9"/>
      <path class="st2" d="M73.9,177.8c-6.1,18.6-16.3,35.7-22.3,54.3"/>
      <path class="st2" d="M131.2,135c-.4,1.9-.3,3-.8,4.9"/>
      <path class="st2" d="M74.6,115.4c2.5,2.1,3.9,3,6.8,4.4"/>
      <path class="st2" d="M69.2,121.4c4.8,1.8,10.1,2.4,15.1,3.9"/>
      <path class="st2" d="M47.4,99.2c.9,1.3,2,2.5,3.1,3.6"/>
      <path class="st2" d="M75.9,125.3c-5.9,6.8-5.6,19.2,2.4,24.3"/>
      <path class="st2" d="M71.2,139.7c-5.7,5.9-8,20.4,3.2,20.7"/>
      <path class="st2" d="M116.6,139.1c5.6,3.3,10.5,7.8,14.3,13.2"/>
      <path class="st2" d="M125.7,144.8c2.5-2.2,4.7-5.2,7.8-6.6"/>
      <path class="st2" d="M145.8,129.3c6.5,4.4,6.3,15.8,6.7,23-.1,10.2-7.2,21.2-18.1,21.7-5.3-.5-10.3-3.1-15.6-3.7"/>
      <path class="st2" d="M66.3,147.1c-46,14-58.3,77.5-38.9,115.8"/>
      <path class="st2" d="M240.3,11.1"/>
      <path class="st2" d="M233,7.9c6-7.7,11.6,14.8,9.7,20-3,5.5-7.9-1.3-10.2-6.4-.7-1.6-1.1-3.4-1.2-5.1v-2.7c-.2-2,.4-4.1,1.7-5.8Z"/>
      <path class="st2" d="M239.2,8.4c3-10.9,9.8,3.7,10.6,8.8,2,5.8.3,16.2-6.2,8.8"/>
      <path class="st2" d="M247.2,5.9c6.5-6.1,11.3,7.3,8.5,13-.4,1.2-3.2,5.9-4.1,3.7"/>
      <path class="st2" d="M256.4,6.5c7.6-1,8.3,14.3,0,11.7"/>
      <path class="st2" d="M262.9,11c7.4-3.4,14.9-6.5,22.6-9.1"/>
      <path class="st2" d="M244.4,131.9c-6.4-14.1-47-94.3-31.7-101.3l1.9-1.1c6.2-2.5,11.1-4.7,17.1-7.6"/>
      <path class="st2" d="M245.4,133.5c1.8,4.6,7.8,7.3,13.3,4.9,19.6-6.9,30.5-10.4,50-18.3,5.5-2.2,26.4-8,21.6-19.3l-1.6-4.5c-9.3-24.6-19.8-51.5-30.6-80.8-2-5.5-4.7-16.6-12.6-13.6"/>
      <path class="st1" d="M288.6,117c-2.4,0-2.7,3.2-1.2,4.5,4.2,2.4,5.4-5.8.6-4.4"/>
      <path class="st2" d="M235,28.2c-4.4,2.7-16.7,5.7-15.9,11.8,6.7,27.2,17.8,53.7,29.5,79.2,4.5,9.9,15.8,1.7,23.1-.2,14.2-5.6,28.9-10.1,42.5-17.1"/>
      <path class="st2" d="M252.3,23.6c8.4-5,17.4-9,26.8-11.8,3-1.3,5.4.7,6.4,3.6,11.6,25.7,22,52,31.2,78.6,2.5,4.9-.4,7.9-6,9.6"/>
      <path class="st2" d="M222.3,24.7c.1-8,1.9-7.8,8.3-11.4"/>
      <path class="st2" d="M209.7,35c-5.8,4.6-11.1,11.4-14.1,18.3-4.2,7.5,9.3,6.8,20.2,12.9"/>
      <path class="st2" d="M196.7,58.6c-9.7,16.5-21.1,24.9-34,38.9"/>
      <path class="st2" d="M58.9,105.1c1.4,3.6,3.7,6.9,6.6,9.4"/>
      <path class="st2" d="M151.4,161.4c-5.9,33.1-22.1,64.2-39.3,92.7"/>
      <path class="st2" d="M141.2,172.6c-8.3,22.1-20.8,34.8-34.8,53.6"/>
      <path class="st2" d="M127.4,172.5c1.1,7.2-2.9,26.3-5.5,33.1"/>
      <path class="st2" d="M139.5,201.5c6.9,20,1.4,42.2-6.3,61.9-2.5,6.4-1.3,13.6,3,19l5.6,7c8.4,10.4,23.6,11.9,33.8,3.2h0c7.6-6.4,11.6-16.1,10.8-26-10.1-118-28.5-58.2,35.8-182.6"/>
      <path class="st2" d="M124.8,231.8c1.3,6.1,1.4,12.5.2,18.6"/>
      <path class="st2" d="M27.4,262.9c8.4,16.9,26.7,33.2,41.1,30,24.6-5.4,29.6-26,32.7-41.6,5.2-22.6,6.6-41.9,9-65"/>
      <path class="st2" d="M112,254.1c-4.5,18.6,4.5,40.3-6.2,56.2"/>
      <path class="st2" d="M18,225.1c-7.3,17.6-27.4,55.5-10.7,79.4"/>
      <path class="st2" d="M342.7,93.8c7.9,14.2-1.6,27.5-14.8,31.4"/>
      <path class="st2" d="M353.1,116.9c.4,8.6-9.5,16.9-19.4,15.7"/>
      <line class="st2" x1="153.9" y1="42" x2="159.2" y2="14.5"/>
      <line class="st2" x1="164.9" y1="45.7" x2="185.6" y2=".8"/>
      <line class="st2" x1="173.8" y1="51" x2="202.4" y2="21.3"/>
    </g>
    <g>
      <path class="st4" d="M248.3,67.6l-1.2-.6c-.5-.3-.8-.8-1.2-1.3-.7-.9-1.1-2-1.4-3.1-.3-1.1-.6-2.1-.8-3.2-.2-.9-.3-1.8-.6-2.7-.1-.4-.1-.8-.2-1.2-.1-.8-.1-1.6-.2-2.5h0c.1-.7-.1-1.3,0-1.9v-1.7c0-.8.1-1.5.2-2.3.1-.6,1-1.3,1.5-1.5.2,0,.5-.2.7-.3.5-.3,1.1-.6,1.7-.8h.3c.5-.4,1.1-.5,1.7-.8.6-.2,1.2-.4,1.7-.7.2,0,.4-.2.7-.2s.7,0,1.1-.2c.6,0,1.2,0,1.6.3.4.3.7.7.7,1.2.1.5-.1,1-.4,1.4-.3.4-.8.6-1.3.7-.2,0-.4,0-.6.2-.6.2-1.2.4-1.7.6-.7.4-1.4.6-2.2.9h-.3c-.3.2-.5.4-.8.5-.1,0-.8.6-.9.7v3.2c0,.3,0,.5.1.7.1.7,2.2-.7,2.9-1,.4-.2.9-.4,1.3-.5.1,0,.3,0,.4-.2.9-.4,2.1-.2,2.6.8.2.4.3,1,0,1.4-.2.6-.7.8-1.1,1.1-.6.3-1.2.6-1.8.8-.9.4-1.9.8-2.8,1.3-.3,0-.5.2-.8.3-.2,0,0,.5,0,.7.1,1.7,1.1,4.3,1.4,4.8l.5,1.1c.2.5.3.6.9.4.2,0,.4,0,.6-.2.7-.3,1.3-.6,1.9-1.1.8-.7,1.4-1.6,2.1-2.4.4-.6,1.1-.9,1.8-.8.5,0,1.1.4,1.4.9s.3,1.1,0,1.7c-.4.7-.8,1.3-1.3,1.8-.9,1.2-2.1,1.9-3.3,2.7-.5.3-1,.6-1.5.7-1.2.6-2.3.6-3.4.3Z"/>
      <path class="st4" d="M261.3,62.5c-.7-.2-1.1-.8-1.2-1.4,0-.2-.1-.4-.2-.6-1.3-3.7-2.4-7.8-2.3-9.1,0-.6.2-1.1.7-1.5.4-.4,1-.5,1.6-.4s1,.5,1.2,1.1c.2.5.3,1,.4,1.4,0,0,0,.2.1.3h.2v-.2c.4-.8.6-1.5.9-2.3.1-.2.1-.3.2-.5.2-.3.4-.6.5-.9.1-.2.2-.3.3-.4.3-.3.5-.6.8-.9.5-.6,1.1-.9,1.8-1.3h1.2c.3,0,.6.2.9.3h.2c.5.4,1,.8,1.3,1.4.2.4.4.7.5,1s.3.6.4,1c.4,1,.8,2.2,1.4,3.1.2.5.5,1,.9,1.5l.2.2c.1.2.2.2.3,0,.3-.4.5-.8.6-1.2.2-.7.6-2.2.7-3.1.1-1.9,0-2.7,1-3.2,1.4-.7,2.4.9,2.3,2.3,0,1.9-.4,3.8-.8,4.8-.1.3-.2.5-.3.8-.2.6-.5,1.1-.8,1.6-.4.7-1,1.2-1.7,1.5h-.3c-.6.2-1.1.2-1.7,0-.3,0-.5-.2-.8-.3-.9-.5-1.7-1.4-2.2-2.4-.2-.4-.4-.7-.5-1-.1-.2-.2-.4-.3-.6-.1-.2-.1-.4-.2-.6-.1-.2-.2-.4-.3-.6-.4-.9-.7-1.9-1.3-2.8-.1-.2-.2-.2-.3,0-.3.5-.6.9-.8,1.4h-.1c-.7,1-.8,2.1-1,3.1v.2c-.2.6-.3,1.1-.4,1.7,0,.5-.1,1.1-.3,1.7,0,.3-.1.7,0,1v1.2c.1.7-.1,1.4-.6,1.8-.8.6-1.6.7-2.2.5v.4Z"/>
    </g>
    <g>
      <path class="st4" d="M252.4,95.3c-.3,0-.6,0-.9-.2h-.3s-.1.2-.2.2c-.4.6-1.2.8-1.9.6-.4,0-.7-.4-.9-.7-.2-.2-.3-.5-.4-.8-.2-.5-.4-1.1-.6-1.7-.3-1-.6-2-.8-3-.2-.7-.4-1.4-.6-2.1-.1-.5-.3-1.1-.4-1.7,0-.3-.1-.6-.2-.8-.2-.7-.3-1.4-.4-2.1-.1-.7-.2-1.4-.3-2.1l-.5-4v-.8c0-.7-.2-1.3-.2-2s.3-1.3.9-1.7c.5-.3,1.2-.3,1.7,0s.9.9.9,1.5c.2,1.3.3,2.5.4,3.9.1.5.1,1,.1,1.5s0,.2.1.3c.1.3.1.6.2.9,0,0,0,.2.1.3.2.5.2,1,.2,1.5s.1.9.3,1.3h.2c.3-1,.9-1.6,1.3-2.4.2-.2.4-.5.7-.6.1,0,.2-.2.4-.3.6-.6,1.3-.8,2.1-1.1h.7c.4,0,.8.2,1.2.3.5.2,1,.5,1.3.9.5.4.9,1,1.2,1.5h.2c1.6-1.7,1.5-2.8,2.4-3.3.2-.2,1-.3,1.4.2.6.6.9,1.3.5,2.1-.1.3-.2.5-.3.8-.1.3-.3.6-.5.8-.3.3-.4.7-.6,1-.4.5-.7,1-1.1,1.4l-.7.7c-.1,0-.2.3-.1.5.1.7.1,1.4.1,2.1s-.1.5-.2.8c-.2.7-.4,1.4-.8,2.1h-.1c-.4.9-.9,1.5-1.5,2.1-.3.3-.6.7-1,.8-1,.8-2,1-3.1,1v.3ZM251.2,88.1h.2c.2-.3.5-.6.8-.8.7-.4,1.4-1.1,2.2-1.6.2,0,.3-.2.5-.4.2,0,.2-.2.1-.4-.2-.2-.3-.5-.4-.7-.2-.3-.4-.5-.6-.8-.2-.2-.3-.2-.5,0-.5.3-.8.7-1.1,1.1-.3.5-.5,1-.6,1.6v.2c-.3.4-.4.9-.5,1.4-.2.2-.2.4,0,.6h0v-.2ZM253.6,91.6c.8-.5,1.4-1.3,1.6-2.2,0,0,.1-.2,0-.3h-.5c-.3.3-.6.6-.9.7-.4.3-.7.7-1,1.1-.1.2-.2.4-.1.6.2.2.4,0,.6,0h.3,0Z"/>
      <path class="st4" d="M261.4,89c-.2-.3-.3-.6-.4-1s-.3-.8-.4-1.3c-.1-.8-.3-1.7-.5-2.5s-.2-.8-.2-1.2-.1-.4-.1-.5c-.1-.6-.2-1.1-.3-1.6-.1-.7-.2-1.4-.2-2.1-.1-.5-.1-.9,0-1.4.1-.4.4-.8.8-1,.5-.3,1.2-.3,1.7,0s.8.8.9,1.4v.5h.2c.1-.5.3-.9.5-1.3,0-.2.1-.3.2-.5.1-.3.4-.6.5-.9.2-.5.7-.6,1.2-.9.8-.5,1.8-.4,2.7,0,.6.2,1.1.6,1.5,1.2.4.7.6,1.4.2,2.3-.3.5-1,.8-1.6.7-.5,0-.9-.4-1.2-.9,0,0,0,0-.1-.2q-.1,0-.1.2c-.2.5-.5,1-.7,1.5-.2.4-.2.8-.3,1.2h0c-.4.8-.4,1.6-.6,2.4,0,0-.1.2-.1.3,0,.7-.2,1.4-.3,2v.3c0,.7-.1,1.4-.1,2,.1.6-.2,1.3-.7,1.7l-.4.2c-.7.5-1.6.2-2.1-.5h0Z"/>
      <path class="st4" d="M277.4,84.6h-1.2c-.2,0-.5-.2-.8-.2-.4-.2-.9-.4-1.2-.7-.6-.4-1.1-.9-1.5-1.6h-.1c-.3-.3-.5-.8-.7-1.2-.1-.3-.2-.6-.3-.9-.2-.9-.5-1.8-.3-2.7,0-.3-.1-.6,0-1,.1-.7.1-1.4.3-2.1.2-.5.4-1.1.6-1.6.1-.5.4-.9.7-1.2h.1c.2-.7.7-1.2,1.2-1.5.8-.6,1.7-.8,2.7-.6h.2c.6,0,1.2.4,1.7.7.2.2.4.3.5.5.4.6.7,1.2.9,1.9.1.5.1,1.1,0,1.7h0c-.2.5-.5,1-.7,1.4-.4.6-.8,1.1-1.4,1.5-.3.2-.5.4-.9.6-.2,0-.5.2-.7.4-.3.2-.8.4-1.1.5q-.3,0-.3.3c0,.5.3.9.5,1.3.1.3.3.6.6.8.3.3.8.4,1.2.3.6,0,1.1-.4,1.5-.8.6-.5,1.1-1,1.6-1.5.4-.4.7-.9,1.1-1.4.4-.6.8-1.3,1.1-1.9.3-.7.6-1.3.8-2,.3-.9.7-1.7.8-2.6.1-.7.6-1.3,1.3-1.4.7-.2,1.4.2,1.7.8.4.6.4,1.3.1,2-.2.4-.3.8-.3,1.3-.1.4-.2.7-.4,1-.2.5-.4,1-.6,1.5-.1.4-.2.7-.4,1-.2.3-.3.7-.5,1-.4.7-.8,1.4-1.3,2-.3.4-.6.7-.8,1.1-.2.3-.4.5-.7.7-.3.3-.6.6-.9.8-.2.2-.4.4-.6.5-.4.2-.8.4-1.2.7-.4.3-.9.5-1.4.6h-.9ZM275.6,74.3c.5-.3.8-.8.9-1.3,0-.2,0-.3-.2-.4s-.3,0-.4,0c-.3.3-.5.6-.7,1-.1.2-.2.5-.3.7-.1,0,0,.2.2,0,.2,0,.3,0,.5-.2v.2Z"/>
      <path class="st4" d="M291.5,85.6c-.4,0-.9,0-1.3-.3-.3-.2-.6-.3-.9-.5-.6-.4-1.1-.9-1.4-1.5-.1-.2-.2-.4-.4-.5-.2-.3-.4-.6-.6-1-.3-.6-.5-1.2-.8-1.7-.2-.4-.3-.8-.4-1.3-.4-.6-.4-1.5-.7-2.3-.2-.5-.3-.9-.4-1.4,0-.2-.2-.4-.4-.5-.8-.2-1.4-.8-1.7-1.6-.5-1.2-.1-2.3.9-3.1l.2-.2c.1,0,.2-.2.1-.3v-.4c-.1-.9-.2-1.8-.2-2.6s0-1.9.1-2.8c.1-1,.3-1.9.5-2.8.1-.4.3-.8.3-1.2.1,0,.1-.3.2-.4.3-.5.6-1,.9-1.5.5-.5,1-.9,1.6-1.2.7-.3,1.4-.3,2.1-.2,1.3,0,2.3.8,3.2,1.6.2.2.3.4.5.6.7.9,1.2,2.1,1.4,3.3.2.9.1,1.7,0,2.6-.1.6-.2,1.2-.4,1.8,0,.2-.1.4-.2.6-.3.6-.7,1.3-.9,2-.2.5-.5.9-.9,1.3-.2.2-.4.5-.5.7h.1c.4-.2.8-.4,1.2-.5.2,0,3.1-1.3,3.2-1.4l.5-.4c.1,0,.2-.2.2-.3.2-.5.5-.9,1-1,.5-.2,1-.2,1.4,0s.7.6.8,1c.3,1-.1,1.7-.7,2.4-.5.5-1,.9-1.6,1.2-.6.4-3.4,1.6-4,1.8h-.2c-.3,0-.3.2-.1.4l.3.3c.4.4.8.8,1.1,1.3.2.4.5.8.7,1.1.3.7.6,1.3.7,2,0,0,0,.2.1.3.2.4.2.9.2,1.3v.9c-.1.7-.3,1.3-.8,1.8-.4.5-.8.9-1.3,1.2-.4.3-.9.5-1.5.5-.5.7-.8.7-1.2.7v.2ZM287.6,69.9l.2-.2c.5-.4.7-.9,1.2-1.3.2,0,.3-.2.3-.4.1-.3.3-.7.5-.9.1,0,.1-.2.2-.4.4-.7.6-1.4.8-2.2.2-.9.2-1.8-.1-2.6-.1-.3-.2-.6-.4-.8-.3-.4-.7-.7-1.2-1-.3-.2-.8,0-1,.2-.3.3-.5.7-.6,1.1-.3.9-.5,1.9-.5,2.8v1.2c-.1.4-.1.9,0,1.4,0,.2.1.4.1.6,0,.8.2,1.6.2,2.4s0,.3.1.3c0,0,.2,0,.2-.2h0ZM292.8,81.2c0-.4,0-.8-.2-1.2s-.1-.3-.2-.5h0s-.1-.2-.1-.3c-.2-.6-.6-1.2-1-1.7-.3-.2-.5-.5-.7-.7s-.2-.2-.2-.3c-.5-.4-1-.7-1.5-1.1h-.4c-.1,0,0,0,0,.2.1.2.1.4.1.6,0,.3.1.5.2.7.1.3.2.6.3.9,0,0,.1.3.1.4.4.9.8,1.8,1.2,2.7,0,0,.1.2.2.2.2.3.5.6.8.9.4.4.7.3,1.1,0,.1-.2.2-.4.3-.7h0Z"/>
    </g>
  </g>
</svg>