<?xml version="1.0" encoding="utf-8"?>
<!-- Generator: Adobe Illustrator 29.0.1, SVG Export Plug-In . SVG Version: 9.03 Build 54978)  -->
<svg version="1.1" id="Layer_1" xmlns="http://www.w3.org/2000/svg" xmlns:xlink="http://www.w3.org/1999/xlink" x="0px" y="0px"
	 viewBox="0 0 171 111.9" style="enable-background:new 0 0 171 111.9;" xml:space="preserve">
<g>
	<g>
		<path style="fill:#B6B8BA;" d="M8.2,25.2c0,0-6-2.6-6.3,5.2C2.1,56,2.1,56,2.1,56l92,53.8l66.4-56.4l-8.5-6.1L8.2,25.2z"/>
		<g>
			<path style="fill:#FFFFFF;stroke:#010101;stroke-linecap:round;stroke-linejoin:round;" d="M157.8,47.3c1.7,0.8,3.1,1.5,4.5,2.2
				c0.8,0.4,1.6,0.7,2.3,1.1c1,0.6,1,1.2,0.1,2c-6.4,5.4-12.8,10.9-19.2,16.3c-16.3,13.9-32.6,27.7-48.8,41.6
				c-1.1,1-2.2,1.1-3.7,0.3c-15.5-9-31-17.9-46.4-27C32.3,75.4,17.9,67,3.5,58.5c-0.9-0.5-1.7-1.1-2.5-1.8c-0.3-0.3-0.5-1-0.5-1.5
				c-0.1-1.4,0-2.8,0-4.2c0.1-8.2,0.1-16.4,0.2-24.6c0-1.4,0.1-1.4,1.5-1.9C27,16.9,51.8,9.1,76.6,1.4c1.1-0.3,2.2-0.7,3.3-0.9
				c0.5-0.1,1.1,0,1.6,0.1c1.1,0.4,2.1,0.9,3.1,1.4c25.9,12.9,51.9,25.8,77.8,38.7c0.6,0.3,1.1,0.6,1.7,0.9c1.1,0.7,1.1,1.6,0,2.2
				c-1.3,0.8-2.7,1.5-4.1,2.2C159.3,46.5,158.7,46.8,157.8,47.3z M92.9,107.6c0-9.6,0-18,0-27.4C62.2,62.4,34.6,46.4,3.7,28.4
				c-0.1,9.7-0.2,18.1-0.3,27.3C34.3,73.7,62,89.6,92.9,107.6z M146.2,52.4c0,0,0-0.1-0.1-0.1c-0.4,0.2-0.8,0.3-1.2,0.5
				c-4.8,2.5-9.5,5.1-14.3,7.6c-11.1,5.9-22.2,13-33.3,18.9c-0.7,0.4-1.2,0.7-1.1,1.6c0.1,2.4,0.1,2,0.2,4.4c0,0.2,0.1,0.5,0.2,0.8
				C113.2,74.3,129.7,64,146.2,52.4z M96.4,102.1c18.7-15.2,36-29.2,54.5-44.2c-0.4-0.3-0.7-0.5-1.1-0.7c-0.4,0.3-0.7,0.5-1,0.7
				c-12.9,9.8-24.7,18.7-37.6,28.4c-4.7,3.5-9.4,7-14.1,10.4c-0.4,0.3-0.8,0.5-0.8,1.2C96.5,99.2,96.4,100.5,96.4,102.1z M96.7,93.8
				c6.2-4.7,12.4-9.4,18.5-14.1c6.2-4.7,12.4-9.3,18.5-14c6.1-4.6,12.3-9.2,18.4-13.9c-0.8-0.8-1.2-0.2-1.6,0.1
				C133.3,64,116.2,76,99.1,88.1c-0.8,0.6-2,1.1-2.4,1.9c-0.4,0.9-0.1,2.1-0.1,3.2C96.6,93.3,96.6,93.5,96.7,93.8z"/>
			<g>
				<path style="fill:#FFFFFF;" d="M40,41.4c-0.1,0-0.3,0-0.5-0.2c-0.4-0.3-0.8-0.6-1.2-0.8c-0.3-0.1-0.5-0.3-0.8-0.5
					c-0.1-0.1-0.2-0.2-0.3-0.2c0.1-0.1,0.2-0.1,0.2-0.2c3.1-1.3,6.5-2.7,9.9-4.1c0.2-0.1,0.5-0.2,0.8-0.2c0.7,0,1.3,0.4,2,0.7
					l0.4,0.2c0,0,0,0,0,0c0,0,0,0.1,0,0.1c0,0,0,0,0,0c0,0,0,0,0,0c-0.1,0.1-0.2,0.3-0.2,0.4c-0.2,0.2-0.5,0.3-0.8,0.4l-3,1.4
					c-2,0.9-4,1.8-5.9,2.8C40.3,41.4,40.1,41.4,40,41.4z"/>
				<path style="fill:#010101;" d="M48.1,35.7c0.5,0,1.1,0.3,1.7,0.6c-0.2,0.1-0.4,0.2-0.6,0.3L49,36.8c-0.9,0.4-1.9,0.9-2.8,1.3
					c-2,0.9-4,1.8-6,2.8c-0.2,0.1-0.3,0.1-0.3,0.1c0,0-0.1,0-0.2-0.1c-0.4-0.3-0.9-0.6-1.3-0.8c-0.1-0.1-0.2-0.1-0.3-0.2
					c3-1.3,6.2-2.6,9.4-3.9C47.7,35.8,47.9,35.7,48.1,35.7 M48.1,34.7c-0.3,0-0.6,0.1-0.9,0.2c-3.3,1.3-6.6,2.7-9.9,4.1
					c-0.2,0.1-0.6,0.4-0.6,0.6c0,0.2,0.3,0.5,0.5,0.7c0.6,0.4,1.4,0.7,2,1.2c0.3,0.2,0.6,0.4,0.8,0.4c0.2,0,0.5-0.1,0.7-0.2
					c2.9-1.4,5.8-2.7,8.7-4.1c0.4-0.2,0.8-0.3,1.1-0.6c0.2-0.2,0.3-0.5,0.5-0.8c-0.1-0.3-0.2-0.5-0.4-0.6
					C49.8,35.3,49,34.7,48.1,34.7L48.1,34.7z"/>
			</g>
			<g>
				<path style="fill:#FFFFFF;" d="M62.6,55.3c-0.1,0-0.1,0-0.1,0c-0.6-0.3-1.3-0.7-2-1.2c-0.1-0.1-0.2-0.2-0.2-0.3
					c0-0.1,0.1-0.2,0.3-0.4c0.1-0.1,0.3-0.2,0.4-0.2c0.1,0,0.2-0.1,0.3-0.1l2.1-1.2c2.3-1.3,4.6-2.6,6.8-3.9
					c0.2-0.1,0.4-0.2,0.5-0.2c0,0,0.1,0,0.2,0.1c0.4,0.4,0.8,0.7,1.2,1.1l0.2,0.2c0,0-0.1,0-0.1,0.1c-0.3,0.2-0.6,0.4-0.9,0.6
					c-2.7,1.7-5.4,3.5-8.2,5.3C63,55.3,62.8,55.3,62.6,55.3z"/>
				<path style="fill:#010101;" d="M70.6,48.3L70.6,48.3L70.6,48.3 M70.5,48.4c0.3,0.3,0.6,0.5,0.9,0.8c-0.2,0.1-0.3,0.2-0.4,0.3
					c-2.5,1.6-5.4,3.5-8.2,5.3c0,0-0.1,0-0.2,0c-0.5-0.2-1.1-0.6-1.7-1c0.1,0,0.2-0.1,0.2-0.1c0.1,0,0.2-0.1,0.3-0.2l2-1.2
					c2.3-1.3,4.6-2.6,6.9-3.9C70.4,48.4,70.5,48.4,70.5,48.4 M70.6,47.3c-0.2,0-0.5,0.1-0.7,0.2c-3,1.7-6,3.4-8.9,5.1
					c-0.2,0.1-0.5,0.2-0.7,0.4c-0.6,0.5-0.7,1-0.1,1.4c0.7,0.5,1.4,0.9,2.1,1.2c0.1,0,0.2,0.1,0.3,0.1c0.3,0,0.6-0.1,0.7-0.2
					c2.7-1.7,5.5-3.5,8.2-5.3c0.4-0.3,0.8-0.6,1.4-1.1c-0.7-0.7-1.3-1.2-1.9-1.7C70.9,47.4,70.8,47.3,70.6,47.3L70.6,47.3z"/>
			</g>
			<path style="fill:#B6B8BA;stroke:#010101;stroke-linecap:round;stroke-linejoin:round;" d="M94.1,14.5c-0.4,0.2-0.6,0.3-0.9,0.5
				C82.8,19.7,72.4,24.4,62,29.2c-0.9,0.4-1.6,0.4-2.5-0.1c-4.8-2.8-9.7-5.6-14.5-8.3c-0.2-0.1-0.5-0.3-0.8-0.5
				c0.5-0.2,0.8-0.4,1.2-0.5c11.1-4,22.2-8.1,33.3-12.1c0.6-0.2,1.1-0.4,1.8,0c4.3,2.2,8.7,4.4,13,6.5
				C93.6,14.2,93.8,14.4,94.1,14.5z"/>
			<path style="fill:#CB2026;stroke:#010101;stroke-linecap:round;stroke-linejoin:round;" d="M55.5,81.7
				C40.1,72.7,24.9,63.9,9.5,55c0-5.7,0-11.5,0-17.5c0.6,0.2,1.1,0.4,1.6,0.6c2.3,1.2,4.6,2.5,6.9,3.8C30.2,48.9,42.3,56,54.5,63.1
				c0.9,0.5,1.3,1.1,1.3,2.1c-0.1,5.1-0.1,10.2-0.2,15.4C55.6,80.9,55.5,81.2,55.5,81.7z"/>
		</g>
		
			<line style="fill:#FFFFFF;stroke:#010101;stroke-linecap:round;stroke-linejoin:round;" x1="96.5" y1="106" x2="161.3" y2="52.6"/>
	</g>
	
		<circle style="fill:#FFFFFF;stroke:#010101;stroke-linecap:round;stroke-linejoin:round;stroke-miterlimit:10;" cx="142.3" cy="50.3" r="28.2"/>
	<g>
		<path style="fill:#CB2026;stroke:#010101;stroke-linecap:round;stroke-linejoin:round;stroke-miterlimit:10;" d="M156.2,32.8
			c-0.1,0.7-0.3,1.4-0.5,2.1c-0.1,0.3-0.2,0.7-0.2,1.1c-0.1,1-0.3,1.9-0.7,2.9c-0.1,0.3-0.2,0.6-0.2,0.9c0,0.7-0.2,1.3-0.5,2
			c-2.2,5.9-2.8,12.2-4.7,18.2c-0.1,0.4-0.2,0.8-0.2,1.1c-0.2,1.1-0.6,2.3-1,3.4c-0.5,1.6-1.1,3-1.7,4.5c-0.2,0.4-0.4,0.8-0.8,1.1
			c-0.2,0.2-0.4,0.4-0.7,0.6c-0.8,0.8-1.8,1.4-3,1.6c-0.6,0.1-1.2,0-1.9-0.1c-1-0.4-2-1-2.7-1.7c-1-0.9-1.7-2.1-2.1-3.4
			c-0.1-0.2-0.1-0.4-0.3-0.6c0,0-0.2-0.4-0.2-0.4c-2.1-4.5-3.1-9.9-4.3-14.7c-1.3-5-2-10.2-3.3-15.2c-0.2-0.8-0.4-1.6-1-2.2
			c-0.9-0.9-2.1-0.7-2.9,0.2c-0.4,0.3-0.6,0.9-0.5,1.4c0,0.4-0.1,0.7-0.2,1c0,1.2-0.7,2.1-1.9,2.5c-1.2,0.5-2.6,0.1-3.4-0.8
			c-0.4-0.7-0.7-1.4-0.8-2.2c-0.4-3.9,2.4-8,6.3-9c3.7-1,7.8,1.1,9.6,4.5c1.4,3,2.4,6.2,3.1,9.4c1.3,6,2.4,12.1,4.2,18
			c0.3,0.9,0.6,1.9,0.9,2.9c0.1,0.4,0.4,0.9,0.5,1.4c0.1,0.2,0,0.5,0.3,0.5c0.2,0,0.2-0.3,0.3-0.5l0.2-0.6c0.2-0.8,0.5-1.6,0.8-2.4
			c0.4-0.6,0.5-1.3,0.6-2c0-0.6,0.3-1.3,0.5-1.8c0.2-0.6,0.3-1.1,0.5-1.8c0.2-0.9,0.3-1.7,0.6-2.6c1.2-3.5,2.1-7.2,2.9-10.8
			c0.4-1.8,0.8-3.5,1.3-5.3c0.3-1.3,1.2-3.1,1.1-4.4c0-0.9,0.5-1.8,1.2-2.3c1.5-1,3.4-0.7,4.5,0.8C156.1,30.9,156.4,31.9,156.2,32.8
			z"/>
	</g>
</g>
</svg>
