<svg xmlns="http://www.w3.org/2000/svg" xmlns:xlink="http://www.w3.org/1999/xlink" width="49.08" height="55.676" viewBox="0 0 49.08 55.676">
  <defs>
    <clipPath id="clip-path">
      <rect id="Rectangle_1126" data-name="Rectangle 1126" width="24.08" height="27.352" fill="none"/>
    </clipPath>
    <clipPath id="clip-path-2">
      <rect id="Rectangle_1128" data-name="Rectangle 1128" width="22.821" height="35.66" fill="none"/>
    </clipPath>
  </defs>
  <g id="Groupe_131" data-name="Groupe 131">
    <path id="Tracé_1003" data-name="Tracé 1003" d="M16.17,23.759l-4.077-5.8L4.467,26.64.828,23.332l7.3-8.614L2.009,11.357,23.386.959Z" transform="translate(-0.134 0)" fill="#fff"/>
    <g id="Groupe_120" data-name="Groupe 120" transform="translate(0 0)">
      <g id="Groupe_119" data-name="Groupe 119" clip-path="url(#clip-path)">
        <path id="Tracé_1004" data-name="Tracé 1004" d="M23.387.959,2.01,11.357l6.115,3.36-7.3,8.615,3.64,3.308,7.626-8.682,4.076,5.8Z" transform="translate(-0.135 0)" fill="none" stroke="#000101" stroke-linecap="round" stroke-miterlimit="10" stroke-width="1"/>
      </g>
    </g>
  </g>
  <g id="Groupe_134" data-name="Groupe 134" transform="translate(49.08 55.676) rotate(180)">
    <g id="Groupe_125" data-name="Groupe 125" transform="translate(0 0)" clip-path="url(#clip-path-2)">
      <path id="Tracé_1009" data-name="Tracé 1009" d="M18.836,17.684c-.587-.034-1.655.041-2.242.007" transform="translate(-12.609 0)" fill="none" stroke="#000" stroke-linecap="round" stroke-linejoin="round" stroke-width="1"/>
      <path id="Tracé_1010" data-name="Tracé 1010" d="M19.865,14.524c-.028.569-.091,1.818-.119,2.387" transform="translate(-16.79 0)" fill="none" stroke="#000" stroke-linecap="round" stroke-linejoin="round" stroke-width="1"/>
      <path id="Tracé_1011" data-name="Tracé 1011" d="M22.321,17.575l-2.136-.005" transform="translate(-19.685 0)" fill="none" stroke="#000" stroke-linecap="round" stroke-linejoin="round" stroke-width="1"/>
      <path id="Tracé_1012" data-name="Tracé 1012" d="M19.667,18.566c-.021.658-.057,1.794-.078,2.453" transform="translate(-16.435 0)" fill="none" stroke="#000" stroke-linecap="round" stroke-linejoin="round" stroke-width="1"/>
      <path id="Tracé_1013" data-name="Tracé 1013" d="M2.742,3.661C2.155,3.627,1.087,3.7.5,3.668" transform="translate(19.579 0)" fill="none" stroke="#000" stroke-linecap="round" stroke-linejoin="round" stroke-width="1"/>
      <path id="Tracé_1014" data-name="Tracé 1014" d="M3.771.5c-.028.569-.091,1.818-.119,2.387" transform="translate(15.398 0)" fill="none" stroke="#000" stroke-linecap="round" stroke-linejoin="round" stroke-width="1"/>
      <path id="Tracé_1015" data-name="Tracé 1015" d="M6.226,3.551,4.09,3.546" transform="translate(12.505 0)" fill="none" stroke="#000" stroke-linecap="round" stroke-linejoin="round" stroke-width="1"/>
      <path id="Tracé_1016" data-name="Tracé 1016" d="M3.573,4.542C3.552,5.2,3.516,6.336,3.495,7" transform="translate(15.753 0)" fill="none" stroke="#000" stroke-linecap="round" stroke-linejoin="round" stroke-width="1"/>
      <path id="Tracé_1017" data-name="Tracé 1017" d="M11.458,28.215c-.037.534-.122,1.766-.158,2.3" transform="translate(0.063 0)" fill="none" stroke="#000" stroke-linecap="round" stroke-linejoin="round" stroke-width="1"/>
      <path id="Tracé_1018" data-name="Tracé 1018" d="M10.559,31.53l-2.3.062" transform="translate(4.003 0)" fill="none" stroke="#000" stroke-linecap="round" stroke-linejoin="round" stroke-width="1"/>
      <path id="Tracé_1019" data-name="Tracé 1019" d="M14.082,31.583l-2.349.052" transform="translate(-2.994 0)" fill="none" stroke="#000" stroke-linecap="round" stroke-linejoin="round" stroke-width="1"/>
      <path id="Tracé_1020" data-name="Tracé 1020" d="M11.17,32.436c-.02.765-.052,1.959-.072,2.724" transform="translate(0.553 0)" fill="none" stroke="#000" stroke-linecap="round" stroke-linejoin="round" stroke-width="1"/>
    </g>
  </g>
</svg>
