<svg xmlns="http://www.w3.org/2000/svg" xmlns:xlink="http://www.w3.org/1999/xlink" width="22.821" height="74.84" viewBox="0 0 22.821 74.84">
  <defs>
    <clipPath id="clip-path">
      <rect id="Rectangle_1127" data-name="Rectangle 1127" width="16.518" height="24.36" transform="translate(0 0)" fill="none"/>
    </clipPath>
    <clipPath id="clip-path-2">
      <rect id="Rectangle_1128" data-name="Rectangle 1128" width="22.821" height="35.66" transform="translate(0 0)" fill="none"/>
    </clipPath>
  </defs>
  <g id="Groupe_132" data-name="Groupe 132" transform="translate(1.357 50.48)">
    <g id="Groupe_122" data-name="Groupe 122" clip-path="url(#clip-path)">
      <path id="Tracé_1005" data-name="Tracé 1005" d="M13.461,11.774C11.01,11.029,9.1,8.39,8.555,5.011l-.3-1.844-.3,1.844c-.54,3.379-2.455,6.018-4.906,6.763l-1.338.406,1.338.407c2.451.745,4.366,3.384,4.906,6.763l.3,1.844.3-1.844c.54-3.379,2.455-6.018,4.906-6.763L14.8,12.18Z" fill="#fff"/>
      <path id="Tracé_1006" data-name="Tracé 1006" d="M13.461,11.774C11.01,11.029,9.1,8.39,8.555,5.011l-.3-1.844-.3,1.844c-.54,3.379-2.455,6.018-4.906,6.763l-1.338.406,1.338.407c2.451.745,4.366,3.384,4.906,6.763l.3,1.844.3-1.844c.54-3.379,2.455-6.018,4.906-6.763L14.8,12.18Z" fill="none" stroke="#000101" stroke-linecap="round" stroke-miterlimit="10" stroke-width="1"/>
      <path id="Tracé_1007" data-name="Tracé 1007" d="M13.461,11.774C11.01,11.029,9.1,8.39,8.555,5.011l-.3-1.844-.3,1.844c-.54,3.379-2.455,6.018-4.906,6.763l-1.338.406,1.338.407c2.451.745,4.366,3.384,4.906,6.763l.3,1.844.3-1.844c.54-3.379,2.455-6.018,4.906-6.763L14.8,12.18Z" fill="#fff"/>
      <path id="Tracé_1008" data-name="Tracé 1008" d="M13.461,11.774C11.01,11.029,9.1,8.39,8.555,5.011l-.3-1.844-.3,1.844c-.54,3.379-2.455,6.018-4.906,6.763l-1.338.406,1.338.407c2.451.745,4.366,3.384,4.906,6.763l.3,1.844.3-1.844c.54-3.379,2.455-6.018,4.906-6.763L14.8,12.18Z" fill="none" stroke="#000101" stroke-linecap="round" stroke-miterlimit="10" stroke-width="1"/>
    </g>
  </g>
  <g id="Groupe_136" data-name="Groupe 136">
    <g id="Groupe_125" data-name="Groupe 125" clip-path="url(#clip-path-2)">
      <path id="Tracé_1009" data-name="Tracé 1009" d="M16.594,17.684c.587-.034,1.655.041,2.242.007" fill="none" stroke="#000" stroke-linecap="round" stroke-linejoin="round" stroke-width="1"/>
      <path id="Tracé_1010" data-name="Tracé 1010" d="M19.746,14.524c.028.569.091,1.818.119,2.387" fill="none" stroke="#000" stroke-linecap="round" stroke-linejoin="round" stroke-width="1"/>
      <path id="Tracé_1011" data-name="Tracé 1011" d="M20.185,17.575l2.136-.005" fill="none" stroke="#000" stroke-linecap="round" stroke-linejoin="round" stroke-width="1"/>
      <path id="Tracé_1012" data-name="Tracé 1012" d="M19.589,18.566c.021.658.057,1.794.078,2.453" fill="none" stroke="#000" stroke-linecap="round" stroke-linejoin="round" stroke-width="1"/>
      <path id="Tracé_1013" data-name="Tracé 1013" d="M.5,3.661c.587-.034,1.655.041,2.242.007" fill="none" stroke="#000" stroke-linecap="round" stroke-linejoin="round" stroke-width="1"/>
      <path id="Tracé_1014" data-name="Tracé 1014" d="M3.652.5c.028.569.091,1.818.119,2.387" fill="none" stroke="#000" stroke-linecap="round" stroke-linejoin="round" stroke-width="1"/>
      <path id="Tracé_1015" data-name="Tracé 1015" d="M4.09,3.551l2.136-.005" fill="none" stroke="#000" stroke-linecap="round" stroke-linejoin="round" stroke-width="1"/>
      <path id="Tracé_1016" data-name="Tracé 1016" d="M3.495,4.542c.021.658.057,1.794.078,2.453" fill="none" stroke="#000" stroke-linecap="round" stroke-linejoin="round" stroke-width="1"/>
      <path id="Tracé_1017" data-name="Tracé 1017" d="M11.3,28.215c.037.534.122,1.766.158,2.3" fill="none" stroke="#000" stroke-linecap="round" stroke-linejoin="round" stroke-width="1"/>
      <path id="Tracé_1018" data-name="Tracé 1018" d="M8.259,31.53l2.3.062" fill="none" stroke="#000" stroke-linecap="round" stroke-linejoin="round" stroke-width="1"/>
      <path id="Tracé_1019" data-name="Tracé 1019" d="M11.733,31.583l2.349.052" fill="none" stroke="#000" stroke-linecap="round" stroke-linejoin="round" stroke-width="1"/>
      <path id="Tracé_1020" data-name="Tracé 1020" d="M11.1,32.436c.02.765.052,1.959.072,2.724" fill="none" stroke="#000" stroke-linecap="round" stroke-linejoin="round" stroke-width="1"/>
    </g>
  </g>
</svg>
