<?xml version="1.0" encoding="utf-8"?>
<!-- Generator: Adobe Illustrator 29.0.1, SVG Export Plug-In . SVG Version: 9.03 Build 54978)  -->
<svg version="1.1" id="Layer_1" xmlns="http://www.w3.org/2000/svg" xmlns:xlink="http://www.w3.org/1999/xlink" x="0px" y="0px"
	 viewBox="0 0 201.2 222.7" style="enable-background:new 0 0 201.2 222.7;" xml:space="preserve">
<g>
	<path style="fill:#CB2026;" d="M127.5,52.5l-24,3.4c0,0-6.9,0.7-5.3,9.6c1.7,8.8,2.1,11.2,7.3,17c5.9,5.1,5.7,5.3,5.7,5.3
		s11.8,0.5,12.5,4.5c5.9,1,7.6,0,7.6,0l-1.4-9.6l-4.7,0.5c0,0-2.5,5.9-16.6-0.6c-1-2.4,0.9-3.6,0.9-3.6s-8.6-0.8-3.4-6.2
		c2.7-1.2,2.7-1.2,2.7-1.2s-7.5-2.8-1.6-8.1c4.8-2.4,20.5-2.5,20.5-2.5L127.5,52.5z"/>
	<path style="fill:#CB2026;" d="M129.9,34.3c0,0-5.3,0.2-3.4,12.5c5.7,57,5.7,57,5.7,57s-0.9,7.5,8.4,10c10.5,4.6,29.6,3.6,41.6-6.2
		c4.2-3.1,2.3-10.9,2.3-10.9l0.1-61.2c0,0,1.7-9.4-21.7-8.6C139.7,27.7,129.9,34.3,129.9,34.3z"/>
	<path style="fill:#FFFFFF;" d="M87.8,128.3l-17.6-12.4c0,0,11.6-14.3,12.3-17.5c2.1-5.8,6.7-19.5,7.4-32.9c0-18.1,0-18.1,0-18.1
		s-0.8-5.1,4.2-4.5c5,0.6,7,7.2,6.8,9.6c-0.1,4.7-1.8,6.6-1.8,6.6s-2.4,4.3,0.6,11.5c3,7.2,0.8,7.8,8.6,14.9
		c4.2,2.7,4.2,2.7,4.2,2.7l4.1,4.1c0,0,0.7,8-3.9,9.9s-17.7,8.2-19.1,12.3C92,118.8,87.8,128.3,87.8,128.3z"/>
	<g>
		<path style="fill:none;stroke:#010101;stroke-width:1.4;stroke-linecap:round;stroke-linejoin:round;stroke-miterlimit:10;" d="
			M127.4,60.9c-4,0.6-7.2,0.8-11.2,1.4c-1.5,0.2-3,0.5-4.2,1.4c-1.7,1.3-2.2,3.7-2,5.9c0.3,4.3,2.6,8.4,6.1,10.9
			c3.5,2.5,9.5,3.5,13.6,2.3"/>
		
			<ellipse transform="matrix(0.9947 -0.1026 0.1026 0.9947 -2.8115 16.134)" style="fill:none;stroke:#010101;stroke-width:1.4;stroke-linecap:round;stroke-linejoin:round;stroke-miterlimit:10;" cx="155.4" cy="35.4" rx="28.4" ry="8.1"/>
		<path style="fill:none;stroke:#010101;stroke-width:1.4;stroke-linecap:round;stroke-linejoin:round;stroke-miterlimit:10;" d="
			M181.7,29.8c1.8,1.3,3.4,3.3,3.4,6l-0.6,66.3c0,2.5-1.2,4.8-3.2,6.3c-6.4,4.7-14.1,7.6-22,8.2c-7.7,0.6-15.6-1-22.6-4.5
			c-2.4-1.2-4.1-3.6-4.3-6.3l-6.1-61c-0.1-1.4-0.1-3.7,0.1-5.5s0.7-3.5,2.4-4.2"/>
		
			<path style="fill:#FFFFFF;stroke:#010101;stroke-width:1.4;stroke-linecap:round;stroke-linejoin:round;stroke-miterlimit:10;" d="
			M111.7,62.3c-1.7,0.2-3.4,0.6-4.8,1.6c-1.3,1.1-2.2,2.9-1.6,4.5c0.8,2.1,3.5,2.7,5.7,2.9c2.5,0.2,5.1,0.1,7.6-0.1
			c1.9-0.2,3.9-0.6,5-2.1C128.9,62.1,114.5,62,111.7,62.3z"/>
		<path style="fill:none;stroke:#010101;stroke-width:1.4;stroke-linecap:round;stroke-linejoin:round;stroke-miterlimit:10;" d="
			M99,86.8c2.9-8,1.9-17.3-2.6-24.4c5-4.4,6.1-11.9,1.8-17c-1.7-2-4.8-3.5-6.8-1.8c-1.5,1.3-1.5,3.5-1.4,5.5
			c0.7,15.5-1.4,31-6.1,45.8c-3,9.5-10.5,16.8-16.6,24.7"/>
		<path style="fill:none;stroke:#010101;stroke-width:1.4;stroke-linecap:round;stroke-linejoin:round;stroke-miterlimit:10;" d="
			M127.1,52.5c-7,1-14.1,2-21.1,3c-1.9,0.3-3.8,0.6-5.3,1.7c-2.1,1.7-2.6,4.8-2.4,7.6c0.4,7.9,4.2,15.6,10.2,20.7s14.2,7.6,22.1,6.7
			"/>
		
			<path style="fill:#FFFFFF;stroke:#010101;stroke-width:1.4;stroke-linecap:round;stroke-linejoin:round;stroke-miterlimit:10;" d="
			M122.2,90.2c-1-0.6-2.2-0.9-3.3-1.1c-3.8-0.8-8-1.5-11.5,0.4c-1.2,0.7-2.4,1.9-2,3.3c0.3,1.5,2.1,2,3.6,2.3
			c3.2,0.5,7.7,1.9,10.8,1.5C122.8,96.1,125.6,92.4,122.2,90.2z"/>
		<path style="fill:none;stroke:#010101;stroke-width:1.4;stroke-linecap:round;stroke-linejoin:round;stroke-miterlimit:10;" d="
			M116.5,96.6c-1,3.9-4.7,6.1-8.3,7.8s-7.6,2.9-10.5,5.6c-6.2,5.7-8.4,16.2-11.6,23.8"/>
		
			<path style="fill:#FFFFFF;stroke:#010101;stroke-width:1.4;stroke-linecap:round;stroke-linejoin:round;stroke-miterlimit:10;" d="
			M120.4,70.3c1,0,2.1,0.1,3,0.5c0.9,0.4,1.8,1.2,2,2.2c0.4,1.9-1.6,3.4-3.3,4.2c-4.2,1.8-8.9,2.4-13.4,1.7
			c-1.2-0.2-2.5-0.6-3.2-1.6C101.4,70.8,118.1,70.2,120.4,70.3z"/>
		
			<path style="fill:#FFFFFF;stroke:#010101;stroke-width:1.4;stroke-linecap:round;stroke-linejoin:round;stroke-miterlimit:10;" d="
			M111.6,78.2c-1.7,0.5-3.5,1.7-3.3,3.4c0.2,1.4,1.7,2.2,3,2.6c2.8,0.9,5.6,1.4,8.5,1.4c1.2,0,2.5-0.1,3.6-0.6
			c3.6-1.8,1.4-5.8-1.4-7.1C119.2,76.7,114.4,77.4,111.6,78.2z"/>
		<path style="fill:none;stroke:#010101;stroke-width:1.4;stroke-linecap:round;stroke-linejoin:round;stroke-miterlimit:10;" d="
			M144.9,77.7c1.3,5.9,7.2,10.5,13.2,10.2c6.1-0.3,11.5-5.5,12.2-11.5"/>
		<path style="fill:none;stroke:#010101;stroke-width:1.4;stroke-linecap:round;stroke-linejoin:round;stroke-miterlimit:10;" d="
			M151.9,65.5c0.1,1.7,0.3,3.4,0.4,5.1"/>
		<path style="fill:none;stroke:#010101;stroke-width:1.4;stroke-linecap:round;stroke-linejoin:round;stroke-miterlimit:10;" d="
			M163.1,63.6c0,2.2,0,4.4-0.1,6.6"/>
		
			<path style="fill:#010101;stroke:#010101;stroke-width:1.4;stroke-linecap:round;stroke-linejoin:round;stroke-miterlimit:10;" d="
			M0.7,221.2c14.3-27.3,48.3-82.1,66-107.3c9.6,6.8,19.3,13.5,28.9,20.3c-8.1,24-29.4,64.9-40,87.9"/>
		
			<line style="fill:none;stroke:#010101;stroke-width:1.4;stroke-linecap:round;stroke-linejoin:round;stroke-miterlimit:10;" x1="86" y1="177.9" x2="116.7" y2="129"/>
		
			<line style="fill:none;stroke:#010101;stroke-width:1.4;stroke-linecap:round;stroke-linejoin:round;stroke-miterlimit:10;" x1="92.5" y1="179.6" x2="119.8" y2="150.6"/>
		<path style="fill:#010101;" d="M194.2,0.3c1.5-0.3,3.1-0.5,4.5,0.1s2.6,2,2.5,3.5c-0.1,1.2-0.9,2.2-1.9,2.8s-2.2,0.8-3.4,1
			c-2.6,0.3-5.2,0.1-7.7,0.5c-2.4,0.4-5,1.6-6.2,3.5C185.2,6.4,187.7,1.8,194.2,0.3z"/>
		<path style="fill:#010101;" d="M183.3,28.3c1-0.9,2-2,2.5-3.3c0.5-1.3,0.4-2.9-0.4-3.6c-0.7-0.6-1.9-0.5-2.9,0
			c-1,0.5-1.9,1.4-2.7,2.2c-1.9,1.9-6.8,4.9-4.2,7.1C177.2,32.1,181.6,29.7,183.3,28.3z"/>
		<path style="fill:#010101;" d="M169.2,34.5c4-0.5,8.2-0.3,11.5,1.9c-5.3,3.8-12,5.1-18.5,6.2c-4.5,0.7-9.1,1.4-13.6,1.6
			c-2.3,0.1-4.6,0.1-6.9-0.1c-2.1-0.1-4.8-0.2-6.7-1c0.5-0.5,2.3-0.4,3.1-0.6c1.1-0.2,2.2-0.4,3.3-0.6c2.3-0.5,4.5-1.1,6.7-1.8
			c4.5-1.4,8.9-2.9,13.4-4.1C164,35.3,166.6,34.7,169.2,34.5z"/>
		
			<line style="fill:none;stroke:#010101;stroke-width:1.4;stroke-linecap:round;stroke-linejoin:round;stroke-miterlimit:10;" x1="162.8" y1="19.7" x2="163.6" y2="10.1"/>
		
			<line style="fill:none;stroke:#010101;stroke-width:1.4;stroke-linecap:round;stroke-linejoin:round;stroke-miterlimit:10;" x1="167.8" y1="20.4" x2="169.3" y2="13.4"/>
		
			<line style="fill:none;stroke:#010101;stroke-width:1.4;stroke-linecap:round;stroke-linejoin:round;stroke-miterlimit:10;" x1="172.4" y1="21.6" x2="175.2" y2="15.4"/>
	</g>
</g>
</svg>
