<?xml version="1.0" encoding="UTF-8"?>
<svg id="Layer_1" xmlns="http://www.w3.org/2000/svg" version="1.1" viewBox="0 0 227.4 329.9">
  <!-- Generator: Adobe Illustrator 29.0.1, SVG Export Plug-In . SVG Version: 2.1.0 Build 192)  -->
  <defs>
    <style>
      .st0 {
        fill: #010101;
      }

      .st1 {
        fill: #b6b8ba;
      }

      .st1, .st2, .st3 {
        stroke: #010101;
        stroke-linecap: round;
        stroke-linejoin: round;
        stroke-width: 1.5px;
      }

      .st4 {
        fill: #cb2026;
      }

      .st5, .st3 {
        fill: #fff;
      }

      .st2 {
        fill: none;
      }

      .st6 {
        fill: #d7d7d8;
      }
    </style>
  </defs>
  <path class="st6" d="M85.1,284l39.7,15.1s7.4,4.4,3.6,7.4c-3.8,3-29.3,21.2-41.8,20.9-16.2-1-70.9-16.3-73.7-21.7-1.7-5.4-.3-4.8-.3-4.8,0,0-2.9-6.8-3-10.7C1.9,256.3.7,245,.7,245c0,0-.5-7.5,7.5-5.3,8.1,2.3,50.8,16.3,50.8,16.3,0,0,20.2,6.6,22.1,13,2.1,7.1,4,15,4,15Z"/>
  <path class="st4" d="M137.5,261.1s2.3,5.7,16.5,3.4l7.8-6.6,5.7-93s-4.7.6-7,4.6c-5.8,10.5-12.1,18.3-18.6,7.4-2.6-8.7-3-10.2-4.4-6.8s0,91,0,91Z"/>
  <path class="st6" d="M126,273.1s9.6,5.6,14.8,4.6c14.2-7.9,13.7-11,13.7-11l-2.3-1.7s-2.8,1.8-19.2-5c-3.6,10.3-7,13.1-7,13.1Z"/>
  <polygon class="st6" points="165.2 277.7 153.5 282.2 167 285.7 165.2 277.7"/>
  <path class="st6" d="M139.8,159.2s4.8,2.3,4.7,10.4c-.3,3.3-2.7,4.1-3.9,4,.9,5.2,4.3,9.7,9.5,8.4s10.9-14,10.9-14c0,0-6.7,2.8-7.2-10.5-5,2.2-14,1.7-14,1.7Z"/>
  <path class="st6" d="M112.7,195h8.4s2.1-11.6-.9-19.1c6.4-4.9,5.4-11.9,2.5-16.1,3.1-8.6,1-12.6,0-12.5-1.4.5-.8,1-.8,1,0,0-.8-5.4-2.5-4.3l-1.5,5.1s-.9-7.3-2.7-6.2c-.4,4.4-1,4.5-1,4.5,0,0-.5-6-1.8-5.3s-4.5,10.4-2.9,19.4,4.3,11.4,4.2,19.4c0,8-1.1,14.1-1.1,14.1Z"/>
  <path class="st6" d="M103.3,129.2s-1.4-2-4.6-.4-1.3,9.5,4.1,14.3c4.1,2.4,6.5-.4,6.5-.4,0,0-9.1,4.1,24.6,14.8,14.3,3.6,29.8,1.2,34.2-20.7l-.7-6s7.5-8-3.7-12.4c-1.3-1.7-12.9-18.8-13.8-18.7-.4,10.9-5.9,14.2-9.7,14,4.3-7.4,2.7-12.6,2.7-12.6,0,0-.9,11.6-10.1,12.6-1.9-2.8-11-6.3-20.9,3-3.4,3.3-4.7,10.8-4.7,10.8l-3.9,1.7Z"/>
  <path class="st6" d="M107.3,302.6s-5.2,1.6-3.8-6.1l1.7-4.7s-2.4-6.6,4.8-7.9l7.2-1.7s5.6-2.2,18.6-2.9l-3.2,8.8s-3.3.4-3.9,4.2c-.6,3.8-8.2,6.2-8.2,6.2,0,0-2.5,8.2-3.2,8.1s-1.8-.9-1.8-.9c0,0-2.9.3-3.4-1.3-2.2,0-4.7,0-4.8-1.8Z"/>
  <path class="st5" d="M172.1,117.4c-5.7-10.2-14.2-8.1-14.2-8.1,2.2,3.5,4,6.7,5.3,9.4.2,0,.5,0,.7,0,.7,0,1.4,0,2.1.5.7.2,1.2.6,1.7,1.1.8.7,1.5,1.9,1.7,3,.3,1.2.2,2.4,0,3.7-.3,1.4-1.1,2.8-2.1,3.9.4,3.1,0,4.5,0,4.5,2.4-.6,10.4-7.7,4.8-17.9Z"/>
  <path class="st0" d="M122.5,194.6s-3.7-.9-6.9-.4c-3.2.4-5.5,2.2-5.5,2.2,0,0,0,7.9-1.2,10.8s-4.4,16.9-3.6,21.7c.8,4.7,2.5,14.8,8.1,17.3,5.6,2.4,9.5-4,9.5-4l-.2,15.1s-6.3,2.7-8.2,4.9-4.5,7.1-4.5,7.1l20,5.7s7.5-11.3,8.4-13.3,1.4-3.7,1.3-6.2c-.1-2.4-1.2-30.4-1.3-34.3-.1-4-1-52.2-1-52.2,0,0-4,3.1-5.6,5.9-1.6,2.9-5.1,11.2-5.5,13.3s-3,14-3,14l-.8-7.6Z"/>
  <path class="st0" d="M166.7,165.1s9.5-1.2,15,3.2,9.5,11.9,11.3,23.1c1.9,11.2,3.1,28.2,2.7,32.8-.3,4.6-.9,12.8-1.4,17-.5,4.3.2,11.9.2,11.9,0,0,1.6,12.2,1.8,15.4.1,3.2-1.8,14.3-2.1,16.3s-2.2,4.7-2.2,4.7l-5.6,2.7-22.2-6.8s-1.1-2.1-1-3.3c.1-1.2,1.5-4.6,1.5-4.6l-5.8,2.4-8.8-13.7,11.5-8.7.3-19.4,2.6-48.7,2.2-24.3Z"/>
  <path class="st2" d="M149.9,99.2c6.7,8.1,13.5,16.6,16.5,26.7,3,10.1,1.1,22.4-7.3,28.8-4.6,3.5-10.5,4.8-16.3,4.5-5.7-.3-11.3-2.1-16.6-4.4"/>
  <path class="st2" d="M116,113.3c-6.5,3.8-10.1,12.2-8.1,19.5,2.1,7.3,9.7,12.6,17.2,11.7,6.4-.8,11.8-5.8,13.7-11.9,4.6-14.9-8.7-27.5-22.8-19.3Z"/>
  <path class="st2" d="M150.4,129.8c1.6,3,4,5.6,7.2,6.8,4.6,1.7,10.3-.2,13.3-4.1,3-3.9,3.4-9.6,1.5-14.1-8.2-18.8-30.6-5.2-22,11.4Z"/>
  <path class="st2" d="M143.4,151.2c2.8-.3,5.6-.7,8.4-1"/>
  <path class="st2" d="M142.7,121.1c2.3,4.5,4.6,9,6.9,13.5-1.3.2-2.5.4-3.8.6"/>
  <path class="st2" d="M132.2,119.3c2,3.4,3.1,5.3,3.5,5.9"/>
  <path class="st2" d="M156.3,116c1,1.5,2,2.9,3,4.4"/>
  <path class="st2" d="M139.9,122c2.3-2.2,6.2-2.7,9-1"/>
  <path class="st2" d="M113,194.6c3-15.6-1.8-26.6-3.1-31.6-1.8-6.9.8-21.9,3-20.9,1.7.3,1.8,9.5.4,14,.8-4.4,1.1-13.7,2.3-13.3,2.5,0,3.3,9.7,1.4,14.3l2.6-13.4c2.5.4,2.6,10.9.4,15.9.9-4.1,1.5-12.3,2.8-12.2,2.5-.1,1.6,8.6,0,12.5,3.9,4.7,2.7,12.8-2.5,16.1,1.5,5.8,1.9,11.9,1.2,17.9"/>
  <path class="st2" d="M103.8,131.8c.8-2-1.7-4.3-3.8-3.6-2.1.6-3.2,3.1-3,5.3s1.4,4.1,2.6,6c1.2,1.8,2.6,3.7,4.7,4.5,2,.8,4.9.1,5.5-2"/>
  <path class="st2" d="M125.7,96c2.2,4.9,2.1,10.8,0,15.6s-6.6,8.8-11.7,10.4"/>
  <path class="st2" d="M115.1,103.7c.8,7.3-2.8,14.9-9,18.8"/>
  <path class="st2" d="M105.5,140.7c1.1,1.3,2.2,2.7,2.4,4.4s-1,3.6-2.7,3.5c-1.1-.1-2-.9-2.3-1.9s0-2.1.3-3.1"/>
  <path class="st2" d="M163.5,118.4c2.8.3,5.3,2.3,6.1,4.9s0,5.7-2.1,7.5"/>
  <path class="st2" d="M102.8,129.1c1.5-.5,3.1-1.1,4.6-1.6"/>
  <path class="st2" d="M163.7,118.4c2.4-1.2,4.1-2.3,6.5-3.5"/>
  <path class="st2" d="M147,113.6c4.2-6.1,3.9-14.9-.7-20.7"/>
  <path class="st2" d="M140.5,95.1c3.6,5.7,3.3,13.5-.7,18.9"/>
  <path class="st2" d="M142.6,88.3c5.5-1.6,11.8.5,15.3,5.1,3.5,4.5,3.8,11.2.8,16.1-.2-.2-.3-.4-.5-.6"/>
  <path class="st2" d="M113,91.2c-6.1.8-10.9,5.8-13.4,11.3-2.5,5.6-3,11.8-3.5,17.9s-1.1,12.3-3.6,17.9c-1.8,3.8-4.4,7.2-5.8,11.2s-1.1,9,2.2,11.6"/>
  <path class="st2" d="M96.9,142.1c-3,3.3-4.5,7.9-4.1,12.4s2.8,8.7,6.3,11.4"/>
  <path class="st2" d="M101.2,150.8c-.9,5,1.7,10.3,6.1,12.8"/>
  <path class="st2" d="M116,89.1c3.8-3.7,8.9-6,14.2-6.3,5.3-.3,10.6,1.5,14.8,4.8"/>
  <path class="st2" d="M140.2,159.3c3.5,3.2,4.5,6.2,4.2,10.9"/>
  <path class="st2" d="M153.9,158.1c-.4,3.9.8,7.6,3.8,9.9"/>
  <path class="st2" d="M139.3,168.3c.8,3,1.3,5.9,2.6,8.7.9,1.8,2,3.7,3.8,4.7,2.9,1.5,6.6,0,8.8-2.4s3.4-5.5,5.1-8.3c1.6-2.8,4-5.5,7.2-6.2"/>
  <path class="st2" d="M133.4,97.8c2.9,6.8,1,15.3-4.5,20.2"/>
  <path class="st2" d="M164.8,148.1c-.2,2.9,1.2,4.7,3.7,6.1,2.6,1.4,5.9,1.2,8.3-.5"/>
  <path class="st2" d="M137.5,169.1c.1,28.8.6,56.9,1.8,85.7"/>
  <path class="st2" d="M166.6,165.1c-2.3,26.6-4.8,65.8-5.4,92.5"/>
  <path class="st2" d="M123.8,227.4c-.4-11-.8-22-1.1-33-4.2-.9-8.7-.3-12.6,1.6,0,8-2.9,15.8-4.2,23.7s-1.1,16.8,4,23.1c2,2.5,5.2,4.6,8.3,3.6,2.1-.7,3.5-2.6,4.8-4.5,3.3-5.1,6.2-10.6,8.7-16.2"/>
  <path class="st2" d="M139,168.3c-4.8,1.5-7.8,6.3-9.8,10.9-3.5,7.9-5.6,16.5-6.1,25.2"/>
  <path class="st2" d="M163.5,166.1c-1.8,1.6-4.7,3-5.8,1.8"/>
  <path class="st2" d="M144.4,170.6c-.5,2.3-1.6,3.2-3.8,2.9"/>
  <path class="st2" d="M135.6,215.1c.8,2.4,4.5,5.4,7.3,5.9"/>
  <path class="st2" d="M154,217.9c1.3,1.7,4.4,3.5,6.4,4.1"/>
  <path class="st2" d="M114.4,292.6c-2.9,2-5.5,11.8,0,13.1"/>
  <path class="st2" d="M111.5,291.3c-2.3,1.3-3.9,3.6-4.3,6.1-.4,2.6-.2,7.7,4.3,7"/>
  <path class="st2" d="M130.1,157.5c-1,3.8,1.1,8.1,4.6,9.7"/>
  <path class="st2" d="M167.2,140.6c-.5,2.2,1.4,5.5,3.4,6.8,1.9,1.3,4.6,1.2,6.5-.1"/>
  <path class="st2" d="M95.8,171.8c-2.4,5.4-1.1,12.2,3.1,16.3"/>
  <path class="st2" d="M87.3,175.9c-1.5,4.4.4,9.7,4.3,12.3"/>
  <path class="st2" d="M1.1,248.4c-.5-2.7-.8-5.9,1.3-7.7,2-1.7,4.9-1.1,7.4-.5,21.4,5.9,42.5,13.2,63,21.8,2.5,1.1,5.1,2.2,6.7,4.3,1.3,1.7,2,3.8,2.6,5.8,4.1,14.5,6.9,29.4,8.3,44.4.2,2.2.3,4.7-1.2,6.3-1.9,2.1-5.3,1.6-8.1.9-17-4.3-33.8-9.4-50.4-15.2-4.8-1.7-14.1-3.1-17.6-7.1-2.1-2.4-2.3-6.7-3-9.7-1-4.3-2-8.7-2.9-13.1-2.3-10-4.3-20.1-6.1-30.2Z"/>
  <path class="st2" d="M12.1,300.4c-.7,7.9,7.3,9.1,12.5,10.9,14.2,5.1,28.6,9.5,43.2,13.2,7.3,1.9,14.9,3.6,22.4,2.5,7.8-1.2,14.8-5.5,21.6-9.6,4.8-3,7.4-4.5,12.1-7.4,1.4-.9,5.1-3.3,5.5-4.9.4-1.7-.9-5-6.5-6.6"/>
  <path class="st2" d="M104.8,291c-6.6-2.5-11.6-4.2-18.8-6.5"/>
  <path class="st2" d="M92.9,322.2c10.2-5.4,20.1-11.3,29.7-17.8"/>
  <path class="st2" d="M50,252.8c53.4,14.3,115.3,32,167.6,49.8"/>
  <path class="st2" d="M122.7,243c0,4.6-.2,9.3-.3,13.9-5.7,1.9-10.4,6.5-12.4,12.1"/>
  <path class="st2" d="M139.4,254.8c.3,4.5-1.1,7.3-3.1,10.5-2,3.2-4.6,6.1-6.1,9.6"/>
  <path class="st2" d="M194.1,240.6c-.6,9,1.3,18.1,1.7,27.1.5,9.1-.7,18.2-6.4,25.2"/>
  <path class="st2" d="M164.5,277.7c-2.2,2.5-1.5,4.4-.5,7.5"/>
  <path class="st2" d="M138.5,262c3,2.9,10.1,3.8,14.1,2.4"/>
  <path class="st2" d="M177,153.2c6.8,0,19.7.6,26.2,2.2,6.6,1.7,12.9,5.2,16.6,10.9,3.4,5.3,4.2,11.8,4.8,18.1,1,12.1,1.4,24.2,1.6,36.4.4,18,.4,36,.3,53.9-.2,18.4-.7,37.3-7.7,54.4"/>
  <path class="st2" d="M200.5,166.9c2.2,2.2,4.5,4.5,6.2,7.1,4.1,6.5,4.4,14.5,4.6,22.2.7,27,1.5,56.1,2.2,83.2"/>
  <path class="st1" d="M186.7,292.1c6.2-3.1,12.4-6.1,18.6-9.2,2.7-1.3,5.5-2.7,8.5-3s6.3.8,7.9,3.3c2.2,3.5.4,8.2-2.7,10.9-3.1,2.7-6.7,3.7-10.4,5.4l-21.9-7.4Z"/>
  <path class="st2" d="M153.3,88.9c9.3-.3,28.5,1,37.7.6,4,0,8.2-.2,11.6,1.8,3.4,2,5.4,5.6,6.4,9.4s1.1,7.7,1.5,11.6c.4,4.6,1.3,9.1,1.3,13.7s-1,9.3-3.8,12.9c-2.8,3.6-7.3,5.8-11.8,6.7s-21-.2-25.6-.3"/>
  <path class="st2" d="M112.2,283.6c-1.4,0-2.8.5-4.1,1-.8.3-1.6.7-2.2,1.2-.7.5-1.2,1.3-1.2,2.2s.3,2.7,1.1,2.9c-1.6,2.6-2.4,5.8-2.2,8.8,0,1,.3,2,1,2.7s2,.8,2.6-.1"/>
  <path class="st2" d="M159,155.2c.3,3.6,2.5,7,5.6,8.8,1.1.6,2.4,1.1,3.6.7"/>
  <path class="st2" d="M153.2,88.9c-.8-1.3-1.2-2.9-1.2-4.4,4.7-.2,9.4-.4,14.1-.6.2,1.5.3,3.1.5,4.6"/>
  <path class="st2" d="M179.6,145.9c-.5,2.4-.1,5,1,7.3"/>
  <path class="st6" d="M132.3,280c3.5-.6,10.7-2.3,13.1-4.3,2.4-2,6.9-5.9,6.9-5.9l6.3,10.3s-11.5,4.2-14.6,5-12.8,3.3-12.8,3.3l1.1-8.4Z"/>
  <path class="st2" d="M167.5,164.9c5.9-.7,12,1.3,16.3,5.3,5.9,5.5,7.9,13.8,9.2,21.8,1.9,11.7,2.7,23.6,2.4,35.4-.3,10.4-1.5,21.2-6.8,30.2-4.4,7.5-11.3,13.2-18.9,17.4-7.6,4.2-15.4,6.6-23.6,9.4"/>
  <path class="st2" d="M175.4,206.1c1.2,14,2.1,28.9-5,41-4.8,8.1-12.6,13.7-20.2,19.2,2.3,3.4,6,10,8.3,13.5"/>
  <path class="st2" d="M151.9,269.7c-3.4,4.2-8.1,7.3-13.3,8.9-6,1.8-12.4,1.4-18.6,2.5-6.1,1.1-12.6,4.4-14.5,10.4"/>
  <path class="st2" d="M145.7,284.6c-4.3,1.1-8.2,2.2-12.4,3.3-1.3.3-2.6.7-3.5,1.6-1.1,1-1.4,2.6-2.1,3.9-1.4,2.7-4.3,4.6-7.4,4.7-1.4,3-1.7,9.2-4.3,8.9-2.1-4.6-.9-10.5,2.8-14"/>
  <path class="st3" d="M133.2,60.7c0-2.5,1.7-4.2,4.2-4.2s2.2.5,3,1.3,1.2,2,1.3,3.1c-.2,2.5-1.7,4.1-4.2,4.1s-4.2-2-4.3-4.3ZM137.7,52.2c-.3-.2-.6-.4-.9-.6-1.4-1.2-1.9-3.1-1.9-4.9s.3-2.7.5-4c.2-1.2.7-1.9,1.2-3,.7-1.4,1.5-2.8,2.4-4,1-1.6,2.3-3,3.6-4.2,5.7-4.7,11-11.8,8.4-19.5-.5-1.6-2.1-2.8-3.8-2.9-2.3-.1-4.5.3-6.6,1.4-2.4,1.3-4.3,3-5.9,5.3-.6.9-.9,1.7-1.2,2.8-.2.5,0,1.1.4,1.5.6.6,1.1,1.4,1.2,2.3.3,1.4-.2,2.8-1.3,3.6-1.3.9-2.9,1.3-4.4.9-1.6-.3-2.9-1.2-3.7-2.6-.4-.6-.5-1.3-.6-2.1-.5-3.8.5-7.9,2.5-11,3.3-5.1,8.6-8.9,14.6-10.1,2.4-.5,5.2-.7,7.6,0,1.6.5,3.3,1.2,4.7,2.2,3.7,2.6,5.5,7.3,5.7,11.8.1,3.5-.6,7.1-2.1,10.2-2.8,5.7-7.9,9.6-11.8,14.4-.8,1.1-1.6,2.1-2.3,3.3-.1.2-.2.4-.3.7-.2.8-.3.8.4,1.2,1,.6,1.5,1.5,1.7,2.6.2.9-.1,1.8-.6,2.5-1.8,2.4-5,3.5-7.5,2.2Z"/>
  <path class="st3" d="M164.4,63.1c-.6-.6-.9-1.4-.9-2.2-.1-1,.4-2,1.2-2.7.8-.6,1.8-.9,2.9-.7,1.7.3,3,1.8,3,3.5-.1,1.4-.9,2.5-2.1,3-1.5.6-3.1.3-4.1-.9ZM165.3,49.5q.1,0,.1-.3c0-2,.6-4,1.1-5.9,1-4.4,2.1-8.8,3.4-13.1.6-2.2,1.3-4.3,2-6.5.6-1.9,1.5-3.8,1.9-5.8.1-.6.4-1.2.4-1.9.3-1.4,1.2-2.4,2.4-2.9.9-.4,1.9-.4,2.8.1s1.6,1.2,1.8,2.2c.1.4.2.8.2,1.2-.1,1.2-.4,2.2-.6,3.3-2.2,8.3-5.1,16.5-7.3,24.9-.2.8-.4,1.6-.6,2.4-.1,1.1-.4,2.1-.6,3.2-.1,1-.5,1.9-1.2,2.7-1.1,1.2-3.7,1.2-4.7,0-1-1-1.4-2.3-1.1-3.6Z"/>
</svg>