<?xml version="1.0" encoding="utf-8"?>
<!-- Generator: Adobe Illustrator 29.0.1, SVG Export Plug-In . SVG Version: 9.03 Build 54978)  -->
<svg version="1.1" id="Layer_1" xmlns="http://www.w3.org/2000/svg" xmlns:xlink="http://www.w3.org/1999/xlink" x="0px" y="0px"
	 viewBox="0 0 227.4 329.9" style="enable-background:new 0 0 227.4 329.9;" xml:space="preserve">
<g>
	<path style="fill:#D7D7D8;" d="M85.1,284l39.7,15.1c0,0,7.4,4.4,3.6,7.4c-3.8,3-29.3,21.2-41.8,20.9c-16.2-1-70.9-16.3-73.7-21.7
		c-1.7-5.4-0.3-4.8-0.3-4.8s-2.9-6.8-3-10.7c-7.7-33.9-8.9-45.2-8.9-45.2s-0.5-7.5,7.5-5.3C16.3,242,59,256,59,256s20.2,6.6,22.1,13
		C83.2,276.1,85.1,284,85.1,284z"/>
	<path style="fill:#CB2026;" d="M137.5,261.1c0,0,2.3,5.7,16.5,3.4c7.8-6.6,7.8-6.6,7.8-6.6l5.7-93c0,0-4.7,0.6-7,4.6
		c-5.8,10.5-12.1,18.3-18.6,7.4c-2.6-8.7-3-10.2-4.4-6.8S137.5,261.1,137.5,261.1z"/>
	<path style="fill:#D7D7D8;" d="M126,273.1c0,0,9.6,5.6,14.8,4.6c14.2-7.9,13.7-11,13.7-11l-2.3-1.7c0,0-2.8,1.8-19.2-5
		C129.4,270.3,126,273.1,126,273.1z"/>
	<polygon style="fill:#D7D7D8;" points="165.2,277.7 153.5,282.2 167,285.7 	"/>
	<path style="fill:#D7D7D8;" d="M139.8,159.2c0,0,4.8,2.3,4.7,10.4c-0.3,3.3-2.7,4.1-3.9,4c0.9,5.2,4.3,9.7,9.5,8.4s10.9-14,10.9-14
		s-6.7,2.8-7.2-10.5C148.8,159.7,139.8,159.2,139.8,159.2z"/>
	<path style="fill:#D7D7D8;" d="M112.7,195h8.4c0,0,2.1-11.6-0.9-19.1c6.4-4.9,5.4-11.9,2.5-16.1c3.1-8.6,1-12.6,0.1-12.5
		c-1.4,0.5-0.8,1-0.8,1s-0.8-5.4-2.5-4.3c-1.5,5.1-1.5,5.1-1.5,5.1s-0.9-7.3-2.7-6.2c-0.4,4.4-1,4.5-1,4.5s-0.5-6-1.8-5.3
		c-1.3,0.7-4.5,10.4-2.9,19.4s4.3,11.4,4.2,19.4C113.7,188.9,112.7,195,112.7,195z"/>
	<path style="fill:#D7D7D8;" d="M103.3,129.2c0,0-1.4-2-4.6-0.4c-3.2,1.6-1.3,9.5,4.1,14.3c4.1,2.4,6.5-0.4,6.5-0.4
		s-9.1,4.1,24.6,14.8c14.3,3.6,29.8,1.2,34.2-20.7c-0.7-6-0.7-6-0.7-6s7.5-8-3.7-12.4c-1.3-1.7-12.9-18.8-13.8-18.7
		c-0.4,10.9-5.9,14.2-9.7,14c4.3-7.4,2.7-12.6,2.7-12.6s-0.9,11.6-10.1,12.6c-1.9-2.8-11-6.3-20.9,3c-3.4,3.3-4.7,10.8-4.7,10.8
		L103.3,129.2z"/>
	<path style="fill:#FFFFFF;" d="M107.3,302.6c0,0-5.2,1.6-3.8-6.1c1.7-4.7,1.7-4.7,1.7-4.7s-2.4-6.6,4.8-7.9
		c7.2-1.7,7.2-1.7,7.2-1.7s5.6-2.2,18.6-2.9c-3.2,8.8-3.2,8.8-3.2,8.8s-3.3,0.4-3.9,4.2c-0.6,3.8-8.2,6.2-8.2,6.2s-2.5,8.2-3.2,8.1
		c-0.7-0.1-1.8-0.9-1.8-0.9s-2.9,0.3-3.4-1.3C109.9,304.5,107.4,304.4,107.3,302.6z"/>
	<path style="fill:#FFFFFF;" d="M172.1,117.4c-5.7-10.2-14.2-8.1-14.2-8.1c2.2,3.5,4,6.7,5.3,9.4c0.2,0,0.5-0.1,0.7-0.1
		c0.7,0,1.4,0.1,2.1,0.5c0.7,0.2,1.2,0.6,1.7,1.1c0.8,0.7,1.5,1.9,1.7,3c0.3,1.2,0.2,2.4,0,3.7c-0.3,1.4-1.1,2.8-2.1,3.9
		c0.4,3.1,0,4.5,0,4.5C169.7,134.7,177.7,127.6,172.1,117.4z"/>
	<path style="fill:#010101;" d="M122.5,194.6c0,0-3.7-0.9-6.9-0.4c-3.2,0.4-5.5,2.2-5.5,2.2s-0.1,7.9-1.2,10.8s-4.4,16.9-3.6,21.7
		c0.8,4.7,2.5,14.8,8.1,17.3c5.6,2.4,9.5-4,9.5-4l-0.2,15.1c0,0-6.3,2.7-8.2,4.9s-4.5,7.1-4.5,7.1l20,5.7c0,0,7.5-11.3,8.4-13.3
		s1.4-3.7,1.3-6.2c-0.1-2.4-1.2-30.4-1.3-34.3c-0.1-4-1-52.2-1-52.2s-4,3.1-5.6,5.9c-1.6,2.9-5.1,11.2-5.5,13.3s-3,14-3,14
		L122.5,194.6z"/>
	<path style="fill:#010101;" d="M166.7,165.1c0,0,9.5-1.2,15,3.2c5.5,4.4,9.5,11.9,11.3,23.1c1.9,11.2,3.1,28.2,2.7,32.8
		c-0.3,4.6-0.9,12.8-1.4,17c-0.5,4.3,0.2,11.9,0.2,11.9s1.6,12.2,1.8,15.4c0.1,3.2-1.8,14.3-2.1,16.3c-0.3,2-2.2,4.7-2.2,4.7
		l-5.6,2.7l-22.2-6.8c0,0-1.1-2.1-1-3.3c0.1-1.2,1.5-4.6,1.5-4.6l-5.8,2.4l-8.8-13.7l11.5-8.7l0.3-19.4l2.6-48.7L166.7,165.1z"/>
	<path style="fill:none;stroke:#010101;stroke-width:1.45;stroke-linecap:round;stroke-linejoin:round;stroke-miterlimit:10;" d="
		M149.9,99.2c6.7,8.1,13.5,16.6,16.5,26.7c3,10.1,1.1,22.4-7.3,28.8c-4.6,3.5-10.5,4.8-16.3,4.5c-5.7-0.3-11.3-2.1-16.6-4.4"/>
	<path style="fill:none;stroke:#010101;stroke-width:1.45;stroke-linecap:round;stroke-linejoin:round;stroke-miterlimit:10;" d="
		M116,113.3c-6.5,3.8-10.1,12.2-8.1,19.5c2.1,7.3,9.7,12.6,17.2,11.7c6.4-0.8,11.8-5.8,13.7-11.9C143.4,117.7,130.1,105.1,116,113.3
		z"/>
	<path style="fill:none;stroke:#010101;stroke-width:1.45;stroke-linecap:round;stroke-linejoin:round;stroke-miterlimit:10;" d="
		M150.4,129.8c1.6,3,4,5.6,7.2,6.8c4.6,1.7,10.3-0.2,13.3-4.1c3-3.9,3.4-9.6,1.5-14.1C164.2,99.6,141.8,113.2,150.4,129.8z"/>
	<path style="fill:none;stroke:#010101;stroke-width:1.45;stroke-linecap:round;stroke-linejoin:round;stroke-miterlimit:10;" d="
		M143.4,151.2c2.8-0.3,5.6-0.7,8.4-1"/>
	<path style="fill:none;stroke:#010101;stroke-width:1.45;stroke-linecap:round;stroke-linejoin:round;stroke-miterlimit:10;" d="
		M142.7,121.1c2.3,4.5,4.6,9,6.9,13.5c-1.3,0.2-2.5,0.4-3.8,0.6"/>
	<path style="fill:none;stroke:#010101;stroke-width:1.45;stroke-linecap:round;stroke-linejoin:round;stroke-miterlimit:10;" d="
		M132.2,119.3c2,3.4,3.1,5.3,3.5,5.9"/>
	<path style="fill:none;stroke:#010101;stroke-width:1.45;stroke-linecap:round;stroke-linejoin:round;stroke-miterlimit:10;" d="
		M156.3,116c1,1.5,2,2.9,3,4.4"/>
	<path style="fill:none;stroke:#010101;stroke-width:1.45;stroke-linecap:round;stroke-linejoin:round;stroke-miterlimit:10;" d="
		M139.9,122c2.3-2.2,6.2-2.7,9-1"/>
	<path style="fill:none;stroke:#010101;stroke-width:1.45;stroke-linecap:round;stroke-linejoin:round;stroke-miterlimit:10;" d="
		M113,194.6c3-15.6-1.8-26.6-3.1-31.6c-1.8-6.9,0.8-21.9,3-20.9c1.7,0.3,1.8,9.5,0.4,14c0.8-4.4,1.1-13.7,2.3-13.3
		c2.5,0,3.3,9.7,1.4,14.3l2.6-13.4c2.5,0.4,2.6,10.9,0.4,15.9c0.9-4.1,1.5-12.3,2.8-12.2c2.5-0.1,1.6,8.6-0.1,12.5
		c3.9,4.7,2.7,12.8-2.5,16.1c1.5,5.8,1.9,11.9,1.2,17.9"/>
	<path style="fill:none;stroke:#010101;stroke-width:1.45;stroke-linecap:round;stroke-linejoin:round;stroke-miterlimit:10;" d="
		M103.8,131.8c0.8-2-1.7-4.3-3.8-3.6c-2.1,0.6-3.2,3.1-3,5.3c0.2,2.2,1.4,4.1,2.6,6c1.2,1.8,2.6,3.7,4.7,4.5c2,0.8,4.9,0.1,5.5-2"/>
	<path style="fill:none;stroke:#010101;stroke-width:1.45;stroke-linecap:round;stroke-linejoin:round;stroke-miterlimit:10;" d="
		M125.7,96c2.2,4.9,2.1,10.8-0.1,15.6s-6.6,8.8-11.7,10.4"/>
	<path style="fill:none;stroke:#010101;stroke-width:1.45;stroke-linecap:round;stroke-linejoin:round;stroke-miterlimit:10;" d="
		M115.1,103.7c0.8,7.3-2.8,14.9-9,18.8"/>
	<path style="fill:none;stroke:#010101;stroke-width:1.45;stroke-linecap:round;stroke-linejoin:round;stroke-miterlimit:10;" d="
		M105.5,140.7c1.1,1.3,2.2,2.7,2.4,4.4s-1,3.6-2.7,3.5c-1.1-0.1-2-0.9-2.3-1.9c-0.3-1-0.1-2.1,0.3-3.1"/>
	<path style="fill:none;stroke:#010101;stroke-width:1.45;stroke-linecap:round;stroke-linejoin:round;stroke-miterlimit:10;" d="
		M163.5,118.4c2.8,0.3,5.3,2.3,6.1,4.9c0.8,2.6,0,5.7-2.1,7.5"/>
	<path style="fill:none;stroke:#010101;stroke-width:1.45;stroke-linecap:round;stroke-linejoin:round;stroke-miterlimit:10;" d="
		M102.8,129.1c1.5-0.5,3.1-1.1,4.6-1.6"/>
	<path style="fill:none;stroke:#010101;stroke-width:1.45;stroke-linecap:round;stroke-linejoin:round;stroke-miterlimit:10;" d="
		M163.7,118.4c2.4-1.2,4.1-2.3,6.5-3.5"/>
	<path style="fill:none;stroke:#010101;stroke-width:1.45;stroke-linecap:round;stroke-linejoin:round;stroke-miterlimit:10;" d="
		M147,113.6c4.2-6.1,3.9-14.9-0.7-20.7"/>
	<path style="fill:none;stroke:#010101;stroke-width:1.45;stroke-linecap:round;stroke-linejoin:round;stroke-miterlimit:10;" d="
		M140.5,95.1c3.6,5.7,3.3,13.5-0.7,18.9"/>
	<path style="fill:none;stroke:#010101;stroke-width:1.45;stroke-linecap:round;stroke-linejoin:round;stroke-miterlimit:10;" d="
		M142.6,88.3c5.5-1.6,11.8,0.5,15.3,5.1c3.5,4.5,3.8,11.2,0.8,16.1c-0.2-0.2-0.3-0.4-0.5-0.6"/>
	<path style="fill:none;stroke:#010101;stroke-width:1.45;stroke-linecap:round;stroke-linejoin:round;stroke-miterlimit:10;" d="
		M113,91.2c-6.1,0.8-10.9,5.8-13.4,11.3c-2.5,5.6-3,11.8-3.5,17.9c-0.5,6.1-1.1,12.3-3.6,17.9c-1.8,3.8-4.4,7.2-5.8,11.2
		c-1.4,4-1.1,9,2.2,11.6"/>
	<path style="fill:none;stroke:#010101;stroke-width:1.45;stroke-linecap:round;stroke-linejoin:round;stroke-miterlimit:10;" d="
		M96.9,142.1c-3,3.3-4.5,7.9-4.1,12.4c0.4,4.5,2.8,8.7,6.3,11.4"/>
	<path style="fill:none;stroke:#010101;stroke-width:1.45;stroke-linecap:round;stroke-linejoin:round;stroke-miterlimit:10;" d="
		M101.2,150.8c-0.9,5,1.7,10.3,6.1,12.8"/>
	<path style="fill:none;stroke:#010101;stroke-width:1.45;stroke-linecap:round;stroke-linejoin:round;stroke-miterlimit:10;" d="
		M116,89.1c3.8-3.7,8.9-6,14.2-6.3c5.3-0.3,10.6,1.5,14.8,4.8"/>
	<path style="fill:none;stroke:#010101;stroke-width:1.45;stroke-linecap:round;stroke-linejoin:round;stroke-miterlimit:10;" d="
		M140.2,159.3c3.5,3.2,4.5,6.2,4.2,10.9"/>
	<path style="fill:none;stroke:#010101;stroke-width:1.45;stroke-linecap:round;stroke-linejoin:round;stroke-miterlimit:10;" d="
		M153.9,158.1c-0.4,3.9,0.8,7.6,3.8,9.9"/>
	<path style="fill:none;stroke:#010101;stroke-width:1.45;stroke-linecap:round;stroke-linejoin:round;stroke-miterlimit:10;" d="
		M139.3,168.3c0.8,3,1.3,5.9,2.6,8.7c0.9,1.8,2,3.7,3.8,4.7c2.9,1.5,6.6,0,8.8-2.4c2.2-2.4,3.4-5.5,5.1-8.3c1.6-2.8,4-5.5,7.2-6.2"
		/>
	<path style="fill:none;stroke:#010101;stroke-width:1.45;stroke-linecap:round;stroke-linejoin:round;stroke-miterlimit:10;" d="
		M133.4,97.8c2.9,6.8,1,15.3-4.5,20.2"/>
	<path style="fill:none;stroke:#010101;stroke-width:1.45;stroke-linecap:round;stroke-linejoin:round;stroke-miterlimit:10;" d="
		M164.8,148.1c-0.2,2.9,1.2,4.7,3.7,6.1c2.6,1.4,5.9,1.2,8.3-0.5"/>
	<path style="fill:none;stroke:#010101;stroke-width:1.45;stroke-linecap:round;stroke-linejoin:round;stroke-miterlimit:10;" d="
		M137.5,169.1c0.1,28.8,0.6,56.9,1.8,85.7"/>
	<path style="fill:none;stroke:#010101;stroke-width:1.45;stroke-linecap:round;stroke-linejoin:round;stroke-miterlimit:10;" d="
		M166.6,165.1c-2.3,26.6-4.8,65.8-5.4,92.5"/>
	<path style="fill:none;stroke:#010101;stroke-width:1.45;stroke-linecap:round;stroke-linejoin:round;stroke-miterlimit:10;" d="
		M123.8,227.4c-0.4-11-0.8-22-1.1-33c-4.2-0.9-8.7-0.3-12.6,1.6c-0.1,8-2.9,15.8-4.2,23.7s-1.1,16.8,4,23.1c2,2.5,5.2,4.6,8.3,3.6
		c2.1-0.7,3.5-2.6,4.8-4.5c3.3-5.1,6.2-10.6,8.7-16.2"/>
	<path style="fill:none;stroke:#010101;stroke-width:1.45;stroke-linecap:round;stroke-linejoin:round;stroke-miterlimit:10;" d="
		M139,168.3c-4.8,1.5-7.8,6.3-9.8,10.9c-3.5,7.9-5.6,16.5-6.1,25.2"/>
	<path style="fill:none;stroke:#010101;stroke-width:1.45;stroke-linecap:round;stroke-linejoin:round;stroke-miterlimit:10;" d="
		M163.5,166.1c-1.8,1.6-4.7,3-5.8,1.8"/>
	<path style="fill:none;stroke:#010101;stroke-width:1.45;stroke-linecap:round;stroke-linejoin:round;stroke-miterlimit:10;" d="
		M144.4,170.6c-0.5,2.3-1.6,3.2-3.8,2.9"/>
	<path style="fill:none;stroke:#010101;stroke-width:1.45;stroke-linecap:round;stroke-linejoin:round;stroke-miterlimit:10;" d="
		M135.6,215.1c0.8,2.4,4.5,5.4,7.3,5.9"/>
	<path style="fill:none;stroke:#010101;stroke-width:1.45;stroke-linecap:round;stroke-linejoin:round;stroke-miterlimit:10;" d="
		M154,217.9c1.3,1.7,4.4,3.5,6.4,4.1"/>
	<path style="fill:none;stroke:#010101;stroke-width:1.45;stroke-linecap:round;stroke-linejoin:round;stroke-miterlimit:10;" d="
		M114.4,292.6c-2.9,2-5.5,11.8-0.1,13.1"/>
	<path style="fill:none;stroke:#010101;stroke-width:1.45;stroke-linecap:round;stroke-linejoin:round;stroke-miterlimit:10;" d="
		M111.5,291.3c-2.3,1.3-3.9,3.6-4.3,6.1c-0.4,2.6-0.2,7.7,4.3,7"/>
	<path style="fill:none;stroke:#010101;stroke-width:1.45;stroke-linecap:round;stroke-linejoin:round;stroke-miterlimit:10;" d="
		M130.1,157.5c-1,3.8,1.1,8.1,4.6,9.7"/>
	<path style="fill:none;stroke:#010101;stroke-width:1.45;stroke-linecap:round;stroke-linejoin:round;stroke-miterlimit:10;" d="
		M167.2,140.6c-0.5,2.2,1.4,5.5,3.4,6.8c1.9,1.3,4.6,1.2,6.5-0.1"/>
	<path style="fill:none;stroke:#010101;stroke-width:1.45;stroke-linecap:round;stroke-linejoin:round;stroke-miterlimit:10;" d="
		M95.8,171.8c-2.4,5.4-1.1,12.2,3.1,16.3"/>
	<path style="fill:none;stroke:#010101;stroke-width:1.45;stroke-linecap:round;stroke-linejoin:round;stroke-miterlimit:10;" d="
		M87.3,175.9c-1.5,4.4,0.4,9.7,4.3,12.3"/>
	<path style="fill:none;stroke:#010101;stroke-width:1.45;stroke-linecap:round;stroke-linejoin:round;stroke-miterlimit:10;" d="
		M1.1,248.4c-0.5-2.7-0.8-5.9,1.3-7.7c2-1.7,4.9-1.1,7.4-0.5c21.4,5.9,42.5,13.2,63,21.8c2.5,1.1,5.1,2.2,6.7,4.3
		c1.3,1.7,2,3.8,2.6,5.8c4.1,14.5,6.9,29.4,8.3,44.4c0.2,2.2,0.3,4.7-1.2,6.3c-1.9,2.1-5.3,1.6-8.1,0.9c-17-4.3-33.8-9.4-50.4-15.2
		c-4.8-1.7-14.1-3.1-17.6-7.1c-2.1-2.4-2.3-6.7-3-9.7c-1-4.3-2-8.7-2.9-13.1C4.9,268.6,2.9,258.5,1.1,248.4z"/>
	<path style="fill:none;stroke:#010101;stroke-width:1.45;stroke-linecap:round;stroke-linejoin:round;stroke-miterlimit:10;" d="
		M12.1,300.4c-0.7,7.9,7.3,9.1,12.5,10.9c14.2,5.1,28.6,9.5,43.2,13.2c7.3,1.9,14.9,3.6,22.4,2.5c7.8-1.2,14.8-5.5,21.6-9.6
		c4.8-3,7.4-4.5,12.1-7.4c1.4-0.9,5.1-3.3,5.5-4.9c0.4-1.7-0.9-5-6.5-6.6"/>
	<path style="fill:none;stroke:#010101;stroke-width:1.45;stroke-linecap:round;stroke-linejoin:round;stroke-miterlimit:10;" d="
		M104.8,291c-6.6-2.5-11.6-4.2-18.8-6.5"/>
	<path style="fill:none;stroke:#010101;stroke-width:1.45;stroke-linecap:round;stroke-linejoin:round;stroke-miterlimit:10;" d="
		M92.9,322.2c10.2-5.4,20.1-11.3,29.7-17.8"/>
	<path style="fill:none;stroke:#010101;stroke-width:1.45;stroke-linecap:round;stroke-linejoin:round;stroke-miterlimit:10;" d="
		M50,252.8c53.4,14.3,115.3,32,167.6,49.8"/>
	<path style="fill:none;stroke:#010101;stroke-width:1.45;stroke-linecap:round;stroke-linejoin:round;stroke-miterlimit:10;" d="
		M122.7,243c-0.1,4.6-0.2,9.3-0.3,13.9c-5.7,1.9-10.4,6.5-12.4,12.1"/>
	<path style="fill:none;stroke:#010101;stroke-width:1.45;stroke-linecap:round;stroke-linejoin:round;stroke-miterlimit:10;" d="
		M139.4,254.8c0.3,4.5-1.1,7.3-3.1,10.5c-2,3.2-4.6,6.1-6.1,9.6"/>
	<path style="fill:none;stroke:#010101;stroke-width:1.45;stroke-linecap:round;stroke-linejoin:round;stroke-miterlimit:10;" d="
		M194.1,240.6c-0.6,9,1.3,18.1,1.7,27.1c0.5,9.1-0.7,18.2-6.4,25.2"/>
	<path style="fill:none;stroke:#010101;stroke-width:1.45;stroke-linecap:round;stroke-linejoin:round;stroke-miterlimit:10;" d="
		M164.5,277.7c-2.2,2.5-1.5,4.4-0.5,7.5"/>
	<path style="fill:none;stroke:#010101;stroke-width:1.45;stroke-linecap:round;stroke-linejoin:round;stroke-miterlimit:10;" d="
		M138.5,262c3,2.9,10.1,3.8,14.1,2.4"/>
	<path style="fill:none;stroke:#010101;stroke-width:1.45;stroke-linecap:round;stroke-linejoin:round;stroke-miterlimit:10;" d="
		M177,153.2c6.8,0,19.7,0.6,26.2,2.2c6.6,1.7,12.9,5.2,16.6,10.9c3.4,5.3,4.2,11.8,4.8,18.1c1,12.1,1.4,24.2,1.6,36.4
		c0.4,18,0.4,36,0.3,53.9c-0.2,18.4-0.7,37.3-7.7,54.4"/>
	<path style="fill:none;stroke:#010101;stroke-width:1.45;stroke-linecap:round;stroke-linejoin:round;stroke-miterlimit:10;" d="
		M200.5,166.9c2.2,2.2,4.5,4.5,6.2,7.1c4.1,6.5,4.4,14.5,4.6,22.2c0.7,27,1.5,56.1,2.2,83.2"/>
	
		<path style="fill:#B6B8BA;stroke:#010101;stroke-width:1.45;stroke-linecap:round;stroke-linejoin:round;stroke-miterlimit:10;" d="
		M186.7,292.1c6.2-3.1,12.4-6.1,18.6-9.2c2.7-1.3,5.5-2.7,8.5-3c3-0.3,6.3,0.8,7.9,3.3c2.2,3.5,0.4,8.2-2.7,10.9
		c-3.1,2.7-6.7,3.7-10.4,5.4L186.7,292.1z"/>
	<path style="fill:none;stroke:#010101;stroke-width:1.45;stroke-linecap:round;stroke-linejoin:round;stroke-miterlimit:10;" d="
		M153.3,88.9c9.3-0.3,28.5,1,37.7,0.6c4-0.1,8.2-0.2,11.6,1.8c3.4,2,5.4,5.6,6.4,9.4c1,3.8,1.1,7.7,1.5,11.6
		c0.4,4.6,1.3,9.1,1.3,13.7c0,4.6-1,9.3-3.8,12.9c-2.8,3.6-7.3,5.8-11.8,6.7s-21-0.2-25.6-0.3"/>
	<path style="fill:none;stroke:#010101;stroke-width:1.45;stroke-linecap:round;stroke-linejoin:round;stroke-miterlimit:10;" d="
		M112.2,283.6c-1.4,0-2.8,0.5-4.1,1c-0.8,0.3-1.6,0.7-2.2,1.2c-0.7,0.5-1.2,1.3-1.2,2.2c0,0.8,0.3,2.7,1.1,2.9
		c-1.6,2.6-2.4,5.8-2.2,8.8c0.1,1,0.3,2,1,2.7c0.7,0.7,2,0.8,2.6-0.1"/>
	<path style="fill:none;stroke:#010101;stroke-width:1.45;stroke-linecap:round;stroke-linejoin:round;stroke-miterlimit:10;" d="
		M159,155.2c0.3,3.6,2.5,7,5.6,8.8c1.1,0.6,2.4,1.1,3.6,0.7"/>
	<path style="fill:none;stroke:#010101;stroke-width:1.45;stroke-linecap:round;stroke-linejoin:round;stroke-miterlimit:10;" d="
		M153.2,88.9c-0.8-1.3-1.2-2.9-1.2-4.4c4.7-0.2,9.4-0.4,14.1-0.6c0.2,1.5,0.3,3.1,0.5,4.6"/>
	<path style="fill:none;stroke:#010101;stroke-width:1.45;stroke-linecap:round;stroke-linejoin:round;stroke-miterlimit:10;" d="
		M179.6,145.9c-0.5,2.4-0.1,5,1,7.3"/>
	<path style="fill:#FFFFFF;" d="M132.3,280c3.5-0.6,10.7-2.3,13.1-4.3c2.4-2,6.9-5.9,6.9-5.9l6.3,10.3c0,0-11.5,4.2-14.6,5
		c-3.1,0.8-12.8,3.3-12.8,3.3L132.3,280z"/>
	<path style="fill:none;stroke:#010101;stroke-width:1.45;stroke-linecap:round;stroke-linejoin:round;stroke-miterlimit:10;" d="
		M167.5,164.9c5.9-0.7,12,1.3,16.3,5.3c5.9,5.5,7.9,13.8,9.2,21.8c1.9,11.7,2.7,23.6,2.4,35.4c-0.3,10.4-1.5,21.2-6.8,30.2
		c-4.4,7.5-11.3,13.2-18.9,17.4c-7.6,4.2-15.4,6.6-23.6,9.4"/>
	<path style="fill:none;stroke:#010101;stroke-width:1.45;stroke-linecap:round;stroke-linejoin:round;stroke-miterlimit:10;" d="
		M175.4,206.1c1.2,14,2.1,28.9-5,41c-4.8,8.1-12.6,13.7-20.2,19.2c2.3,3.4,6,10,8.3,13.5"/>
	<path style="fill:none;stroke:#010101;stroke-width:1.45;stroke-linecap:round;stroke-linejoin:round;stroke-miterlimit:10;" d="
		M151.9,269.7c-3.4,4.2-8.1,7.3-13.3,8.9c-6,1.8-12.4,1.4-18.6,2.5c-6.1,1.1-12.6,4.4-14.5,10.4"/>
	<path style="fill:none;stroke:#010101;stroke-width:1.45;stroke-linecap:round;stroke-linejoin:round;stroke-miterlimit:10;" d="
		M145.7,284.6c-4.3,1.1-8.2,2.2-12.4,3.3c-1.3,0.3-2.6,0.7-3.5,1.6c-1.1,1-1.4,2.6-2.1,3.9c-1.4,2.7-4.3,4.6-7.4,4.7
		c-1.4,3-1.7,9.2-4.3,8.9c-2.1-4.6-0.9-10.5,2.8-14"/>
	<g>
		
			<path style="fill:#FFFFFF;stroke:#010101;stroke-width:1.45;stroke-linecap:round;stroke-linejoin:round;stroke-miterlimit:10;" d="
			M133.2,60.7c0-2.5,1.7-4.2,4.2-4.2c1.1,0,2.2,0.5,3,1.3c0.8,0.8,1.2,2,1.3,3.1c-0.2,2.5-1.7,4.1-4.2,4.1
			C135.2,65,133.3,63,133.2,60.7z M137.7,52.2c-0.3-0.2-0.6-0.4-0.9-0.6c-1.4-1.2-1.9-3.1-1.9-4.9c0-1.3,0.3-2.7,0.5-4
			c0.2-1.2,0.7-1.9,1.2-3c0.7-1.4,1.5-2.8,2.4-4c1-1.6,2.3-3,3.6-4.2c5.7-4.7,11-11.8,8.4-19.5c-0.5-1.6-2.1-2.8-3.8-2.9
			c-2.3-0.1-4.5,0.3-6.6,1.4c-2.4,1.3-4.3,3-5.9,5.3c-0.6,0.9-0.9,1.7-1.2,2.8c-0.2,0.5,0,1.1,0.4,1.5c0.6,0.6,1.1,1.4,1.2,2.3
			c0.3,1.4-0.2,2.8-1.3,3.6c-1.3,0.9-2.9,1.3-4.4,0.9c-1.6-0.3-2.9-1.2-3.7-2.6c-0.4-0.6-0.5-1.3-0.6-2.1c-0.5-3.8,0.5-7.9,2.5-11
			c3.3-5.1,8.6-8.9,14.6-10.1c2.4-0.5,5.2-0.7,7.6,0c1.6,0.5,3.3,1.2,4.7,2.2c3.7,2.6,5.5,7.3,5.7,11.8c0.1,3.5-0.6,7.1-2.1,10.2
			c-2.8,5.7-7.9,9.6-11.8,14.4c-0.8,1.1-1.6,2.1-2.3,3.3c-0.1,0.2-0.2,0.4-0.3,0.7c-0.2,0.8-0.3,0.8,0.4,1.2c1,0.6,1.5,1.5,1.7,2.6
			c0.2,0.9-0.1,1.8-0.6,2.5C143.4,52.4,140.2,53.5,137.7,52.2z"/>
	</g>
	<g>
		
			<path style="fill:#FFFFFF;stroke:#010101;stroke-width:1.45;stroke-linecap:round;stroke-linejoin:round;stroke-miterlimit:10;" d="
			M164.4,63.1c-0.6-0.6-0.9-1.4-0.9-2.2c-0.1-1,0.4-2,1.2-2.7c0.8-0.6,1.8-0.9,2.9-0.7c1.7,0.3,3,1.8,3,3.5c-0.1,1.4-0.9,2.5-2.1,3
			C167,64.6,165.4,64.3,164.4,63.1z M165.3,49.5c0.1-0.1,0.1-0.1,0.1-0.3c0-2,0.6-4,1.1-5.9c1-4.4,2.1-8.8,3.4-13.1
			c0.6-2.2,1.3-4.3,2-6.5c0.6-1.9,1.5-3.8,1.9-5.8c0.1-0.6,0.4-1.2,0.4-1.9c0.3-1.4,1.2-2.4,2.4-2.9c0.9-0.4,1.9-0.4,2.8,0.1
			s1.6,1.2,1.8,2.2c0.1,0.4,0.2,0.8,0.2,1.2c-0.1,1.2-0.4,2.2-0.6,3.3c-2.2,8.3-5.1,16.5-7.3,24.9c-0.2,0.8-0.4,1.6-0.6,2.4
			c-0.1,1.1-0.4,2.1-0.6,3.2c-0.1,1-0.5,1.9-1.2,2.7c-1.1,1.2-3.7,1.2-4.7,0C165.4,52.1,165,50.8,165.3,49.5z"/>
	</g>
</g>
</svg>
